<svg width="72" height="72" viewBox="0 0 72 72" fill="none" xmlns="http://www.w3.org/2000/svg">
<path fill-rule="evenodd" clip-rule="evenodd" d="M5.87189 59.9795C0.468218 55.8567 -0.358577 49.0001 0.113876 43.0499C0.660149 40.2283 0.719207 39.7166 1.51647 36.4564C4.61694 24.9946 13.9331 8.51828 26.2759 5.65282C37.8658 2.86047 48.7617 9.48318 57.3397 16.8369C57.3397 16.8369 57.3397 16.8369 57.5907 17.0123C65.6814 24.6291 74.658 37.4652 71.2623 49.2486C67.6746 60.959 48.6731 64.804 38.4121 65.6227C28.7415 66.6022 13.4016 65.9882 5.87189 59.9795Z" fill="#5CBCE4"/>
<path fill-rule="evenodd" clip-rule="evenodd" d="M33.2298 21.9975C37.098 21.9975 40.3462 25.053 40.3462 29.0442C40.3462 32.8453 37.098 35.8862 33.2298 35.8862C29.1845 35.8862 26.1135 32.8453 26.1135 29.0442C26.1283 25.053 29.1845 21.9975 33.2298 21.9975ZM33.2298 17.4362C39.5784 17.4362 44.7606 22.5677 44.7606 29.0442C44.7606 35.316 39.5784 40.4622 33.2298 40.4622C26.8813 40.4622 21.4923 35.316 21.4923 29.0442C21.4923 22.5677 26.896 17.4362 33.2298 17.4362ZM33.2298 21.442C37.2752 21.442 40.7448 24.8776 40.7448 29.0442C40.7448 33.0354 37.2752 36.471 33.2298 36.471C28.9925 36.471 25.7149 33.0354 25.7149 29.0442C25.7297 24.863 29.0073 21.442 33.2298 21.442ZM33.2298 12.6848L34.5734 14.5854L35.7397 12.8895L36.8766 14.9801L38.2201 13.445L38.9879 15.7403L40.73 14.5854L41.0991 16.866L42.8413 15.9304V18.211L44.7459 17.4508L44.3768 19.9215L46.488 19.366L45.7203 21.6467H47.8316L46.6652 23.7373L48.7765 23.9127L47.4625 25.8279L49.367 26.398L47.6544 28.0939L49.5885 29.0442L47.6544 30.3746L49.367 31.5149L47.2558 32.6553L48.7912 33.9857L46.488 34.7459L47.8316 36.2809L45.3217 36.6464L46.488 38.5616H43.9781L44.7459 40.4622L42.4427 40.082L42.8413 41.9972L40.5086 41.4124L40.73 43.503L38.3973 42.3481L38.2201 44.4387L36.286 42.9183L35.7397 45.0089L33.9976 43.2984L33.2298 45.1989L31.6944 43.2984L30.528 45.0089L29.5831 42.9183L28.0181 44.4387L27.2651 42.1727L25.7297 43.503L25.3606 41.0323L23.6184 41.9826V39.6873L21.5071 40.4475L21.9057 37.9768L19.9716 38.547L20.7394 36.2663H18.6281L19.573 34.1757L17.6684 33.9857L19.012 32.0851L17.0779 31.5149L18.6133 29.819L16.8712 29.0442L18.8053 27.5091L17.0779 26.3834L19.1891 25.2285L17.6684 23.8981L19.9716 23.1379L18.6281 21.6174L20.9313 21.2373L19.9864 19.3368H22.2896L21.5219 17.4216L24.0318 17.8163L23.6332 15.9011L25.9364 16.4859L25.7592 14.5707L27.8705 15.521L28.0476 13.4304L30.1589 14.9655L30.5575 12.8749L32.2702 14.5707L33.2298 12.6848ZM33.2298 16.2959C40.1542 16.2959 45.927 21.9975 45.927 29.0442C45.927 35.8862 40.169 41.6025 33.2298 41.6025C26.1135 41.6025 20.5327 35.8862 20.5327 29.0442C20.5474 21.9975 26.1283 16.2959 33.2298 16.2959ZM24.5928 41.7779L18.6133 55.6812L22.6587 54.1608L24.3714 60.8127L30.3508 44.8481L29.3764 43.313L28.0329 44.6434L27.2651 42.5528L25.7297 43.6931L25.1539 41.4124L24.5928 41.7779ZM41.8816 41.9972L47.8611 56.0613L43.8157 54.5263L42.1031 61.0028L36.1236 45.0235L36.5222 43.313L38.4268 44.6434L38.6483 42.7428L40.7596 43.6931V41.7779L41.8816 41.9972Z" fill="#B3E4F9"/>
<path fill-rule="evenodd" clip-rule="evenodd" d="M36.1684 25.9304C40.0366 25.9304 43.2847 28.9859 43.2847 32.977C43.2847 36.7928 40.0366 39.819 36.1684 39.819C32.123 39.819 29.052 36.7781 29.052 32.977C29.052 28.9713 32.123 25.9304 36.1684 25.9304ZM36.1684 21.3544C42.5169 21.3544 47.6992 26.4859 47.6992 32.9624C47.6992 39.2343 42.5169 44.3804 36.1684 44.3804C29.8198 44.3804 24.4309 39.2343 24.4309 32.9624C24.4309 26.4859 29.8198 21.3544 36.1684 21.3544ZM36.1684 25.3602C40.2137 25.3602 43.6833 28.7958 43.6833 32.9624C43.6833 36.9536 40.2137 40.3892 36.1684 40.3892C31.931 40.3892 28.6534 36.9536 28.6534 32.9624C28.6534 28.7958 31.931 25.3602 36.1684 25.3602ZM36.1684 16.603L37.5119 18.5036L38.6783 16.8077L39.8151 18.8983L41.1586 17.3633L41.9264 19.6585L43.6685 18.5036L44.0376 20.7842L45.7798 19.8486V22.1293L47.6844 21.369L47.3153 23.8398L49.4266 23.2842L48.6588 25.5649H50.7701L49.6037 27.6555L51.715 27.8309L50.401 29.7461L52.3056 30.3309L50.5929 32.0268L52.5418 32.9624L50.6077 34.2928L52.3203 35.4331L50.209 36.5735L51.7445 37.9039L49.4413 38.6641L50.7849 40.1992L48.275 40.5646L49.4413 42.4798H46.9314L47.6992 44.3804L45.3959 44.0003L45.7946 45.9154L43.4618 45.3453L43.6685 47.4359L41.3358 46.2809L41.1586 48.3715L39.2245 46.8511L38.6783 48.9417L36.9361 47.2312L36.1684 49.1318L34.6329 47.2312L33.4665 48.9563L32.5216 46.8657L30.9566 48.3862L30.1889 46.1055L28.6534 47.4359L28.2843 44.9652L26.5421 45.9154V43.6202L24.4309 44.3804L24.8295 41.9096L22.8954 42.4798L23.6631 40.1992H21.5519L22.4968 38.1085L20.5922 37.9039L21.9357 36.0033L20.0016 35.4185L21.5371 33.7226L19.7949 32.9624L21.729 31.4274L20.0164 30.3016L22.1277 29.1467L20.5922 27.8163L22.8954 27.0561L21.5519 25.5356L23.8551 25.1555L22.9102 23.255H25.2134L24.4456 21.3398L26.9555 21.7345L26.5569 19.8193L28.8601 20.4041L28.6829 18.489L30.7942 19.4392L30.9714 17.3486L33.0827 18.8837L33.4665 16.8077L35.1792 18.5036L36.1684 16.603ZM36.1684 20.2141C43.0927 20.2141 48.8655 25.9157 48.8655 32.9624C48.8655 39.8044 43.1075 45.5207 36.1684 45.5207C29.052 45.5207 23.4712 39.819 23.4712 32.9624C23.4712 25.9304 29.052 20.2141 36.1684 20.2141ZM27.5166 45.7108L21.5371 59.6141L25.5825 58.0936L27.2951 64.7456L33.2746 48.7809L32.2854 47.2458L30.9418 48.5762L30.1741 46.4856L28.6386 47.6259L28.0628 45.3453L27.5166 45.7108ZM44.8054 45.9154L50.7849 59.9796L46.7395 58.4445L45.0268 64.921L39.0474 48.9417L39.446 47.2312L41.3506 48.5616L41.572 46.661L43.6833 47.5967V45.6815L44.8054 45.9154Z" fill="white"/>
<path d="M36 27L37.3471 31.1459H41.7063L38.1796 33.7082L39.5267 37.8541L36 35.2918L32.4733 37.8541L33.8204 33.7082L30.2937 31.1459H34.6529L36 27Z" fill="#5CBCE4"/>
</svg>
