<svg width="72" height="72" viewBox="0 0 72 72" fill="none" xmlns="http://www.w3.org/2000/svg">
<path fill-rule="evenodd" clip-rule="evenodd" d="M5.87193 60.8884C0.468249 56.6975 -0.358579 49.7275 0.113874 43.679C0.674911 40.8107 0.719221 40.2906 1.51649 36.9765C4.61695 25.3252 13.9331 8.5765 26.2759 5.66368C37.8658 2.82516 48.7617 9.55733 57.3397 17.0177C57.3397 17.0177 57.3397 17.0178 57.5907 17.1961C65.6815 24.9388 74.658 37.9871 71.2623 49.9653C67.6746 61.8693 48.6731 65.7778 38.4121 66.61C28.7563 67.6206 13.4164 66.9816 5.87193 60.8884Z" fill="#5CBCE4"/>
<g clip-path="url(#clip0_1_306)">
<path d="M55.4341 52.8503C55.9339 52.2249 56.2077 51.449 56.2109 50.6484C56.2109 49.6974 55.8331 48.7853 55.1606 48.1128C54.4881 47.4403 53.576 47.0625 52.625 47.0625C51.674 47.0625 50.7619 47.4403 50.0894 48.1128C49.4169 48.7853 49.0391 49.6974 49.0391 50.6484C49.0423 51.449 49.3161 52.2249 49.8159 52.8503C49.028 53.1033 48.3386 53.5958 47.8438 54.259C47.3489 53.5958 46.6595 53.1033 45.8716 52.8503C46.3714 52.2249 46.6452 51.449 46.6484 50.6484C46.6484 49.6974 46.2706 48.7853 45.5981 48.1128C44.9256 47.4403 44.0135 47.0625 43.0625 47.0625C42.1115 47.0625 41.1994 47.4403 40.5269 48.1128C39.8544 48.7853 39.4766 49.6974 39.4766 50.6484C39.4798 51.449 39.7536 52.2249 40.2534 52.8503C39.4655 53.1033 38.7761 53.5958 38.2812 54.259C37.7864 53.5958 37.097 53.1033 36.3091 52.8503C36.8089 52.2249 37.0827 51.449 37.0859 50.6484C37.0859 49.6974 36.7081 48.7853 36.0356 48.1128C35.3631 47.4403 34.451 47.0625 33.5 47.0625C32.549 47.0625 31.6369 47.4403 30.9644 48.1128C30.2919 48.7853 29.9141 49.6974 29.9141 50.6484C29.9173 51.449 30.1911 52.2249 30.6909 52.8503C29.903 53.1033 29.2136 53.5958 28.7188 54.259C28.2239 53.5958 27.5345 53.1033 26.7466 52.8503C27.2464 52.2249 27.5202 51.449 27.5234 50.6484C27.5234 49.6974 27.1456 48.7853 26.4731 48.1128C25.8006 47.4403 24.8885 47.0625 23.9375 47.0625C22.9865 47.0625 22.0744 47.4403 21.4019 48.1128C20.7294 48.7853 20.3516 49.6974 20.3516 50.6484C20.3548 51.449 20.6286 52.2249 21.1284 52.8503C20.3405 53.1033 19.6511 53.5958 19.1562 54.259C18.6614 53.5958 17.972 53.1033 17.1841 52.8503C17.6839 52.2249 17.9577 51.449 17.9609 50.6484C17.9609 49.6974 17.5831 48.7853 16.9106 48.1128C16.2381 47.4403 15.326 47.0625 14.375 47.0625C13.424 47.0625 12.5119 47.4403 11.8394 48.1128C11.1669 48.7853 10.7891 49.6974 10.7891 50.6484C10.7923 51.449 11.0661 52.2249 11.5659 52.8503C10.7645 53.1057 10.0646 53.6087 9.56708 54.287C9.06952 54.9652 8.79986 55.7838 8.79688 56.625V61.4062C8.79685 61.5109 8.81744 61.6145 8.85748 61.7112C8.89752 61.8079 8.95621 61.8958 9.03021 61.9698C9.10422 62.0438 9.19207 62.1025 9.28877 62.1425C9.38546 62.1826 9.4891 62.2032 9.59375 62.2031H57.4062C57.5109 62.2032 57.6145 62.1826 57.7112 62.1425C57.8079 62.1025 57.8958 62.0438 57.9698 61.9698C58.0438 61.8958 58.1025 61.8079 58.1425 61.7112C58.1826 61.6145 58.2032 61.5109 58.2031 61.4062V56.625C58.2001 55.7838 57.9305 54.9652 57.4329 54.287C56.9354 53.6087 56.2355 53.1057 55.4341 52.8503ZM14.375 48.6562C14.769 48.6562 15.1542 48.7731 15.4818 48.992C15.8094 49.2109 16.0648 49.522 16.2155 49.8861C16.3663 50.2501 16.4058 50.6506 16.3289 51.0371C16.252 51.4235 16.0623 51.7785 15.7837 52.0571C15.5051 52.3357 15.1501 52.5255 14.7637 52.6023C14.3772 52.6792 13.9766 52.6398 13.6126 52.489C13.2486 52.3382 12.9375 52.0829 12.7186 51.7552C12.4997 51.4276 12.3828 51.0425 12.3828 50.6484C12.3834 50.1202 12.5934 49.6138 12.9669 49.2404C13.3404 48.8669 13.8468 48.6568 14.375 48.6562ZM18.3594 60.6094H10.3906V56.625C10.3913 55.9912 10.6434 55.3835 11.0916 54.9353C11.5398 54.4872 12.1474 54.2351 12.7812 54.2344H15.9688C16.6026 54.2351 17.2102 54.4872 17.6584 54.9353C18.1066 55.3835 18.3587 55.9912 18.3594 56.625V60.6094ZM23.9375 48.6562C24.3315 48.6562 24.7167 48.7731 25.0443 48.992C25.3719 49.2109 25.6273 49.522 25.778 49.8861C25.9288 50.2501 25.9683 50.6506 25.8914 51.0371C25.8145 51.4235 25.6248 51.7785 25.3462 52.0571C25.0676 52.3357 24.7126 52.5255 24.3262 52.6023C23.9397 52.6792 23.5391 52.6398 23.1751 52.489C22.8111 52.3382 22.5 52.0829 22.2811 51.7552C22.0622 51.4276 21.9453 51.0425 21.9453 50.6484C21.9459 50.1202 22.1559 49.6138 22.5294 49.2404C22.9029 48.8669 23.4093 48.6568 23.9375 48.6562ZM27.9219 60.6094H19.9531V56.625C19.9538 55.9912 20.2059 55.3835 20.6541 54.9353C21.1023 54.4872 21.7099 54.2351 22.3438 54.2344H25.5312C26.1651 54.2351 26.7727 54.4872 27.2209 54.9353C27.6691 55.3835 27.9212 55.9912 27.9219 56.625V60.6094ZM33.5 48.6562C33.894 48.6562 34.2792 48.7731 34.6068 48.992C34.9344 49.2109 35.1898 49.522 35.3405 49.8861C35.4913 50.2501 35.5308 50.6506 35.4539 51.0371C35.377 51.4235 35.1873 51.7785 34.9087 52.0571C34.6301 52.3357 34.2751 52.5255 33.8887 52.6023C33.5022 52.6792 33.1016 52.6398 32.7376 52.489C32.3736 52.3382 32.0625 52.0829 31.8436 51.7552C31.6247 51.4276 31.5078 51.0425 31.5078 50.6484C31.5084 50.1202 31.7184 49.6138 32.0919 49.2404C32.4654 48.8669 32.9718 48.6568 33.5 48.6562ZM37.4844 60.6094H29.5156V56.625C29.5163 55.9912 29.7684 55.3835 30.2166 54.9353C30.6648 54.4872 31.2724 54.2351 31.9062 54.2344H35.0938C35.7276 54.2351 36.3352 54.4872 36.7834 54.9353C37.2316 55.3835 37.4837 55.9912 37.4844 56.625V60.6094ZM43.0625 48.6562C43.4565 48.6562 43.8417 48.7731 44.1693 48.992C44.4969 49.2109 44.7523 49.522 44.903 49.8861C45.0538 50.2501 45.0933 50.6506 45.0164 51.0371C44.9395 51.4235 44.7498 51.7785 44.4712 52.0571C44.1926 52.3357 43.8376 52.5255 43.4512 52.6023C43.0647 52.6792 42.6642 52.6398 42.3001 52.489C41.9361 52.3382 41.625 52.0829 41.4061 51.7552C41.1872 51.4276 41.0703 51.0425 41.0703 50.6484C41.0709 50.1202 41.2809 49.6138 41.6544 49.2404C42.0279 48.8669 42.5343 48.6568 43.0625 48.6562ZM47.0469 60.6094H39.0781V56.625C39.0788 55.9912 39.3309 55.3835 39.7791 54.9353C40.2273 54.4872 40.8349 54.2351 41.4688 54.2344H44.6562C45.2901 54.2351 45.8977 54.4872 46.3459 54.9353C46.7941 55.3835 47.0462 55.9912 47.0469 56.625V60.6094ZM52.625 48.6562C53.019 48.6562 53.4042 48.7731 53.7318 48.992C54.0594 49.2109 54.3148 49.522 54.4655 49.8861C54.6163 50.2501 54.6558 50.6506 54.5789 51.0371C54.502 51.4235 54.3123 51.7785 54.0337 52.0571C53.7551 52.3357 53.4001 52.5255 53.0137 52.6023C52.6272 52.6792 52.2267 52.6398 51.8626 52.489C51.4986 52.3382 51.1875 52.0829 50.9686 51.7552C50.7497 51.4276 50.6328 51.0425 50.6328 50.6484C50.6334 50.1202 50.8434 49.6138 51.2169 49.2404C51.5904 48.8669 52.0968 48.6568 52.625 48.6562ZM56.6094 60.6094H48.6406V56.625C48.6413 55.9912 48.8934 55.3835 49.3416 54.9353C49.7898 54.4872 50.3974 54.2351 51.0312 54.2344H54.2188C54.8526 54.2351 55.4602 54.4872 55.9084 54.9353C56.3566 55.3835 56.6087 55.9912 56.6094 56.625V60.6094Z" fill="#B3E4F9"/>
<path d="M57.4062 12.7969H9.59375C9.4891 12.7968 9.38546 12.8174 9.28877 12.8575C9.19207 12.8975 9.10422 12.9562 9.03021 13.0302C8.95621 13.1042 8.89752 13.1921 8.85748 13.2888C8.81744 13.3855 8.79685 13.4891 8.79688 13.5938V38.2969C8.79685 38.4015 8.81744 38.5052 8.85748 38.6019C8.89752 38.6986 8.95621 38.7864 9.03021 38.8604C9.10422 38.9344 9.19207 38.9931 9.28877 39.0331C9.38546 39.0732 9.4891 39.0938 9.59375 39.0938H22.3438V45.4688H23.9375V34.3125H43.0625V45.4688H44.6562V39.0938H57.4062C57.5109 39.0938 57.6145 39.0732 57.7112 39.0331C57.8079 38.9931 57.8958 38.9344 57.9698 38.8604C58.0438 38.7864 58.1025 38.6986 58.1425 38.6019C58.1826 38.5052 58.2032 38.4015 58.2031 38.2969V13.5938C58.2032 13.4891 58.1826 13.3855 58.1425 13.2888C58.1025 13.1921 58.0438 13.1042 57.9698 13.0302C57.8958 12.9562 57.8079 12.8975 57.7112 12.8575C57.6145 12.8174 57.5109 12.7968 57.4062 12.7969ZM23.9375 27.9375C23.7799 27.9375 23.6258 27.8908 23.4948 27.8032C23.3637 27.7156 23.2616 27.5912 23.2013 27.4456C23.141 27.3 23.1252 27.1397 23.1559 26.9852C23.1867 26.8306 23.2626 26.6886 23.374 26.5771C23.4855 26.4657 23.6275 26.3898 23.782 26.3591C23.9366 26.3283 24.0968 26.3441 24.2425 26.4044C24.3881 26.4647 24.5125 26.5669 24.6001 26.6979C24.6876 26.8289 24.7344 26.983 24.7344 27.1406C24.7342 27.3519 24.6501 27.5545 24.5007 27.7039C24.3513 27.8533 24.1488 27.9373 23.9375 27.9375ZM38.2812 32.7188H28.7188V28.7344C28.7194 28.1006 28.9715 27.4929 29.4197 27.0447C29.8679 26.5965 30.4756 26.3444 31.1094 26.3438H35.8906C36.5244 26.3444 37.1321 26.5965 37.5803 27.0447C38.0285 27.4929 38.2806 28.1006 38.2812 28.7344V32.7188ZM31.1094 22.3594C31.1094 21.8866 31.2496 21.4244 31.5123 21.0312C31.775 20.6381 32.1483 20.3317 32.5851 20.1507C33.022 19.9698 33.5027 19.9224 33.9664 20.0147C34.4301 20.1069 34.8561 20.3346 35.1904 20.6689C35.5248 21.0033 35.7524 21.4293 35.8447 21.893C35.9369 22.3567 35.8896 22.8374 35.7086 23.2742C35.5277 23.7111 35.2213 24.0844 34.8282 24.3471C34.435 24.6098 33.9728 24.75 33.5 24.75C32.8662 24.7493 32.2585 24.4972 31.8103 24.049C31.3622 23.6009 31.1101 22.9932 31.1094 22.3594ZM42.2656 27.1406C42.2656 26.983 42.3124 26.8289 42.3999 26.6979C42.4875 26.5669 42.6119 26.4647 42.7575 26.4044C42.9032 26.3441 43.0634 26.3283 43.218 26.3591C43.3725 26.3898 43.5145 26.4657 43.626 26.5771C43.7374 26.6886 43.8133 26.8306 43.8441 26.9852C43.8748 27.1397 43.859 27.3 43.7987 27.4456C43.7384 27.5912 43.6363 27.7156 43.5052 27.8032C43.3742 27.8908 43.2201 27.9375 43.0625 27.9375C42.8512 27.9373 42.6487 27.8533 42.4993 27.7039C42.3499 27.5545 42.2658 27.3519 42.2656 27.1406ZM56.6094 15.9844H38.2812V17.5781H56.6094V37.5H44.6562V33.5156C44.6563 33.411 44.6357 33.3073 44.5956 33.2106C44.5556 33.1139 44.4969 33.0261 44.4229 32.9521C44.3489 32.8781 44.2611 32.8194 44.1644 32.7794C44.0677 32.7393 43.964 32.7187 43.8594 32.7188H43.4852L43.8353 31.3184C43.8514 31.2552 43.8595 31.1902 43.8594 31.125V29.3844C44.3911 29.1964 44.8392 28.8266 45.1246 28.3401C45.41 27.8537 45.5142 27.282 45.4189 26.7262C45.3235 26.1704 45.0347 25.6661 44.6036 25.3026C44.1724 24.9391 43.6266 24.7397 43.0626 24.7397C42.4987 24.7397 41.9529 24.939 41.5217 25.3025C41.0905 25.666 40.8017 26.1702 40.7063 26.7261C40.6109 27.2819 40.7151 27.8536 41.0004 28.34C41.2858 28.8265 41.7339 29.1964 42.2656 29.3844V31.027L41.8429 32.7188H39.875V28.7344C39.8731 27.8033 39.5452 26.9023 38.9483 26.1877C38.3514 25.4731 37.5232 24.9901 36.6073 24.8225C37.1712 24.125 37.4806 23.2562 37.4844 22.3594C37.4844 21.3027 37.0646 20.2892 36.3174 19.542C35.5702 18.7948 34.5567 18.375 33.5 18.375C32.4433 18.375 31.4298 18.7948 30.6826 19.542C29.9354 20.2892 29.5156 21.3027 29.5156 22.3594C29.5194 23.2562 29.8288 24.125 30.3927 24.8225C29.4768 24.9901 28.6486 25.4731 28.0517 26.1877C27.4548 26.9023 27.1269 27.8033 27.125 28.7344V32.7188H25.1571L24.7344 31.027V29.3844C25.2661 29.1964 25.7142 28.8266 25.9996 28.3401C26.285 27.8537 26.3892 27.282 26.2939 26.7262C26.1985 26.1704 25.9097 25.6661 25.4786 25.3026C25.0474 24.9391 24.5016 24.7397 23.9376 24.7397C23.3737 24.7397 22.8279 24.939 22.3967 25.3025C21.9655 25.666 21.6767 26.1702 21.5813 26.7261C21.4859 27.2819 21.5901 27.8536 21.8754 28.34C22.1608 28.8265 22.6089 29.1964 23.1406 29.3844V31.125C23.1405 31.1902 23.1486 31.2552 23.1647 31.3184L23.5148 32.7188H23.1406C23.036 32.7187 22.9323 32.7393 22.8356 32.7794C22.7389 32.8194 22.6511 32.8781 22.5771 32.9521C22.5031 33.0261 22.4444 33.1139 22.4044 33.2106C22.3643 33.3073 22.3437 33.411 22.3438 33.5156V37.5H10.3906V17.5781H28.7188V15.9844H10.3906V14.3906H56.6094V15.9844Z" fill="#B3E4F9"/>
</g>
<g clip-path="url(#clip1_1_306)">
<mask id="path-4-inside-1_1_306" fill="white">
<path d="M58.4341 54.8503C58.9339 54.2249 59.2077 53.449 59.2109 52.6484C59.2109 51.6974 58.8331 50.7853 58.1606 50.1128C57.4881 49.4403 56.576 49.0625 55.625 49.0625C54.674 49.0625 53.7619 49.4403 53.0894 50.1128C52.4169 50.7853 52.0391 51.6974 52.0391 52.6484C52.0423 53.449 52.3161 54.2249 52.8159 54.8503C52.028 55.1033 51.3386 55.5958 50.8438 56.259C50.3489 55.5958 49.6595 55.1033 48.8716 54.8503C49.3714 54.2249 49.6452 53.449 49.6484 52.6484C49.6484 51.6974 49.2706 50.7853 48.5981 50.1128C47.9256 49.4403 47.0135 49.0625 46.0625 49.0625C45.1115 49.0625 44.1994 49.4403 43.5269 50.1128C42.8544 50.7853 42.4766 51.6974 42.4766 52.6484C42.4798 53.449 42.7536 54.2249 43.2534 54.8503C42.4655 55.1033 41.7761 55.5958 41.2812 56.259C40.7864 55.5958 40.097 55.1033 39.3091 54.8503C39.8089 54.2249 40.0827 53.449 40.0859 52.6484C40.0859 51.6974 39.7081 50.7853 39.0356 50.1128C38.3631 49.4403 37.451 49.0625 36.5 49.0625C35.549 49.0625 34.6369 49.4403 33.9644 50.1128C33.2919 50.7853 32.9141 51.6974 32.9141 52.6484C32.9173 53.449 33.1911 54.2249 33.6909 54.8503C32.903 55.1033 32.2136 55.5958 31.7188 56.259C31.2239 55.5958 30.5345 55.1033 29.7466 54.8503C30.2464 54.2249 30.5202 53.449 30.5234 52.6484C30.5234 51.6974 30.1456 50.7853 29.4731 50.1128C28.8006 49.4403 27.8885 49.0625 26.9375 49.0625C25.9865 49.0625 25.0744 49.4403 24.4019 50.1128C23.7294 50.7853 23.3516 51.6974 23.3516 52.6484C23.3548 53.449 23.6286 54.2249 24.1284 54.8503C23.3405 55.1033 22.6511 55.5958 22.1562 56.259C21.6614 55.5958 20.972 55.1033 20.1841 54.8503C20.6839 54.2249 20.9577 53.449 20.9609 52.6484C20.9609 51.6974 20.5831 50.7853 19.9106 50.1128C19.2381 49.4403 18.326 49.0625 17.375 49.0625C16.424 49.0625 15.5119 49.4403 14.8394 50.1128C14.1669 50.7853 13.7891 51.6974 13.7891 52.6484C13.7923 53.449 14.0661 54.2249 14.5659 54.8503C13.7645 55.1057 13.0646 55.6087 12.5671 56.287C12.0695 56.9652 11.7999 57.7838 11.7969 58.625V63.4062C11.7968 63.5109 11.8174 63.6145 11.8575 63.7112C11.8975 63.8079 11.9562 63.8958 12.0302 63.9698C12.1042 64.0438 12.1921 64.1025 12.2888 64.1425C12.3855 64.1826 12.4891 64.2032 12.5938 64.2031H60.4062C60.5109 64.2032 60.6145 64.1826 60.7112 64.1425C60.8079 64.1025 60.8958 64.0438 60.9698 63.9698C61.0438 63.8958 61.1025 63.8079 61.1425 63.7112C61.1826 63.6145 61.2032 63.5109 61.2031 63.4062V58.625C61.2001 57.7838 60.9305 56.9652 60.4329 56.287C59.9354 55.6087 59.2355 55.1057 58.4341 54.8503ZM17.375 50.6562C17.769 50.6562 18.1542 50.7731 18.4818 50.992C18.8094 51.2109 19.0648 51.522 19.2155 51.8861C19.3663 52.2501 19.4058 52.6506 19.3289 53.0371C19.252 53.4235 19.0623 53.7785 18.7837 54.0571C18.5051 54.3357 18.1501 54.5255 17.7637 54.6023C17.3772 54.6792 16.9766 54.6398 16.6126 54.489C16.2486 54.3382 15.9375 54.0829 15.7186 53.7552C15.4997 53.4276 15.3828 53.0425 15.3828 52.6484C15.3834 52.1202 15.5934 51.6138 15.9669 51.2404C16.3404 50.8669 16.8468 50.6568 17.375 50.6562ZM21.3594 62.6094H13.3906V58.625C13.3913 57.9912 13.6434 57.3835 14.0916 56.9353C14.5398 56.4872 15.1474 56.2351 15.7812 56.2344H18.9688C19.6026 56.2351 20.2102 56.4872 20.6584 56.9353C21.1066 57.3835 21.3587 57.9912 21.3594 58.625V62.6094ZM26.9375 50.6562C27.3315 50.6562 27.7167 50.7731 28.0443 50.992C28.3719 51.2109 28.6273 51.522 28.778 51.8861C28.9288 52.2501 28.9683 52.6506 28.8914 53.0371C28.8145 53.4235 28.6248 53.7785 28.3462 54.0571C28.0676 54.3357 27.7126 54.5255 27.3262 54.6023C26.9397 54.6792 26.5391 54.6398 26.1751 54.489C25.8111 54.3382 25.5 54.0829 25.2811 53.7552C25.0622 53.4276 24.9453 53.0425 24.9453 52.6484C24.9459 52.1202 25.1559 51.6138 25.5294 51.2404C25.9029 50.8669 26.4093 50.6568 26.9375 50.6562ZM30.9219 62.6094H22.9531V58.625C22.9538 57.9912 23.2059 57.3835 23.6541 56.9353C24.1023 56.4872 24.7099 56.2351 25.3438 56.2344H28.5312C29.1651 56.2351 29.7727 56.4872 30.2209 56.9353C30.6691 57.3835 30.9212 57.9912 30.9219 58.625V62.6094ZM36.5 50.6562C36.894 50.6562 37.2792 50.7731 37.6068 50.992C37.9344 51.2109 38.1898 51.522 38.3405 51.8861C38.4913 52.2501 38.5308 52.6506 38.4539 53.0371C38.377 53.4235 38.1873 53.7785 37.9087 54.0571C37.6301 54.3357 37.2751 54.5255 36.8887 54.6023C36.5022 54.6792 36.1016 54.6398 35.7376 54.489C35.3736 54.3382 35.0625 54.0829 34.8436 53.7552C34.6247 53.4276 34.5078 53.0425 34.5078 52.6484C34.5084 52.1202 34.7184 51.6138 35.0919 51.2404C35.4654 50.8669 35.9718 50.6568 36.5 50.6562ZM40.4844 62.6094H32.5156V58.625C32.5163 57.9912 32.7684 57.3835 33.2166 56.9353C33.6648 56.4872 34.2724 56.2351 34.9062 56.2344H38.0938C38.7276 56.2351 39.3352 56.4872 39.7834 56.9353C40.2316 57.3835 40.4837 57.9912 40.4844 58.625V62.6094ZM46.0625 50.6562C46.4565 50.6562 46.8417 50.7731 47.1693 50.992C47.4969 51.2109 47.7523 51.522 47.903 51.8861C48.0538 52.2501 48.0933 52.6506 48.0164 53.0371C47.9395 53.4235 47.7498 53.7785 47.4712 54.0571C47.1926 54.3357 46.8376 54.5255 46.4512 54.6023C46.0647 54.6792 45.6642 54.6398 45.3001 54.489C44.9361 54.3382 44.625 54.0829 44.4061 53.7552C44.1872 53.4276 44.0703 53.0425 44.0703 52.6484C44.0709 52.1202 44.2809 51.6138 44.6544 51.2404C45.0279 50.8669 45.5343 50.6568 46.0625 50.6562ZM50.0469 62.6094H42.0781V58.625C42.0788 57.9912 42.3309 57.3835 42.7791 56.9353C43.2273 56.4872 43.8349 56.2351 44.4688 56.2344H47.6562C48.2901 56.2351 48.8977 56.4872 49.3459 56.9353C49.7941 57.3835 50.0462 57.9912 50.0469 58.625V62.6094ZM55.625 50.6562C56.019 50.6562 56.4042 50.7731 56.7318 50.992C57.0594 51.2109 57.3148 51.522 57.4655 51.8861C57.6163 52.2501 57.6558 52.6506 57.5789 53.0371C57.502 53.4235 57.3123 53.7785 57.0337 54.0571C56.7551 54.3357 56.4001 54.5255 56.0137 54.6023C55.6272 54.6792 55.2267 54.6398 54.8626 54.489C54.4986 54.3382 54.1875 54.0829 53.9686 53.7552C53.7497 53.4276 53.6328 53.0425 53.6328 52.6484C53.6334 52.1202 53.8434 51.6138 54.2169 51.2404C54.5904 50.8669 55.0968 50.6568 55.625 50.6562ZM59.6094 62.6094H51.6406V58.625C51.6413 57.9912 51.8934 57.3835 52.3416 56.9353C52.7898 56.4872 53.3974 56.2351 54.0312 56.2344H57.2188C57.8526 56.2351 58.4602 56.4872 58.9084 56.9353C59.3566 57.3835 59.6087 57.9912 59.6094 58.625V62.6094Z"/>
</mask>
<path d="M58.4341 54.8503C58.9339 54.2249 59.2077 53.449 59.2109 52.6484C59.2109 51.6974 58.8331 50.7853 58.1606 50.1128C57.4881 49.4403 56.576 49.0625 55.625 49.0625C54.674 49.0625 53.7619 49.4403 53.0894 50.1128C52.4169 50.7853 52.0391 51.6974 52.0391 52.6484C52.0423 53.449 52.3161 54.2249 52.8159 54.8503C52.028 55.1033 51.3386 55.5958 50.8438 56.259C50.3489 55.5958 49.6595 55.1033 48.8716 54.8503C49.3714 54.2249 49.6452 53.449 49.6484 52.6484C49.6484 51.6974 49.2706 50.7853 48.5981 50.1128C47.9256 49.4403 47.0135 49.0625 46.0625 49.0625C45.1115 49.0625 44.1994 49.4403 43.5269 50.1128C42.8544 50.7853 42.4766 51.6974 42.4766 52.6484C42.4798 53.449 42.7536 54.2249 43.2534 54.8503C42.4655 55.1033 41.7761 55.5958 41.2812 56.259C40.7864 55.5958 40.097 55.1033 39.3091 54.8503C39.8089 54.2249 40.0827 53.449 40.0859 52.6484C40.0859 51.6974 39.7081 50.7853 39.0356 50.1128C38.3631 49.4403 37.451 49.0625 36.5 49.0625C35.549 49.0625 34.6369 49.4403 33.9644 50.1128C33.2919 50.7853 32.9141 51.6974 32.9141 52.6484C32.9173 53.449 33.1911 54.2249 33.6909 54.8503C32.903 55.1033 32.2136 55.5958 31.7188 56.259C31.2239 55.5958 30.5345 55.1033 29.7466 54.8503C30.2464 54.2249 30.5202 53.449 30.5234 52.6484C30.5234 51.6974 30.1456 50.7853 29.4731 50.1128C28.8006 49.4403 27.8885 49.0625 26.9375 49.0625C25.9865 49.0625 25.0744 49.4403 24.4019 50.1128C23.7294 50.7853 23.3516 51.6974 23.3516 52.6484C23.3548 53.449 23.6286 54.2249 24.1284 54.8503C23.3405 55.1033 22.6511 55.5958 22.1562 56.259C21.6614 55.5958 20.972 55.1033 20.1841 54.8503C20.6839 54.2249 20.9577 53.449 20.9609 52.6484C20.9609 51.6974 20.5831 50.7853 19.9106 50.1128C19.2381 49.4403 18.326 49.0625 17.375 49.0625C16.424 49.0625 15.5119 49.4403 14.8394 50.1128C14.1669 50.7853 13.7891 51.6974 13.7891 52.6484C13.7923 53.449 14.0661 54.2249 14.5659 54.8503C13.7645 55.1057 13.0646 55.6087 12.5671 56.287C12.0695 56.9652 11.7999 57.7838 11.7969 58.625V63.4062C11.7968 63.5109 11.8174 63.6145 11.8575 63.7112C11.8975 63.8079 11.9562 63.8958 12.0302 63.9698C12.1042 64.0438 12.1921 64.1025 12.2888 64.1425C12.3855 64.1826 12.4891 64.2032 12.5938 64.2031H60.4062C60.5109 64.2032 60.6145 64.1826 60.7112 64.1425C60.8079 64.1025 60.8958 64.0438 60.9698 63.9698C61.0438 63.8958 61.1025 63.8079 61.1425 63.7112C61.1826 63.6145 61.2032 63.5109 61.2031 63.4062V58.625C61.2001 57.7838 60.9305 56.9652 60.4329 56.287C59.9354 55.6087 59.2355 55.1057 58.4341 54.8503ZM17.375 50.6562C17.769 50.6562 18.1542 50.7731 18.4818 50.992C18.8094 51.2109 19.0648 51.522 19.2155 51.8861C19.3663 52.2501 19.4058 52.6506 19.3289 53.0371C19.252 53.4235 19.0623 53.7785 18.7837 54.0571C18.5051 54.3357 18.1501 54.5255 17.7637 54.6023C17.3772 54.6792 16.9766 54.6398 16.6126 54.489C16.2486 54.3382 15.9375 54.0829 15.7186 53.7552C15.4997 53.4276 15.3828 53.0425 15.3828 52.6484C15.3834 52.1202 15.5934 51.6138 15.9669 51.2404C16.3404 50.8669 16.8468 50.6568 17.375 50.6562ZM21.3594 62.6094H13.3906V58.625C13.3913 57.9912 13.6434 57.3835 14.0916 56.9353C14.5398 56.4872 15.1474 56.2351 15.7812 56.2344H18.9688C19.6026 56.2351 20.2102 56.4872 20.6584 56.9353C21.1066 57.3835 21.3587 57.9912 21.3594 58.625V62.6094ZM26.9375 50.6562C27.3315 50.6562 27.7167 50.7731 28.0443 50.992C28.3719 51.2109 28.6273 51.522 28.778 51.8861C28.9288 52.2501 28.9683 52.6506 28.8914 53.0371C28.8145 53.4235 28.6248 53.7785 28.3462 54.0571C28.0676 54.3357 27.7126 54.5255 27.3262 54.6023C26.9397 54.6792 26.5391 54.6398 26.1751 54.489C25.8111 54.3382 25.5 54.0829 25.2811 53.7552C25.0622 53.4276 24.9453 53.0425 24.9453 52.6484C24.9459 52.1202 25.1559 51.6138 25.5294 51.2404C25.9029 50.8669 26.4093 50.6568 26.9375 50.6562ZM30.9219 62.6094H22.9531V58.625C22.9538 57.9912 23.2059 57.3835 23.6541 56.9353C24.1023 56.4872 24.7099 56.2351 25.3438 56.2344H28.5312C29.1651 56.2351 29.7727 56.4872 30.2209 56.9353C30.6691 57.3835 30.9212 57.9912 30.9219 58.625V62.6094ZM36.5 50.6562C36.894 50.6562 37.2792 50.7731 37.6068 50.992C37.9344 51.2109 38.1898 51.522 38.3405 51.8861C38.4913 52.2501 38.5308 52.6506 38.4539 53.0371C38.377 53.4235 38.1873 53.7785 37.9087 54.0571C37.6301 54.3357 37.2751 54.5255 36.8887 54.6023C36.5022 54.6792 36.1016 54.6398 35.7376 54.489C35.3736 54.3382 35.0625 54.0829 34.8436 53.7552C34.6247 53.4276 34.5078 53.0425 34.5078 52.6484C34.5084 52.1202 34.7184 51.6138 35.0919 51.2404C35.4654 50.8669 35.9718 50.6568 36.5 50.6562ZM40.4844 62.6094H32.5156V58.625C32.5163 57.9912 32.7684 57.3835 33.2166 56.9353C33.6648 56.4872 34.2724 56.2351 34.9062 56.2344H38.0938C38.7276 56.2351 39.3352 56.4872 39.7834 56.9353C40.2316 57.3835 40.4837 57.9912 40.4844 58.625V62.6094ZM46.0625 50.6562C46.4565 50.6562 46.8417 50.7731 47.1693 50.992C47.4969 51.2109 47.7523 51.522 47.903 51.8861C48.0538 52.2501 48.0933 52.6506 48.0164 53.0371C47.9395 53.4235 47.7498 53.7785 47.4712 54.0571C47.1926 54.3357 46.8376 54.5255 46.4512 54.6023C46.0647 54.6792 45.6642 54.6398 45.3001 54.489C44.9361 54.3382 44.625 54.0829 44.4061 53.7552C44.1872 53.4276 44.0703 53.0425 44.0703 52.6484C44.0709 52.1202 44.2809 51.6138 44.6544 51.2404C45.0279 50.8669 45.5343 50.6568 46.0625 50.6562ZM50.0469 62.6094H42.0781V58.625C42.0788 57.9912 42.3309 57.3835 42.7791 56.9353C43.2273 56.4872 43.8349 56.2351 44.4688 56.2344H47.6562C48.2901 56.2351 48.8977 56.4872 49.3459 56.9353C49.7941 57.3835 50.0462 57.9912 50.0469 58.625V62.6094ZM55.625 50.6562C56.019 50.6562 56.4042 50.7731 56.7318 50.992C57.0594 51.2109 57.3148 51.522 57.4655 51.8861C57.6163 52.2501 57.6558 52.6506 57.5789 53.0371C57.502 53.4235 57.3123 53.7785 57.0337 54.0571C56.7551 54.3357 56.4001 54.5255 56.0137 54.6023C55.6272 54.6792 55.2267 54.6398 54.8626 54.489C54.4986 54.3382 54.1875 54.0829 53.9686 53.7552C53.7497 53.4276 53.6328 53.0425 53.6328 52.6484C53.6334 52.1202 53.8434 51.6138 54.2169 51.2404C54.5904 50.8669 55.0968 50.6568 55.625 50.6562ZM59.6094 62.6094H51.6406V58.625C51.6413 57.9912 51.8934 57.3835 52.3416 56.9353C52.7898 56.4872 53.3974 56.2351 54.0312 56.2344H57.2188C57.8526 56.2351 58.4602 56.4872 58.9084 56.9353C59.3566 57.3835 59.6087 57.9912 59.6094 58.625V62.6094Z" fill="white" stroke="white" stroke-width="2" mask="url(#path-4-inside-1_1_306)"/>
<mask id="path-5-inside-2_1_306" fill="white">
<path d="M60.4062 14.7969H12.5938C12.4891 14.7968 12.3855 14.8174 12.2888 14.8575C12.1921 14.8975 12.1042 14.9562 12.0302 15.0302C11.9562 15.1042 11.8975 15.1921 11.8575 15.2888C11.8174 15.3855 11.7968 15.4891 11.7969 15.5938V40.2969C11.7968 40.4015 11.8174 40.5052 11.8575 40.6019C11.8975 40.6986 11.9562 40.7864 12.0302 40.8604C12.1042 40.9344 12.1921 40.9931 12.2888 41.0331C12.3855 41.0732 12.4891 41.0938 12.5938 41.0938H25.3438V47.4688H26.9375V36.3125H46.0625V47.4688H47.6562V41.0938H60.4062C60.5109 41.0938 60.6145 41.0732 60.7112 41.0331C60.8079 40.9931 60.8958 40.9344 60.9698 40.8604C61.0438 40.7864 61.1025 40.6986 61.1425 40.6019C61.1826 40.5052 61.2032 40.4015 61.2031 40.2969V15.5938C61.2032 15.4891 61.1826 15.3855 61.1425 15.2888C61.1025 15.1921 61.0438 15.1042 60.9698 15.0302C60.8958 14.9562 60.8079 14.8975 60.7112 14.8575C60.6145 14.8174 60.5109 14.7968 60.4062 14.7969ZM26.9375 29.9375C26.7799 29.9375 26.6258 29.8908 26.4948 29.8032C26.3637 29.7156 26.2616 29.5912 26.2013 29.4456C26.141 29.3 26.1252 29.1397 26.1559 28.9852C26.1867 28.8306 26.2626 28.6886 26.374 28.5771C26.4855 28.4657 26.6275 28.3898 26.782 28.3591C26.9366 28.3283 27.0968 28.3441 27.2425 28.4044C27.3881 28.4647 27.5125 28.5669 27.6001 28.6979C27.6876 28.8289 27.7344 28.983 27.7344 29.1406C27.7342 29.3519 27.6501 29.5545 27.5007 29.7039C27.3513 29.8533 27.1488 29.9373 26.9375 29.9375ZM41.2812 34.7188H31.7188V30.7344C31.7194 30.1006 31.9715 29.4929 32.4197 29.0447C32.8679 28.5965 33.4756 28.3444 34.1094 28.3438H38.8906C39.5244 28.3444 40.1321 28.5965 40.5803 29.0447C41.0285 29.4929 41.2806 30.1006 41.2812 30.7344V34.7188ZM34.1094 24.3594C34.1094 23.8866 34.2496 23.4244 34.5123 23.0312C34.775 22.6381 35.1483 22.3317 35.5851 22.1507C36.022 21.9698 36.5027 21.9224 36.9664 22.0147C37.4301 22.1069 37.8561 22.3346 38.1904 22.6689C38.5248 23.0033 38.7524 23.4293 38.8447 23.893C38.9369 24.3567 38.8896 24.8374 38.7086 25.2742C38.5277 25.7111 38.2213 26.0844 37.8282 26.3471C37.435 26.6098 36.9728 26.75 36.5 26.75C35.8662 26.7493 35.2585 26.4972 34.8103 26.049C34.3622 25.6009 34.1101 24.9932 34.1094 24.3594ZM45.2656 29.1406C45.2656 28.983 45.3124 28.8289 45.3999 28.6979C45.4875 28.5669 45.6119 28.4647 45.7575 28.4044C45.9032 28.3441 46.0634 28.3283 46.218 28.3591C46.3725 28.3898 46.5145 28.4657 46.626 28.5771C46.7374 28.6886 46.8133 28.8306 46.8441 28.9852C46.8748 29.1397 46.859 29.3 46.7987 29.4456C46.7384 29.5912 46.6363 29.7156 46.5052 29.8032C46.3742 29.8908 46.2201 29.9375 46.0625 29.9375C45.8512 29.9373 45.6487 29.8533 45.4993 29.7039C45.3499 29.5545 45.2658 29.3519 45.2656 29.1406ZM59.6094 17.9844H41.2812V19.5781H59.6094V39.5H47.6562V35.5156C47.6563 35.411 47.6357 35.3073 47.5956 35.2106C47.5556 35.1139 47.4969 35.0261 47.4229 34.9521C47.3489 34.8781 47.2611 34.8194 47.1644 34.7794C47.0677 34.7393 46.964 34.7187 46.8594 34.7188H46.4852L46.8353 33.3184C46.8514 33.2552 46.8595 33.1902 46.8594 33.125V31.3844C47.3911 31.1964 47.8392 30.8266 48.1246 30.3401C48.41 29.8537 48.5142 29.282 48.4189 28.7262C48.3235 28.1704 48.0347 27.6661 47.6036 27.3026C47.1724 26.9391 46.6266 26.7397 46.0626 26.7397C45.4987 26.7397 44.9529 26.939 44.5217 27.3025C44.0905 27.666 43.8017 28.1702 43.7063 28.7261C43.6109 29.2819 43.7151 29.8536 44.0004 30.34C44.2858 30.8265 44.7339 31.1964 45.2656 31.3844V33.027L44.8429 34.7188H42.875V30.7344C42.8731 29.8033 42.5452 28.9023 41.9483 28.1877C41.3514 27.4731 40.5232 26.9901 39.6073 26.8225C40.1712 26.125 40.4806 25.2562 40.4844 24.3594C40.4844 23.3027 40.0646 22.2892 39.3174 21.542C38.5702 20.7948 37.5567 20.375 36.5 20.375C35.4433 20.375 34.4298 20.7948 33.6826 21.542C32.9354 22.2892 32.5156 23.3027 32.5156 24.3594C32.5194 25.2562 32.8288 26.125 33.3927 26.8225C32.4768 26.9901 31.6486 27.4731 31.0517 28.1877C30.4548 28.9023 30.1269 29.8033 30.125 30.7344V34.7188H28.1571L27.7344 33.027V31.3844C28.2661 31.1964 28.7142 30.8266 28.9996 30.3401C29.285 29.8537 29.3892 29.282 29.2939 28.7262C29.1985 28.1704 28.9097 27.6661 28.4786 27.3026C28.0474 26.9391 27.5016 26.7397 26.9376 26.7397C26.3737 26.7397 25.8279 26.939 25.3967 27.3025C24.9655 27.666 24.6767 28.1702 24.5813 28.7261C24.4859 29.2819 24.5901 29.8536 24.8754 30.34C25.1608 30.8265 25.6089 31.1964 26.1406 31.3844V33.125C26.1405 33.1902 26.1486 33.2552 26.1647 33.3184L26.5148 34.7188H26.1406C26.036 34.7187 25.9323 34.7393 25.8356 34.7794C25.7389 34.8194 25.6511 34.8781 25.5771 34.9521C25.5031 35.0261 25.4444 35.1139 25.4044 35.2106C25.3643 35.3073 25.3437 35.411 25.3438 35.5156V39.5H13.3906V19.5781H31.7188V17.9844H13.3906V16.3906H59.6094V17.9844Z"/>
</mask>
<path d="M60.4062 14.7969H12.5938C12.4891 14.7968 12.3855 14.8174 12.2888 14.8575C12.1921 14.8975 12.1042 14.9562 12.0302 15.0302C11.9562 15.1042 11.8975 15.1921 11.8575 15.2888C11.8174 15.3855 11.7968 15.4891 11.7969 15.5938V40.2969C11.7968 40.4015 11.8174 40.5052 11.8575 40.6019C11.8975 40.6986 11.9562 40.7864 12.0302 40.8604C12.1042 40.9344 12.1921 40.9931 12.2888 41.0331C12.3855 41.0732 12.4891 41.0938 12.5938 41.0938H25.3438V47.4688H26.9375V36.3125H46.0625V47.4688H47.6562V41.0938H60.4062C60.5109 41.0938 60.6145 41.0732 60.7112 41.0331C60.8079 40.9931 60.8958 40.9344 60.9698 40.8604C61.0438 40.7864 61.1025 40.6986 61.1425 40.6019C61.1826 40.5052 61.2032 40.4015 61.2031 40.2969V15.5938C61.2032 15.4891 61.1826 15.3855 61.1425 15.2888C61.1025 15.1921 61.0438 15.1042 60.9698 15.0302C60.8958 14.9562 60.8079 14.8975 60.7112 14.8575C60.6145 14.8174 60.5109 14.7968 60.4062 14.7969ZM26.9375 29.9375C26.7799 29.9375 26.6258 29.8908 26.4948 29.8032C26.3637 29.7156 26.2616 29.5912 26.2013 29.4456C26.141 29.3 26.1252 29.1397 26.1559 28.9852C26.1867 28.8306 26.2626 28.6886 26.374 28.5771C26.4855 28.4657 26.6275 28.3898 26.782 28.3591C26.9366 28.3283 27.0968 28.3441 27.2425 28.4044C27.3881 28.4647 27.5125 28.5669 27.6001 28.6979C27.6876 28.8289 27.7344 28.983 27.7344 29.1406C27.7342 29.3519 27.6501 29.5545 27.5007 29.7039C27.3513 29.8533 27.1488 29.9373 26.9375 29.9375ZM41.2812 34.7188H31.7188V30.7344C31.7194 30.1006 31.9715 29.4929 32.4197 29.0447C32.8679 28.5965 33.4756 28.3444 34.1094 28.3438H38.8906C39.5244 28.3444 40.1321 28.5965 40.5803 29.0447C41.0285 29.4929 41.2806 30.1006 41.2812 30.7344V34.7188ZM34.1094 24.3594C34.1094 23.8866 34.2496 23.4244 34.5123 23.0312C34.775 22.6381 35.1483 22.3317 35.5851 22.1507C36.022 21.9698 36.5027 21.9224 36.9664 22.0147C37.4301 22.1069 37.8561 22.3346 38.1904 22.6689C38.5248 23.0033 38.7524 23.4293 38.8447 23.893C38.9369 24.3567 38.8896 24.8374 38.7086 25.2742C38.5277 25.7111 38.2213 26.0844 37.8282 26.3471C37.435 26.6098 36.9728 26.75 36.5 26.75C35.8662 26.7493 35.2585 26.4972 34.8103 26.049C34.3622 25.6009 34.1101 24.9932 34.1094 24.3594ZM45.2656 29.1406C45.2656 28.983 45.3124 28.8289 45.3999 28.6979C45.4875 28.5669 45.6119 28.4647 45.7575 28.4044C45.9032 28.3441 46.0634 28.3283 46.218 28.3591C46.3725 28.3898 46.5145 28.4657 46.626 28.5771C46.7374 28.6886 46.8133 28.8306 46.8441 28.9852C46.8748 29.1397 46.859 29.3 46.7987 29.4456C46.7384 29.5912 46.6363 29.7156 46.5052 29.8032C46.3742 29.8908 46.2201 29.9375 46.0625 29.9375C45.8512 29.9373 45.6487 29.8533 45.4993 29.7039C45.3499 29.5545 45.2658 29.3519 45.2656 29.1406ZM59.6094 17.9844H41.2812V19.5781H59.6094V39.5H47.6562V35.5156C47.6563 35.411 47.6357 35.3073 47.5956 35.2106C47.5556 35.1139 47.4969 35.0261 47.4229 34.9521C47.3489 34.8781 47.2611 34.8194 47.1644 34.7794C47.0677 34.7393 46.964 34.7187 46.8594 34.7188H46.4852L46.8353 33.3184C46.8514 33.2552 46.8595 33.1902 46.8594 33.125V31.3844C47.3911 31.1964 47.8392 30.8266 48.1246 30.3401C48.41 29.8537 48.5142 29.282 48.4189 28.7262C48.3235 28.1704 48.0347 27.6661 47.6036 27.3026C47.1724 26.9391 46.6266 26.7397 46.0626 26.7397C45.4987 26.7397 44.9529 26.939 44.5217 27.3025C44.0905 27.666 43.8017 28.1702 43.7063 28.7261C43.6109 29.2819 43.7151 29.8536 44.0004 30.34C44.2858 30.8265 44.7339 31.1964 45.2656 31.3844V33.027L44.8429 34.7188H42.875V30.7344C42.8731 29.8033 42.5452 28.9023 41.9483 28.1877C41.3514 27.4731 40.5232 26.9901 39.6073 26.8225C40.1712 26.125 40.4806 25.2562 40.4844 24.3594C40.4844 23.3027 40.0646 22.2892 39.3174 21.542C38.5702 20.7948 37.5567 20.375 36.5 20.375C35.4433 20.375 34.4298 20.7948 33.6826 21.542C32.9354 22.2892 32.5156 23.3027 32.5156 24.3594C32.5194 25.2562 32.8288 26.125 33.3927 26.8225C32.4768 26.9901 31.6486 27.4731 31.0517 28.1877C30.4548 28.9023 30.1269 29.8033 30.125 30.7344V34.7188H28.1571L27.7344 33.027V31.3844C28.2661 31.1964 28.7142 30.8266 28.9996 30.3401C29.285 29.8537 29.3892 29.282 29.2939 28.7262C29.1985 28.1704 28.9097 27.6661 28.4786 27.3026C28.0474 26.9391 27.5016 26.7397 26.9376 26.7397C26.3737 26.7397 25.8279 26.939 25.3967 27.3025C24.9655 27.666 24.6767 28.1702 24.5813 28.7261C24.4859 29.2819 24.5901 29.8536 24.8754 30.34C25.1608 30.8265 25.6089 31.1964 26.1406 31.3844V33.125C26.1405 33.1902 26.1486 33.2552 26.1647 33.3184L26.5148 34.7188H26.1406C26.036 34.7187 25.9323 34.7393 25.8356 34.7794C25.7389 34.8194 25.6511 34.8781 25.5771 34.9521C25.5031 35.0261 25.4444 35.1139 25.4044 35.2106C25.3643 35.3073 25.3437 35.411 25.3438 35.5156V39.5H13.3906V19.5781H31.7188V17.9844H13.3906V16.3906H59.6094V17.9844Z" fill="white" stroke="white" stroke-width="2" mask="url(#path-5-inside-2_1_306)"/>
</g>
<defs>
<clipPath id="clip0_1_306">
<rect width="51" height="51" fill="white" transform="translate(8 12)"/>
</clipPath>
<clipPath id="clip1_1_306">
<rect width="51" height="51" fill="white" transform="translate(11 14)"/>
</clipPath>
</defs>
</svg>
