<svg width="72" height="72" viewBox="0 0 72 72" fill="none" xmlns="http://www.w3.org/2000/svg">
<path fill-rule="evenodd" clip-rule="evenodd" d="M0.176199 36.7123C3.57626 17.0688 48.2879 -5.63162 65.5349 6.31778C74.9775 12.4314 72.0355 30.755 69.3754 39.9254C66.8561 48.6443 61.254 61.8964 52.1108 65.5263C40.3075 70.3374 24.3642 65.6653 14.0407 59.2737C6.81777 54.3064 -1.30362 46.6122 0.176199 36.7123Z" fill="#5CBCE4"/>
<path fill-rule="evenodd" clip-rule="evenodd" d="M41.0474 26.5693C40.3603 26.3435 39.9199 25.4404 39.9199 24.763C39.9199 24.0857 40.3603 23.1825 41.0474 22.9567C41.9635 22.2794 42.4391 21.3762 42.4391 20.4731C42.4391 19.7957 42.1925 19.3441 41.7521 19.1183V18.441C42.1925 18.2152 42.4391 17.9894 42.4391 17.5378V15.5057C42.4391 14.151 41.7521 13.0221 40.5717 12.5705C39.4443 12.3447 38.2992 11.8931 37.3831 11.8931C36.6432 11.6673 36.2204 10.99 36.2204 10.3126V8.73209C36.2204 7.82893 35.3043 6.92578 34.1416 6.92578H31.3933C30.2659 6.92578 29.3498 7.82893 29.3498 8.73209V10.3126C29.3498 10.99 28.8741 11.6673 28.1871 11.8931C27.271 11.8931 26.1435 12.3447 25.2274 12.5705C24.5404 13.0221 24.0647 13.2478 23.6243 13.6994C23.4129 14.3768 23.1486 14.8284 23.1486 15.5057V17.5378C23.1486 18.0068 23.4129 18.2152 24.0647 18.441V19.1183C23.4129 19.3441 23.1486 19.7957 23.1486 20.4731C23.1486 21.3588 23.6243 22.2794 24.7518 22.9567C25.2274 23.1825 25.9145 24.0857 25.9145 24.763C25.9145 25.4404 25.2274 26.3435 24.7518 26.5693C23.6243 27.0383 23.1486 28.1498 23.1486 29.053V58.666C23.1486 61.6186 25.9321 64.328 28.8917 64.328H36.6784C39.9375 64.328 42.4567 61.6186 42.4567 58.666V29.053C42.4391 28.1672 41.9635 27.0383 41.0474 26.5693ZM26.5663 14.151C27.042 14.151 27.042 14.3594 27.042 14.6026C27.042 14.8284 27.042 15.2799 26.5663 15.2799C26.1259 15.2799 25.9145 15.5057 25.9145 15.9573V16.652C25.9145 17.0862 25.6502 17.0862 25.2274 17.0862C24.9984 17.0862 24.7518 17.0862 24.7518 16.652V15.9573C24.7342 14.8284 25.6502 14.151 26.5663 14.151ZM27.042 39.6824L27.5176 39.9082C27.5176 40.134 27.042 40.3598 27.042 40.3598C26.3373 40.3598 26.1259 40.5855 26.1259 40.8113V59.1175C26.1259 59.326 25.9145 59.326 25.6502 59.326C25.2098 59.326 24.9984 59.326 24.9984 59.1175V40.8113C24.9808 40.1513 25.8969 39.6824 27.042 39.6824ZM38.7396 14.151C39.6557 14.151 40.5717 14.8284 40.5717 15.9573V16.4089C40.5717 16.8605 40.1313 17.0862 40.1313 17.0862C39.6557 17.0862 39.4443 16.8605 39.4443 16.4089V15.9573C39.4443 15.2799 38.9686 15.0541 38.7396 15.0541C38.2992 15.0541 38.0349 14.8457 38.0349 14.6199C38.0525 14.151 38.2992 14.151 38.7396 14.151ZM38.7396 39.6824C39.6557 39.6824 40.5717 40.134 40.5717 40.8113V59.1175C40.5717 59.326 40.1313 59.326 40.1313 59.326C39.6557 59.326 39.4443 59.326 39.4443 59.1175V40.8113C39.4443 40.5855 38.9686 40.3598 38.7396 40.3598C38.2992 40.3598 38.0349 40.134 38.0349 39.9082C38.0525 39.9082 38.2992 39.6824 38.7396 39.6824ZM40.836 18.441V18.8925H24.9984V18.441H40.836ZM31.3933 7.81157H34.1416C34.8815 7.81157 35.0929 8.26314 35.0929 8.71471H30.4773C30.4773 8.26314 30.9529 7.81157 31.3933 7.81157ZM24.0471 15.5057C24.0471 15.2799 24.2937 14.8284 24.5227 14.3768C24.7341 14.1684 25.2098 13.6994 25.4388 13.4736C26.3549 13.2478 27.5176 13.0221 28.4337 12.7963C29.8254 12.3447 30.4773 11.4415 30.4773 10.3126V9.63523H35.0929V10.3126C35.0929 11.4415 36.009 12.3447 37.1364 12.7963C38.3168 13.0221 39.2152 13.2478 40.1313 13.4736C41.0474 13.9252 41.4878 14.8284 41.4878 15.5057V17.312H24.0471V15.5057ZM41.4878 58.666C41.4878 61.1496 39.4443 63.1817 36.6608 63.1817H28.8741C26.3549 63.1817 24.0471 61.1496 24.0471 58.666V29.053C24.0471 28.3756 24.5227 27.9241 25.2098 27.6983C26.1259 27.0209 26.8129 25.892 26.8129 24.763C26.8129 23.6341 26.1083 22.5051 25.2098 22.0536C24.5227 21.8278 24.0471 21.1504 24.0471 20.4731C24.0471 20.0041 24.2937 20.0041 24.7342 20.0041H41.0474C41.2588 20.0041 41.4878 20.0041 41.4878 20.4731C41.4878 21.1504 41.2764 21.8278 40.5717 22.0536C39.4443 22.5051 38.9686 23.6341 38.9686 24.763C38.9686 25.892 39.4443 27.0209 40.5717 27.6983C41.2588 27.9241 41.4878 28.3756 41.4878 29.053V58.666Z" fill="#B3E4F9"/>
<path fill-rule="evenodd" clip-rule="evenodd" d="M44.5531 31.2412C43.8661 31.0154 43.4257 30.1123 43.4257 29.4349C43.4257 28.7575 43.8661 27.8544 44.5531 27.6286C45.4692 26.9512 45.9449 26.0481 45.9449 25.1449C45.9449 24.4676 45.6982 24.016 45.2402 23.7902V23.1128C45.6806 22.8871 45.9449 22.6613 45.9449 22.2097V20.1776C45.9449 18.8229 45.2402 17.6939 44.0775 17.2424C42.95 17.0166 41.8049 16.565 40.8888 16.565C40.1489 16.3392 39.7085 15.6618 39.7085 14.9845V13.4039C39.7085 12.5008 38.7924 11.5977 37.6297 11.5977H34.8815C33.754 11.5977 32.8379 12.5008 32.8379 13.4039V14.9845C32.8379 15.6618 32.3623 16.3392 31.6752 16.565C30.7591 16.565 29.6316 17.0166 28.7156 17.2424C28.0285 17.6939 27.5352 17.9197 27.1124 18.3713C26.8834 19.0486 26.6368 19.5002 26.6368 20.1776V22.2097C26.6368 22.6613 26.901 22.8871 27.5528 23.1128V23.7902C26.901 24.016 26.6368 24.4676 26.6368 25.1449C26.6368 26.0307 27.1124 26.9512 28.2399 27.6286C28.7156 27.8544 29.4202 28.7575 29.4202 29.4349C29.4202 30.1123 28.7332 31.0154 28.2399 31.2412C27.1124 31.7101 26.6368 32.8217 26.6368 33.7249V63.3378C26.6368 66.2904 29.4202 68.9999 32.3799 68.9999H40.1665C43.4257 68.9999 45.9449 66.2904 45.9449 63.3378V33.7249C45.9273 32.8217 45.4692 31.6928 44.5531 31.2412ZM30.0544 18.8055C30.5301 18.8055 30.5301 19.0139 30.5301 19.2571C30.5301 19.4829 30.5301 19.9344 30.0544 19.9344C29.614 19.9344 29.4026 20.1602 29.4026 20.6118V21.2892C29.4026 21.7234 29.1384 21.7234 28.7156 21.7234C28.5042 21.7234 28.2399 21.7234 28.2399 21.2892V20.6118C28.2223 19.4829 29.1384 18.8055 30.0544 18.8055ZM30.5301 44.3543L31.0058 44.5801C31.0058 44.8232 30.5301 45.0316 30.5301 45.0316C29.843 45.0316 29.614 45.2574 29.614 45.5006V63.8068C29.614 64.0152 29.4026 64.0152 29.1384 64.0152C28.6979 64.0152 28.4865 64.0152 28.4865 63.8068V45.5006C28.4865 44.8059 29.4026 44.3543 30.5301 44.3543ZM42.2453 18.8055C43.1614 18.8055 44.0775 19.4829 44.0775 20.6118V21.0634C44.0775 21.515 43.6371 21.7407 43.6371 21.7407C43.1614 21.7407 42.95 21.515 42.95 21.0634V20.6118C42.95 19.9344 42.4744 19.7087 42.2453 19.7087C41.8049 19.7087 41.5583 19.5002 41.5583 19.2571C41.5407 18.8055 41.8049 18.8055 42.2453 18.8055ZM42.2453 44.3543C43.1614 44.3543 44.0775 44.8232 44.0775 45.4832V63.7894C44.0775 63.9978 43.6371 63.9978 43.6371 63.9978C43.1614 63.9978 42.95 63.9978 42.95 63.7894V45.4832C42.95 45.2401 42.4744 45.0143 42.2453 45.0143C41.8049 45.0143 41.5583 44.8059 41.5583 44.5627C41.5407 44.5801 41.8049 44.3543 42.2453 44.3543ZM44.3241 23.1128V23.5644H28.4865V23.1128H44.3241ZM34.8815 12.4834H37.6297C38.3696 12.4834 38.581 12.935 38.581 13.3866H33.9654C33.9654 12.935 34.4411 12.4834 34.8815 12.4834ZM27.5352 20.1602C27.5352 19.9344 27.7995 19.4829 28.0109 19.0313C28.2223 18.8229 28.6979 18.3539 28.927 18.1281C29.843 17.9023 31.0058 17.6766 31.9218 17.4508C33.3136 16.9992 33.9654 16.096 33.9654 14.9671V14.2897H38.581V14.9671C38.581 16.096 39.4971 16.9992 40.6246 17.4508C41.7873 17.6766 42.7034 17.9023 43.6195 18.1281C44.5355 18.5797 44.976 19.5002 44.976 20.1602V21.9665H27.5352V20.1602ZM44.976 63.3378C44.976 65.8215 42.9324 67.8536 40.1489 67.8536H32.3623C29.843 67.8536 27.5352 65.8215 27.5352 63.3378V33.7249C27.5352 33.0475 28.0109 32.5959 28.7156 32.3701C29.6316 31.6928 30.3187 30.5638 30.3187 29.4349C30.3187 28.306 29.6316 27.177 28.7156 26.7254C28.0285 26.4997 27.5352 25.8223 27.5352 25.1449C27.5352 24.6934 27.7995 24.6933 28.2223 24.6933H44.5531C44.7646 24.6933 44.9936 24.6934 44.9936 25.1449C44.9936 25.8223 44.7822 26.4997 44.0775 26.7254C42.95 27.177 42.4744 28.306 42.4744 29.4349C42.4744 30.5638 42.95 31.6928 44.0775 32.3701C44.7645 32.5959 44.9936 33.0475 44.9936 33.7249V63.3378H44.976Z" fill="white"/>
</svg>
