<svg width="72" height="72" viewBox="0 0 72 72" fill="none" xmlns="http://www.w3.org/2000/svg">
<path fill-rule="evenodd" clip-rule="evenodd" d="M19.4265 64.9382C14.1469 58.96 10.4932 50.1931 8.15057 42.594C5.66812 33.8271 2.73114 17.7748 7.71352 9.16475C13.7098 -1.20563 29.8283 -0.909411 39.9329 1.12981C49.1459 3.16902 61.8903 8.43262 65.5615 17.7747C69.3726 27.8488 64.9846 41.1299 59.705 50.1931C51.4885 64.2062 33.7792 82.1583 19.4265 64.9382Z" fill="#5CBCE4"/>
<path d="M49.7325 22.6909C51.1982 21.2252 52.1416 19.3686 52.4609 17.3195C52.625 16.2633 52.2862 15.2249 51.5297 14.4693C50.7741 13.7136 49.7341 13.3756 48.6811 13.5398C46.6328 13.8591 44.7754 14.8016 43.3097 16.2673L38.7767 20.8003L36.063 20.2096C36.5261 19.5068 36.4489 18.5496 35.8314 17.9313C35.1246 17.2261 33.9765 17.2253 33.2696 17.9313L31.8989 19.302L28.6831 18.6016L28.9073 18.3774C29.6134 17.6713 29.6126 16.5216 28.9073 15.8164C28.2256 15.1323 27.0321 15.1314 26.3463 15.8164L24.4776 17.6851L17.8216 16.2356C17.2983 16.1211 16.758 16.2803 16.3769 16.6598L15.0371 17.9996C14.6853 18.3514 14.5228 18.8364 14.5927 19.3296C14.6626 19.8228 14.9526 20.2437 15.3889 20.485L31.0206 29.1203L23.1077 37.7783L15.0712 38.2056L13.8265 39.4496C13.56 39.7169 13.4479 40.0979 13.5267 40.4676C13.6063 40.8373 13.8639 41.1379 14.2165 41.272L21.8239 44.1775L24.7302 51.7858C24.8651 52.1384 25.1657 52.3968 25.5354 52.4756C25.6134 52.4918 25.6922 52.4999 25.7694 52.4999C26.0603 52.4999 26.3414 52.3854 26.5535 52.1741L27.7966 50.931L28.224 42.8938L36.882 34.9808L45.5116 50.6068C45.7521 51.0431 46.1729 51.3332 46.6661 51.4031C47.1593 51.4713 47.6444 51.3104 47.9962 50.9586L49.3368 49.6188C49.7162 49.2394 49.8747 48.6999 49.7609 48.175L48.3139 41.5255L50.1851 39.6551C50.5271 39.3131 50.7156 38.8581 50.7156 38.3738C50.7156 37.8896 50.5271 37.4346 50.1851 37.0925C49.4782 36.3873 48.3301 36.3864 47.6232 37.0925L47.3982 37.3176L46.6986 34.1017L48.0701 32.7302C48.4122 32.3881 48.6007 31.9331 48.6007 31.4489C48.6007 30.9646 48.4122 30.5096 48.0709 30.1684C47.4737 29.5712 46.4882 29.4956 45.7927 29.9401L45.2012 27.2223L49.7341 22.6893L49.7325 22.6909Z" fill="#B3E4F9"/>
<path d="M52.7325 25.6909C54.1982 24.2252 55.1416 22.3686 55.4609 20.3195C55.625 19.2633 55.2862 18.2249 54.5297 17.4693C53.7741 16.7136 52.7341 16.3756 51.6811 16.5398C49.6328 16.8591 47.7754 17.8016 46.3097 19.2673L41.7767 23.8003L39.063 23.2096C39.5261 22.5068 39.4489 21.5496 38.8314 20.9313C38.1246 20.2261 36.9765 20.2253 36.2696 20.9313L34.8989 22.302L31.6831 21.6016L31.9073 21.3774C32.6134 20.6713 32.6126 19.5216 31.9073 18.8164C31.2256 18.1323 30.0321 18.1314 29.3463 18.8164L27.4776 20.6851L20.8216 19.2356C20.2983 19.1211 19.758 19.2803 19.3769 19.6598L18.0371 20.9996C17.6853 21.3514 17.5228 21.8364 17.5927 22.3296C17.6626 22.8228 17.9526 23.2437 18.3889 23.485L34.0206 32.1203L26.1077 40.7783L18.0712 41.2056L16.8265 42.4496C16.56 42.7169 16.4479 43.0979 16.5267 43.4676C16.6063 43.8373 16.8639 44.1379 17.2165 44.272L24.8239 47.1775L27.7302 54.7858C27.8651 55.1384 28.1657 55.3968 28.5354 55.4756C28.6134 55.4918 28.6922 55.4999 28.7694 55.4999C29.0603 55.4999 29.3414 55.3854 29.5535 55.1741L30.7966 53.931L31.224 45.8938L39.882 37.9808L48.5116 53.6068C48.7521 54.0431 49.1729 54.3332 49.6661 54.4031C50.1593 54.4713 50.6444 54.3104 50.9962 53.9586L52.3368 52.6188C52.7162 52.2394 52.8747 51.6999 52.7609 51.175L51.3139 44.5255L53.1851 42.6551C53.5271 42.3131 53.7156 41.8581 53.7156 41.3738C53.7156 40.8896 53.5271 40.4346 53.1851 40.0925C52.4782 39.3873 51.3301 39.3864 50.6232 40.0925L50.3982 40.3176L49.6986 37.1017L51.0701 35.7302C51.4122 35.3881 51.6007 34.9331 51.6007 34.4489C51.6007 33.9646 51.4122 33.5096 51.0709 33.1684C50.4737 32.5712 49.4882 32.4956 48.7927 32.9401L48.2012 30.2223L52.7341 25.6893L52.7325 25.6909Z" fill="white"/>
</svg>
