<svg width="72" height="72" viewBox="0 0 72 72" fill="none" xmlns="http://www.w3.org/2000/svg">
<path fill-rule="evenodd" clip-rule="evenodd" d="M5.87184 57.8809C0.468165 53.6906 -0.358573 46.7365 0.113879 40.674C0.660153 37.8062 0.719227 37.2862 1.51649 33.9726C4.61696 22.3231 13.9331 5.57686 26.2759 2.66448C37.8657 -0.17361 48.7617 6.54269 57.3397 14.0317C57.3397 14.0317 57.3397 14.0317 57.5907 14.21C65.6814 21.9516 74.658 34.9979 71.2623 46.9743C67.6746 58.8764 48.6731 62.7844 38.4121 63.6165C28.7563 64.612 13.4163 63.988 5.87184 57.8809Z" fill="#5CBCE4"/>
<path d="M55.4082 58.1284C53.306 58.1284 51.5957 56.4181 51.5957 54.3159C51.5957 52.7723 52.5177 51.44 53.8401 50.8409C53.7512 50.7905 53.6578 50.7381 53.5599 50.684C53.2719 50.5247 53.1676 50.1623 53.3269 49.8745C53.4862 49.5866 53.8489 49.4821 54.1365 49.6415C54.8689 50.0466 55.3627 50.3571 55.5945 50.5079C57.6105 50.6054 59.2207 52.2762 59.2207 54.3159C59.2207 56.4181 57.5104 58.1284 55.4082 58.1284ZM55.4005 51.6948C53.9587 51.6991 52.7871 52.8733 52.7871 54.3159C52.7871 55.7612 53.9629 56.937 55.4082 56.937C56.8535 56.937 58.0293 55.7612 58.0293 54.3159C58.0293 52.873 56.8573 51.6985 55.4152 51.6948C55.4103 51.6948 55.4056 51.6947 55.4005 51.6948ZM13.5898 58.1284C11.4876 58.1284 9.77734 56.4181 9.77734 54.3159C9.77734 52.2762 11.3876 50.6054 13.4036 50.5079C13.6423 50.3527 14.1589 50.0284 14.9273 49.6054C15.2158 49.4472 15.5778 49.5521 15.7364 49.8403C15.8951 50.1285 15.79 50.4907 15.5017 50.6493C15.3806 50.7159 15.2662 50.78 15.1583 50.8412C16.4804 51.4402 17.4023 52.7724 17.4023 54.3159C17.4023 56.4181 15.6921 58.1284 13.5898 58.1284ZM13.5898 51.6948C12.1445 51.6948 10.9688 52.8706 10.9688 54.3159C10.9688 55.7612 12.1445 56.937 13.5898 56.937C15.0351 56.937 16.2109 55.7612 16.2109 54.3159C16.2109 52.8706 15.0351 51.6948 13.5898 51.6948ZM51.1063 49.3941C51.0248 49.3941 50.9421 49.3773 50.863 49.3419C50.1764 49.0342 49.4634 48.7387 48.7441 48.4641C48.4367 48.3467 48.2826 48.0024 48.4 47.6951C48.5173 47.3878 48.8615 47.2335 49.1689 47.3511C49.9094 47.6338 50.6433 47.9378 51.3503 48.2547C51.6506 48.3894 51.7848 48.7418 51.6503 49.0419C51.551 49.2629 51.3338 49.3941 51.1063 49.3941ZM18.4052 49.1688C18.1746 49.1688 17.9552 49.0342 17.8579 48.809C17.7275 48.507 17.8666 48.1563 18.1688 48.026C18.8877 47.7157 19.6255 47.4218 20.3614 47.1526C20.6707 47.0393 21.0125 47.1984 21.1256 47.5074C21.2387 47.8164 21.0797 48.1585 20.7708 48.2714C20.056 48.5329 19.3393 48.8185 18.6409 49.1199C18.564 49.1531 18.4839 49.1688 18.4052 49.1688ZM24.2902 47.1373C24.0263 47.1373 23.7851 46.9606 23.7145 46.6933C23.6307 46.3752 23.8206 46.0493 24.1387 45.9655C25.0322 45.7298 25.945 45.5214 26.8516 45.346C27.1743 45.284 27.4871 45.4947 27.5497 45.8177C27.6121 46.1408 27.401 46.4533 27.078 46.5158C26.1973 46.6861 25.3107 46.8887 24.4426 47.1175C24.3916 47.131 24.3405 47.1373 24.2902 47.1373ZM44.6701 47.1276C44.62 47.1276 44.5691 47.1212 44.5185 47.1079C43.8354 46.9286 43.1434 46.7657 42.4615 46.6239C42.1395 46.5569 41.9327 46.2415 41.9996 45.9193C42.0667 45.5974 42.381 45.3905 42.7042 45.4574C43.406 45.6035 44.1181 45.771 44.821 45.9556C45.1392 46.0391 45.3295 46.3648 45.2459 46.6829C45.1757 46.9505 44.9343 47.1276 44.6701 47.1276ZM38.8172 46.0371C38.7951 46.0371 38.7731 46.0359 38.7507 46.0335C38.0433 45.9548 37.3235 45.895 36.6106 45.8556C36.2821 45.8375 36.0306 45.5564 36.0487 45.2279C36.0668 44.8993 36.3476 44.6492 36.6764 44.666C37.4111 44.7066 38.1533 44.7682 38.8822 44.8492C39.2092 44.8857 39.4449 45.1801 39.4086 45.507C39.3747 45.8118 39.1168 46.0371 38.8172 46.0371ZM30.2075 46.0343C29.9076 46.0343 29.6495 45.8085 29.616 45.5037C29.5801 45.1767 29.8161 44.8825 30.1431 44.8465C31.0325 44.7488 31.9333 44.6799 32.8206 44.6419C33.1506 44.6235 33.4271 44.8828 33.4412 45.2115C33.4552 45.5402 33.2002 45.8181 32.8714 45.8321C32.0104 45.8691 31.1363 45.9358 30.2732 46.0306C30.2511 46.0331 30.2291 46.0343 30.2075 46.0343Z" fill="#B3E4F9"/>
<path d="M56.4082 59.1285C54.306 59.1285 52.5957 57.4183 52.5957 55.316C52.5957 53.7724 53.5177 52.4401 54.8401 51.841C54.7512 51.7907 54.6578 51.7382 54.5599 51.6841C54.2719 51.5248 54.1676 51.1624 54.3269 50.8746C54.4862 50.5867 54.8489 50.4822 55.1365 50.6417C55.8689 51.0467 56.3627 51.3572 56.5945 51.508C58.6105 51.6055 60.2207 53.2763 60.2207 55.316C60.2207 57.4183 58.5104 59.1285 56.4082 59.1285ZM56.4005 52.6949C54.9587 52.6992 53.7871 53.8735 53.7871 55.316C53.7871 56.7613 54.9629 57.9371 56.4082 57.9371C57.8535 57.9371 59.0293 56.7613 59.0293 55.316C59.0293 53.8731 57.8573 52.6986 56.4152 52.6949C56.4103 52.6949 56.4056 52.6948 56.4005 52.6949ZM14.5898 59.1285C12.4876 59.1285 10.7773 57.4183 10.7773 55.316C10.7773 53.2763 12.3876 51.6055 14.4036 51.508C14.6423 51.3528 15.1589 51.0285 15.9273 50.6056C16.2158 50.4473 16.5778 50.5522 16.7364 50.8404C16.8951 51.1286 16.79 51.4908 16.5017 51.6495C16.3806 51.7161 16.2662 51.7802 16.1583 51.8413C17.4804 52.4403 18.4023 53.7726 18.4023 55.316C18.4023 57.4183 16.6921 59.1285 14.5898 59.1285ZM14.5898 52.6949C13.1445 52.6949 11.9688 53.8707 11.9688 55.316C11.9688 56.7613 13.1445 57.9371 14.5898 57.9371C16.0351 57.9371 17.2109 56.7613 17.2109 55.316C17.2109 53.8707 16.0351 52.6949 14.5898 52.6949ZM52.1063 50.3942C52.0248 50.3942 51.9421 50.3774 51.863 50.342C51.1764 50.0343 50.4634 49.7388 49.7441 49.4642C49.4367 49.3468 49.2826 49.0025 49.4 48.6953C49.5173 48.3879 49.8615 48.2336 50.1689 48.3512C50.9094 48.6339 51.6433 48.9379 52.3503 49.2549C52.6506 49.3895 52.7848 49.7419 52.6503 50.042C52.551 50.263 52.3338 50.3942 52.1063 50.3942ZM19.4052 50.1689C19.1746 50.1689 18.9552 50.0343 18.8579 49.8091C18.7275 49.5071 18.8666 49.1565 19.1688 49.0261C19.8877 48.7159 20.6255 48.4219 21.3614 48.1527C21.6707 48.0394 22.0125 48.1986 22.1256 48.5075C22.2387 48.8165 22.0797 49.1586 21.7708 49.2715C21.056 49.5331 20.3393 49.8186 19.6409 50.1201C19.564 50.1532 19.4839 50.1689 19.4052 50.1689ZM25.2902 48.1374C25.0263 48.1374 24.7851 47.9608 24.7145 47.6934C24.6307 47.3753 24.8206 47.0495 25.1387 46.9656C26.0322 46.7299 26.945 46.5215 27.8516 46.3462C28.1743 46.2841 28.4871 46.4948 28.5497 46.8178C28.6121 47.1409 28.401 47.4535 28.078 47.5159C27.1973 47.6863 26.3107 47.8888 25.4426 48.1177C25.3916 48.1311 25.3405 48.1374 25.2902 48.1374ZM45.6701 48.1277C45.62 48.1277 45.5691 48.1214 45.5185 48.108C44.8354 47.9287 44.1434 47.7658 43.4615 47.6241C43.1395 47.557 42.9327 47.2416 42.9996 46.9195C43.0667 46.5975 43.381 46.3906 43.7042 46.4576C44.406 46.6036 45.1181 46.7711 45.821 46.9557C46.1392 47.0392 46.3295 47.3649 46.2459 47.683C46.1757 47.9506 45.9343 48.1277 45.6701 48.1277ZM39.8172 47.0372C39.7951 47.0372 39.7731 47.036 39.7507 47.0336C39.0433 46.955 38.3235 46.8952 37.6106 46.8557C37.2821 46.8376 37.0306 46.5566 37.0487 46.228C37.0668 45.8994 37.3476 45.6493 37.6764 45.6661C38.4111 45.7067 39.1533 45.7683 39.8822 45.8493C40.2092 45.8858 40.4449 46.1802 40.4086 46.5071C40.3747 46.8119 40.1168 47.0372 39.8172 47.0372ZM31.2075 47.0344C30.9076 47.0344 30.6495 46.8087 30.616 46.5038C30.5801 46.1769 30.8161 45.8826 31.1431 45.8466C32.0325 45.7489 32.9333 45.68 33.8206 45.642C34.1506 45.6236 34.4271 45.8829 34.4412 46.2117C34.4552 46.5404 34.2002 46.8182 33.8714 46.8323C33.0104 46.8692 32.1363 46.9359 31.2732 47.0307C31.2511 47.0332 31.2291 47.0344 31.2075 47.0344Z" fill="white"/>
<g clip-path="url(#clip0_1_386)">
<path d="M49.9811 36.3621V20.069C49.9811 19.4024 49.4408 18.8621 48.7742 18.8621H22.2225C21.556 18.8621 21.0156 19.4024 21.0156 20.069V36.3621H49.9811Z" fill="#B3E4F9"/>
<path d="M30.6715 16.4484H40.3267C40.9932 16.4484 41.5336 16.9887 41.5336 17.6553V36.3622H29.4646V17.6553C29.4646 16.9887 30.0049 16.4484 30.6715 16.4484Z" fill="white"/>
<path d="M36.0583 8.35473L36.6437 9.60266L38.0153 9.81024C38.2439 9.84524 38.4338 10.0051 38.5072 10.2243C38.5807 10.4436 38.5255 10.6855 38.3641 10.8512L37.3509 11.8891L37.5839 13.3145C37.6211 13.547 37.5229 13.7804 37.3306 13.9163C37.1383 14.0522 36.8854 14.0669 36.6787 13.9541L35.4995 13.3054L34.3234 13.9559C34.1167 14.0687 33.8638 14.054 33.6715 13.9181C33.4792 13.7822 33.381 13.5488 33.4182 13.3163L33.6512 11.8909L32.638 10.853C32.4757 10.6879 32.4194 10.4458 32.4923 10.226C32.5652 10.0062 32.7549 9.84569 32.9838 9.81024L34.353 9.60266L34.9383 8.35473C35.0395 8.13669 35.258 7.99719 35.4983 7.99719C35.7387 7.99719 35.9572 8.13669 36.0583 8.35473Z" fill="white"/>
<path d="M27.8507 9.52613L28.3739 10.6491L29.5989 10.838C29.8036 10.8711 29.973 11.0152 30.0383 11.2121C30.1036 11.4089 30.0541 11.6257 29.9097 11.7746L29.0051 12.7069L29.2133 13.9892C29.2487 14.1982 29.1613 14.409 28.9885 14.5317C28.8157 14.6543 28.5879 14.6673 28.4023 14.5649L27.3517 13.9796L26.3011 14.5649C26.1155 14.6673 25.8877 14.6543 25.7149 14.5317C25.542 14.409 25.4547 14.1982 25.49 13.9892L25.6982 12.7069L24.7931 11.7722C24.649 11.6232 24.5998 11.4065 24.6652 11.2099C24.7306 11.0132 24.8999 10.8692 25.1044 10.8362L26.3294 10.6473L26.8526 9.52432C26.9429 9.3299 27.1379 9.20567 27.3523 9.20606C27.5666 9.20644 27.7612 9.33138 27.8507 9.52613Z" fill="white"/>
<path d="M20.8564 11.905L21.321 12.9031L22.4102 13.069C22.5925 13.0983 22.7433 13.2266 22.8014 13.4018C22.8595 13.577 22.8152 13.77 22.6866 13.9024L21.8828 14.734L22.0675 15.8739C22.099 16.0595 22.0214 16.2469 21.8679 16.3559C21.7143 16.465 21.5119 16.4765 21.347 16.3856L20.4128 15.8654L19.4787 16.388C19.3137 16.4789 19.1113 16.4674 18.9578 16.3583C18.8042 16.2493 18.7267 16.062 18.7582 15.8763L18.9428 14.7364L18.139 13.9036C18.0097 13.7713 17.965 13.5778 18.0232 13.4022C18.0813 13.2265 18.2327 13.098 18.4154 13.069L19.5076 12.9031L19.9723 11.905C20.0527 11.7335 20.225 11.624 20.4143 11.624C20.6037 11.624 20.776 11.7335 20.8564 11.905Z" fill="white"/>
<path d="M43.1475 9.52613L42.6243 10.6491L41.3993 10.838C41.1946 10.8711 41.0253 11.0152 40.96 11.2121C40.8947 11.4089 40.9442 11.6257 41.0886 11.7746L41.9931 12.7069L41.785 13.9892C41.7496 14.1982 41.8369 14.409 42.0098 14.5317C42.1826 14.6543 42.4104 14.6673 42.596 14.5649L43.6466 13.9796L44.6972 14.5649C44.8828 14.6673 45.1106 14.6543 45.2834 14.5317C45.4563 14.409 45.5436 14.1982 45.5082 13.9892L45.3 12.7069L46.2052 11.7722C46.3492 11.6232 46.3985 11.4065 46.3331 11.2099C46.2677 11.0132 46.0984 10.8692 45.8938 10.8362L44.6688 10.6473L44.1456 9.52432C44.0554 9.3299 43.8604 9.20567 43.646 9.20606C43.4317 9.20644 43.2371 9.33138 43.1475 9.52613Z" fill="white"/>
<path d="M50.1418 11.905L49.6801 12.9031L48.5939 13.0702C48.4117 13.0995 48.2609 13.2278 48.2028 13.403C48.1447 13.5782 48.1889 13.7712 48.3175 13.9036L49.1213 14.7339L48.9367 15.8738C48.9052 16.0595 48.9827 16.2468 49.1363 16.3559C49.2898 16.4649 49.4923 16.4765 49.6572 16.3856L50.5853 15.8654L51.5194 16.3856C51.6844 16.4765 51.8868 16.4649 52.0403 16.3559C52.1939 16.2468 52.2715 16.0595 52.24 15.8738L52.0553 14.7339L52.8591 13.9036C52.9884 13.7712 53.0331 13.5778 52.9749 13.4022C52.9168 13.2265 52.7655 13.098 52.5827 13.069L51.4965 12.9018L51.0319 11.9037C50.9527 11.7288 50.7784 11.6166 50.5864 11.6168C50.3944 11.6171 50.2204 11.7298 50.1418 11.905Z" fill="white"/>
<path d="M52.3966 35.7587H18.6034C18.2702 35.7587 18 36.0288 18 36.3621V42.3966C18 42.7299 18.2702 43 18.6034 43H52.3966C52.7298 43 53 42.7299 53 42.3966V36.3621C53 36.0288 52.7298 35.7587 52.3966 35.7587Z" fill="white"/>
<path d="M21.6191 38.7759H25.2398V43H21.6191V38.7759Z" fill="#B3E4F9"/>
<path d="M35.5 38.1725H38.5172V43.0001H35.5V38.1725Z" fill="#B3E4F9"/>
<path d="M32.4824 38.1725H35.4997V43.0001H32.4824V38.1725Z" fill="#5CBCE4"/>
<path d="M39.7236 38.7759H31.2753C30.942 38.7759 30.6719 38.5057 30.6719 38.1724C30.6719 37.8391 30.942 37.569 31.2753 37.569H39.7236C40.0569 37.569 40.327 37.8391 40.327 38.1724C40.327 38.5057 40.0569 38.7759 39.7236 38.7759Z" fill="#B3E4F9"/>
<path d="M25.8431 39.3794H21.0156C20.6823 39.3794 20.4121 39.1092 20.4121 38.7759C20.4121 38.4427 20.6823 38.1725 21.0156 38.1725H25.8431C26.1764 38.1725 26.4466 38.4427 26.4466 38.7759C26.4466 39.1092 26.1764 39.3794 25.8431 39.3794Z" fill="#B3E4F9"/>
<path d="M45.7577 38.7759H49.3784V43H45.7577V38.7759Z" fill="#B3E4F9"/>
<path d="M49.9818 39.3794H45.1543C44.821 39.3794 44.5508 39.1092 44.5508 38.7759C44.5508 38.4427 44.821 38.1725 45.1543 38.1725H49.9818C50.3151 38.1725 50.5853 38.4427 50.5853 38.7759C50.5853 39.1092 50.3151 39.3794 49.9818 39.3794Z" fill="#B3E4F9"/>
<path d="M33.6893 19.4656H32.4824C32.1491 19.4656 31.8789 19.7357 31.8789 20.069V21.2759C31.8789 21.6092 32.1491 21.8794 32.4824 21.8794H33.6893C34.0225 21.8794 34.2927 21.6092 34.2927 21.2759V20.069C34.2927 19.7357 34.0225 19.4656 33.6893 19.4656Z" fill="#5CBCE4"/>
<path d="M38.5154 19.4656H37.3085C36.9753 19.4656 36.7051 19.7357 36.7051 20.069V21.2759C36.7051 21.6092 36.9753 21.8794 37.3085 21.8794H38.5154C38.8487 21.8794 39.1189 21.6092 39.1189 21.2759V20.069C39.1189 19.7357 38.8487 19.4656 38.5154 19.4656Z" fill="#5CBCE4"/>
<path d="M33.6893 24.8966H32.4824C32.1491 24.8966 31.8789 25.1668 31.8789 25.5001V26.707C31.8789 27.0402 32.1491 27.3104 32.4824 27.3104H33.6893C34.0225 27.3104 34.2927 27.0402 34.2927 26.707V25.5001C34.2927 25.1668 34.0225 24.8966 33.6893 24.8966Z" fill="#5CBCE4"/>
<path d="M38.5154 24.8966H37.3085C36.9753 24.8966 36.7051 25.1668 36.7051 25.5001V26.707C36.7051 27.0402 36.9753 27.3104 37.3085 27.3104H38.5154C38.8487 27.3104 39.1189 27.0402 39.1189 26.707V25.5001C39.1189 25.1668 38.8487 24.8966 38.5154 24.8966Z" fill="#5CBCE4"/>
<path d="M33.6893 30.3276H32.4824C32.1491 30.3276 31.8789 30.5978 31.8789 30.9311V32.138C31.8789 32.4713 32.1491 32.7414 32.4824 32.7414H33.6893C34.0225 32.7414 34.2927 32.4713 34.2927 32.138V30.9311C34.2927 30.5978 34.0225 30.3276 33.6893 30.3276Z" fill="#5CBCE4"/>
<path d="M26.4469 21.2759H24.0331C23.6999 21.2759 23.4297 21.5461 23.4297 21.8793V23.0862C23.4297 23.4195 23.6999 23.6897 24.0331 23.6897H26.4469C26.7802 23.6897 27.0504 23.4195 27.0504 23.0862V21.8793C27.0504 21.5461 26.7802 21.2759 26.4469 21.2759Z" fill="#5CBCE4"/>
<path d="M26.4469 26.1035H24.0331C23.6999 26.1035 23.4297 26.3737 23.4297 26.707V27.9139C23.4297 28.2471 23.6999 28.5173 24.0331 28.5173H26.4469C26.7802 28.5173 27.0504 28.2471 27.0504 27.9139V26.707C27.0504 26.3737 26.7802 26.1035 26.4469 26.1035Z" fill="#5CBCE4"/>
<path d="M26.4469 30.9312H24.0331C23.6999 30.9312 23.4297 31.2013 23.4297 31.5346V32.7415C23.4297 33.0748 23.6999 33.3449 24.0331 33.3449H26.4469C26.7802 33.3449 27.0504 33.0748 27.0504 32.7415V31.5346C27.0504 31.2013 26.7802 30.9312 26.4469 30.9312Z" fill="#5CBCE4"/>
<path d="M44.5511 23.6897H46.9649C47.2982 23.6897 47.5684 23.4195 47.5684 23.0862V21.8794C47.5684 21.5461 47.2982 21.2759 46.9649 21.2759H44.5511C44.2178 21.2759 43.9477 21.5461 43.9477 21.8794V23.0862C43.9477 23.4195 44.2178 23.6897 44.5511 23.6897Z" fill="#5CBCE4"/>
<path d="M44.5511 28.5173H46.9649C47.2982 28.5173 47.5684 28.2472 47.5684 27.9139V26.707C47.5684 26.3737 47.2982 26.1035 46.9649 26.1035H44.5511C44.2178 26.1035 43.9477 26.3737 43.9477 26.707V27.9139C43.9477 28.2472 44.2178 28.5173 44.5511 28.5173Z" fill="#5CBCE4"/>
<path d="M44.5511 33.3448H46.9649C47.2982 33.3448 47.5684 33.0747 47.5684 32.7414V31.5345C47.5684 31.2012 47.2982 30.9311 46.9649 30.9311H44.5511C44.2178 30.9311 43.9477 31.2012 43.9477 31.5345V32.7414C43.9477 33.0747 44.2178 33.3448 44.5511 33.3448Z" fill="#5CBCE4"/>
<path d="M38.5154 30.3276H37.3085C36.9753 30.3276 36.7051 30.5978 36.7051 30.9311V32.138C36.7051 32.4713 36.9753 32.7414 37.3085 32.7414H38.5154C38.8487 32.7414 39.1189 32.4713 39.1189 32.138V30.9311C39.1189 30.5978 38.8487 30.3276 38.5154 30.3276Z" fill="#5CBCE4"/>
</g>
<defs>
<clipPath id="clip0_1_386">
<rect width="35" height="35" fill="white" transform="translate(18 8)"/>
</clipPath>
</defs>
</svg>
