<svg width="72" height="72" viewBox="0 0 72 72" fill="none" xmlns="http://www.w3.org/2000/svg">
<path fill-rule="evenodd" clip-rule="evenodd" d="M5.87193 60.8884C0.468249 56.6975 -0.358579 49.7275 0.113874 43.679C0.674911 40.8107 0.719221 40.2906 1.51649 36.9765C4.61695 25.3252 13.9331 8.5765 26.2759 5.66368C37.8658 2.82516 48.7617 9.55733 57.3397 17.0177C57.3397 17.0177 57.3397 17.0178 57.5907 17.1961C65.6815 24.9388 74.658 37.9871 71.2623 49.9653C67.6746 61.8693 48.6731 65.7778 38.4121 66.61C28.7563 67.6206 13.4164 66.9816 5.87193 60.8884Z" fill="#5CBCE4"/>
<path fill-rule="evenodd" clip-rule="evenodd" d="M57.6793 25.2807C57.6793 25.6522 57.4726 25.8603 57.2954 25.8603H55.7599C55.3613 25.8603 55.3613 25.6671 55.3613 25.4739L55.1841 16.1855C55.1841 15.7991 55.3613 15.606 55.568 15.606H57.1035C57.4873 15.606 57.4873 15.7992 57.4873 15.9924L57.6793 25.2807ZM54.6231 25.4739C54.6231 25.6671 54.4312 25.8603 54.2245 25.8603H52.689C52.3051 25.8603 52.3051 25.6671 52.3051 25.4739L52.0984 16.1855C52.0984 15.9923 52.3051 15.7992 52.4823 15.7992L54.0325 15.606C54.4164 15.7992 54.4164 15.7991 54.4164 16.1855L54.6231 25.4739ZM39.9918 26.0535C39.9918 26.4547 39.9918 26.4547 39.5932 26.4547L38.0577 26.633C37.6739 26.633 37.6739 26.4547 37.6739 26.0535L37.4819 16.9732C37.4819 16.5868 37.6739 16.3936 37.8806 16.3936H39.4161C39.7999 16.3936 39.7999 16.5868 40.0066 16.9732V26.0535H39.9918ZM36.9061 26.2467C36.9061 26.4399 36.7142 26.633 36.5075 26.633H34.972C34.5882 26.633 34.5882 26.4547 34.5882 26.2467L34.3962 16.9583C34.3962 16.5719 34.5882 16.3787 34.7949 16.3787H36.3303C36.7142 16.3787 36.7142 16.5719 36.7142 16.9583L36.9061 26.2467ZM9.57769 57.7824C18.6281 57.9608 23.2493 63.5784 38.0577 61.4532C42.6789 60.8587 47.684 60.8587 50.1643 60.8587C51.124 60.8587 51.9065 60.2791 52.0984 59.5064C52.689 56.4152 54.4164 53.1159 54.4164 46.7404C54.4164 39.3989 51.1387 34.3609 51.1387 28.1638C51.1387 25.8454 50.9616 24.1066 50.7549 22.5611C51.1388 22.5611 51.3307 22.353 51.1387 21.9815V19.6631C51.1387 19.2767 51.1388 19.0835 50.7549 19.0835L41.5273 19.2767C41.1435 19.2767 40.9368 19.4699 40.9368 19.8563V22.3678C41.1287 22.3678 41.1287 22.5759 41.3206 22.7543C41.8964 25.6522 42.8708 31.0766 40.7596 31.6562C33.4365 38.9977 39.9918 45.9677 36.3303 42.8616C30.7495 36.8725 20.5622 40.3501 20.5622 40.3501C17.6684 35.3269 11.1279 36.2781 9.40053 36.8577C9.01666 36.8577 8.82475 37.0509 8.82475 37.4373V57.1731C8.80999 57.5744 9.19383 57.7824 9.57769 57.7824Z" fill="#B3E4F9"/>
<path fill-rule="evenodd" clip-rule="evenodd" d="M60.6167 29.2782C60.6167 29.6646 60.4248 29.8578 60.2329 29.8578H58.6974C58.2988 29.8578 58.2988 29.6498 58.2988 29.4566L58.1216 20.1682C58.1216 19.7818 58.2988 19.5886 58.5055 19.5886H60.0409C60.4248 19.5886 60.4248 19.7818 60.4248 19.975L60.6167 29.2782ZM57.5458 29.4566C57.5458 29.6498 57.3539 29.8578 57.1472 29.8578H55.6117C55.2278 29.8578 55.2278 29.6498 55.2278 29.4566L55.0211 20.1682C55.0211 19.975 55.2278 19.7818 55.405 19.7818L56.9552 19.5886C57.3391 19.7818 57.3391 19.7818 57.3391 20.1682L57.5458 29.4566ZM42.9146 30.0361C42.9146 30.4225 42.9145 30.4226 42.5159 30.4226L40.9805 30.6009C40.5966 30.6009 40.5966 30.4225 40.5966 30.0213L40.4046 20.9261C40.4046 20.5397 40.5966 20.3466 40.8033 20.3466H42.3387C42.7226 20.3466 42.7226 20.5397 42.9146 20.9261V30.0361ZM39.8436 30.2293C39.8436 30.4225 39.6517 30.6158 39.445 30.6158H37.9095C37.5256 30.6158 37.5256 30.4374 37.5256 30.2293L37.3337 20.941C37.3337 20.5546 37.5256 20.3614 37.7323 20.3614H39.2678C39.6517 20.3614 39.6517 20.5546 39.6517 20.941L39.8436 30.2293ZM12.5152 61.7651C21.5656 61.9434 26.1868 67.561 40.9952 65.4359C45.6016 64.8563 50.6214 64.8562 53.1018 64.8562C54.0762 64.8562 54.8587 64.2767 55.0359 63.5039C55.6265 60.4127 57.3539 57.1135 57.3539 50.738C57.3539 43.3965 54.0762 38.3585 54.0762 32.1613C54.0762 29.8429 53.8991 28.1042 53.6924 26.5586C54.0762 26.5586 54.2829 26.3506 54.0762 25.979V23.6606C54.0762 23.2742 54.0762 23.081 53.6924 23.081L44.4648 23.2743C44.0809 23.2743 43.889 23.4674 43.889 23.8538V26.3654C44.0809 26.3654 44.0809 26.5735 44.2728 26.7518C44.8486 29.6498 45.8231 35.0741 43.7118 35.6537C36.3888 42.9952 42.9441 49.9652 39.2825 46.8592C33.7017 40.8701 23.5145 44.3476 23.5145 44.3476C20.6207 39.3096 14.0949 40.2756 12.3528 40.8552C11.9689 40.8552 11.777 41.0484 11.777 41.4348V61.1707C11.7475 61.5719 12.1313 61.7651 12.5152 61.7651Z" fill="white"/>
</svg>
