<svg width="72" height="72" viewBox="0 0 72 72" fill="none" xmlns="http://www.w3.org/2000/svg">
<path fill-rule="evenodd" clip-rule="evenodd" d="M19.4265 64.9382C14.1469 58.96 10.4932 50.1931 8.15057 42.594C5.66812 33.8271 2.73114 17.7748 7.71352 9.16475C13.7098 -1.20563 29.8283 -0.909411 39.9329 1.12981C49.1459 3.16902 61.8903 8.43262 65.5615 17.7747C69.3726 27.8488 64.9846 41.1299 59.705 50.1931C51.4885 64.2062 33.7792 82.1583 19.4265 64.9382Z" fill="#5CBCE4"/>
<path fill-rule="evenodd" clip-rule="evenodd" d="M51.3494 16.4151C51.3494 19.8138 50.4403 25.9314 47.6956 28.6678C46.9964 29.3301 46.1048 30.0273 45.1957 30.0273V16.4151H51.3494ZM13.7631 16.4151H19.9167V30.0273C19.0077 30.0273 18.0986 29.3301 17.3993 28.6678C14.6721 25.9314 13.9903 19.8138 13.7631 16.4151ZM43.6048 64.7463V59.535C43.6048 59.3084 43.3776 59.0643 43.1503 59.0643H41.3322C41.0874 59.0643 40.8602 58.8553 40.8602 58.3847V57.4783C40.8602 57.2692 40.6329 57.0426 40.1784 57.0426H36.0701H29.0074H24.8991C24.4446 57.0426 24.2173 57.2692 24.2173 57.4783V58.3847C24.2173 58.8553 23.99 59.0643 23.5355 59.0643H22.1544C21.7174 59.0643 21.4901 59.291 21.4901 59.535V64.7463C21.4901 64.9554 21.7174 65.1995 22.1544 65.1995H43.1154C43.3776 65.182 43.6048 64.9554 43.6048 64.7463ZM34.724 19.3432V19.6047H34.9338H41.3322L36.0876 22.7768H35.8603V23.0207L38.133 28.4413L32.8884 25.0426H32.6786L27.434 28.4413L29.4794 23.0207V22.7768L24.2348 19.6047H30.6157V19.3432L32.6611 13.9053L34.724 19.3432ZM29.0248 54.2887C28.1158 54.2887 27.434 54.9685 27.434 55.6483C27.434 55.8923 27.434 55.8922 27.434 56.1188H37.6959C37.6959 55.8748 37.6959 55.8749 37.6959 55.6483C37.6959 54.986 37.0141 54.2887 36.1051 54.2887H35.6505V46.1319H36.1051C37.0141 46.1319 37.6959 45.4522 37.6959 44.7725C37.6959 44.3193 37.6959 43.8661 37.2414 43.6395C36.7869 43.6395 36.3323 43.8661 35.8778 43.8661V41.8269C40.8951 40.6766 44.5314 36.6155 45.4405 31.6133C47.2586 31.3867 48.8669 30.707 50.2305 29.3301C55.0206 24.3279 54.7933 13.6961 54.7933 13.2255C54.7933 12.3192 54.1115 11.6395 53.4297 11.6395H45.4405V8.46739C45.4405 8.01423 45.2132 7.56104 44.7587 7.56104H21.0531C20.5985 7.56104 20.144 8.01423 20.144 8.46739V11.6395H12.3995C11.5079 11.6395 10.8086 12.3192 10.8086 13.2255C10.8086 13.6961 10.8086 24.3454 15.3714 29.3301C16.735 30.707 18.5531 31.3693 20.3713 31.6133C21.0531 36.6155 24.9341 40.6766 29.7241 41.8269V43.8661C29.0423 43.8661 28.5878 43.6395 27.8885 43.6395C27.6787 43.8661 27.434 44.3193 27.434 44.7725C27.434 45.4522 28.1158 46.1319 29.0248 46.1319H29.7067V54.2887H29.0248Z" fill="#B3E4F9"/>
<path fill-rule="evenodd" clip-rule="evenodd" d="M54.8279 21.1036C54.8279 24.5023 53.9188 30.6199 51.1742 33.3563C50.4749 34.0186 49.5833 34.7158 48.6742 34.7158V21.1036H54.8279ZM17.2241 21.1036H23.3778V34.7158C22.4687 34.7158 21.5596 34.036 20.8604 33.3563C18.1332 30.6199 17.4688 24.5023 17.2241 21.1036ZM47.0659 69.4173V64.206C47.0659 63.962 46.8386 63.7355 46.6114 63.7355H44.7932C44.5485 63.7355 44.3212 63.5263 44.3212 63.0557V62.1494C44.3212 61.9402 44.0939 61.7136 43.6394 61.7136H39.5311H32.4684H28.3601C27.9056 61.7136 27.6783 61.9402 27.6783 62.1494V63.0557C27.6783 63.5263 27.4511 63.7355 26.9965 63.7355H25.6155C25.1784 63.7355 24.9511 63.962 24.9511 64.206V69.4173C24.9511 69.6265 25.1784 69.8705 25.6155 69.8705H46.5764C46.8386 69.8705 47.0659 69.6265 47.0659 69.4173ZM38.2025 24.0317V24.2932H38.4123H44.8107L39.5661 27.4653H39.3388V27.6918L41.6115 33.1298L36.3669 29.7311H36.1571L30.9125 33.1298L32.9579 27.6918V27.4653L27.7308 24.2932H34.1117V24.0317L36.1571 18.6112L38.2025 24.0317ZM32.5034 58.9772C31.5943 58.9772 30.9125 59.657 30.9125 60.3368C30.9125 60.5633 30.9125 60.5633 30.9125 60.8073H41.1744C41.1744 60.5633 41.1744 60.5633 41.1744 60.3368C41.1744 59.6744 40.4926 58.9772 39.5836 58.9772H39.1291V50.8204H39.5836C40.4926 50.8204 41.1744 50.1407 41.1744 49.4609C41.1744 49.0078 41.1745 48.5546 40.7199 48.328C40.2654 48.328 39.8109 48.5546 39.3563 48.5546V46.5154C44.3737 45.3825 48.0099 41.304 48.919 36.3018C50.7371 36.0752 52.3455 35.3955 53.709 34.0186C58.4991 29.0164 58.2719 18.3846 58.2719 17.914C58.2719 17.0077 57.5901 16.328 56.9083 16.328H48.919V13.1559C48.919 12.7027 48.6917 12.2495 48.2372 12.2495H24.5316C24.077 12.2495 23.6225 12.7027 23.6225 13.1559V16.328H15.878C14.9864 16.328 14.2871 17.0077 14.2871 17.914C14.2871 18.3846 14.2871 29.0338 18.8499 34.0186C20.2135 35.3955 22.0316 36.0578 23.8498 36.3018C24.5316 41.304 28.4126 45.3651 33.2027 46.5154V48.5546C32.5034 48.5546 32.0663 48.328 31.367 48.328C31.1573 48.5546 30.9125 49.0078 30.9125 49.4609C30.9125 50.1407 31.5943 50.8204 32.5034 50.8204H33.2027V58.9772H32.5034Z" fill="white"/>
</svg>
