<svg width="72" height="72" viewBox="0 0 72 72" fill="none" xmlns="http://www.w3.org/2000/svg">
<path fill-rule="evenodd" clip-rule="evenodd" d="M5.87184 60.8809C0.468165 56.6906 -0.358573 49.7365 0.113879 43.674C0.660153 40.8062 0.719227 40.2862 1.51649 36.9726C4.61696 25.3231 13.9331 8.57686 26.2759 5.66448C37.8657 2.82639 48.7617 9.54269 57.3397 17.0317C57.3397 17.0317 57.3397 17.0317 57.5907 17.21C65.6814 24.9516 74.658 37.9979 71.2623 49.9743C67.6746 61.8764 48.6731 65.7844 38.4121 66.6165C28.7563 67.612 13.4163 66.988 5.87184 60.8809Z" fill="#5CBCE4"/>
<path fill-rule="evenodd" clip-rule="evenodd" d="M45.8535 53.2781V22.5151H20.4444V53.2781H45.8535ZM47.7729 19.813H18.7318C17.7722 19.813 16.8125 20.3928 16.8125 21.1039V54.7112C16.8125 55.4223 17.7722 55.9912 18.7318 55.9912H47.7729C48.7473 55.9912 49.707 55.4223 49.707 54.7112V21.1039C49.6922 20.3819 48.7325 19.813 47.7729 19.813Z" fill="#B3E4F9"/>
<path fill-rule="evenodd" clip-rule="evenodd" d="M48.7764 56.2103V25.4473H23.3674V56.2103H48.7764ZM50.6958 22.7451H21.6399C20.6803 22.7451 19.7206 23.314 19.7206 24.0251V57.6215C19.7206 58.3326 20.6803 58.9015 21.6399 58.9015H50.6958C51.6555 58.9015 52.6299 58.3326 52.6299 57.6215V24.0251C52.6299 23.3249 51.6555 22.7451 50.6958 22.7451Z" fill="white"/>
<path d="M33.9938 45.3392C33.546 45.3392 33.2027 45.2198 32.9639 44.9809C32.7251 44.7272 32.6057 44.3765 32.6057 43.9287V40.9287H29.6728C29.24 40.9287 28.9041 40.8167 28.6653 40.5928C28.4414 40.3689 28.3295 40.0406 28.3295 39.6077C28.3295 39.1749 28.4414 38.8465 28.6653 38.6227C28.9041 38.3988 29.24 38.2868 29.6728 38.2868H32.6057V35.3987C32.6057 34.951 32.7251 34.6077 32.9639 34.3689C33.2027 34.1301 33.5535 34.0107 34.0162 34.0107C34.4639 34.0107 34.7997 34.1301 35.0236 34.3689C35.2624 34.6077 35.3818 34.951 35.3818 35.3987V38.2868H38.3147C38.7476 38.2868 39.0759 38.3988 39.2998 38.6227C39.5386 38.8465 39.658 39.1749 39.658 39.6077C39.658 40.0406 39.5386 40.3689 39.2998 40.5928C39.0759 40.8167 38.7476 40.9287 38.3147 40.9287H35.3818V43.9287C35.3818 44.3765 35.2624 44.7272 35.0236 44.9809C34.7997 45.2198 34.4565 45.3392 33.9938 45.3392Z" fill="#B3E4F9"/>
<path d="M36.0836 46.6292C35.6358 46.6292 35.2926 46.5098 35.0537 46.271C34.8149 46.0173 34.6955 45.6665 34.6955 45.2187V42.2187H31.7627C31.3298 42.2187 30.994 42.1068 30.7552 41.8829C30.5313 41.659 30.4193 41.3306 30.4193 40.8978C30.4193 40.4649 30.5313 40.1366 30.7552 39.9127C30.994 39.6888 31.3298 39.5769 31.7627 39.5769H34.6955V36.6888C34.6955 36.241 34.8149 35.8977 35.0537 35.6589C35.2926 35.4201 35.6433 35.3007 36.106 35.3007C36.5538 35.3007 36.8896 35.4201 37.1135 35.6589C37.3523 35.8977 37.4717 36.241 37.4717 36.6888V39.5769H40.4046C40.8374 39.5769 41.1658 39.6888 41.3896 39.9127C41.6285 40.1366 41.7479 40.4649 41.7479 40.8978C41.7479 41.3306 41.6285 41.659 41.3896 41.8829C41.1658 42.1068 40.8374 42.2187 40.4046 42.2187H37.4717V45.2187C37.4717 45.6665 37.3523 46.0173 37.1135 46.271C36.8896 46.5098 36.5463 46.6292 36.0836 46.6292Z" fill="white"/>
</svg>
