<svg width="72" height="72" viewBox="0 0 72 72" fill="none" xmlns="http://www.w3.org/2000/svg">
<path fill-rule="evenodd" clip-rule="evenodd" d="M45.0489 67.6913C40.441 68.7074 35.2485 67.6913 30.9329 66.107C25.8952 64.3849 20.995 61.2162 16.6794 57.8925C-11.5526 36.4006 -1.75224 18.2324 29.6434 7.40036C39.4438 3.80116 59.1649 -0.831306 67.0912 8.41641C72.9886 15.3393 72.7135 26.4469 70.7018 34.6613C67.7961 47.3532 59.5947 64.3676 45.0489 67.6913Z" fill="#5CBCE4"/>
<path fill-rule="evenodd" clip-rule="evenodd" d="M30.813 43.978H41.1292V59.6664H30.813V43.978ZM52.563 50.9353V42.8759C54.1276 41.5154 55.9157 39.7244 56.38 39.2767C56.8098 38.3812 57.0162 36.1424 57.0162 35.9186C57.0162 35.2642 56.5863 34.782 56.1565 34.5753C55.8986 34.5753 55.8985 34.5753 55.8985 34.5753C55.4687 34.5753 54.7982 35.0058 54.7982 35.6775C54.7982 36.573 54.5403 37.7096 54.3339 38.1401C54.1276 38.3812 52.9756 39.5005 51.8752 40.396H48.299C47.1642 39.5005 46.0466 38.3812 45.8403 38.1401C45.5824 37.7096 45.376 36.573 45.376 35.6775C45.376 35.0058 44.7055 34.5753 44.2756 34.5753C43.5879 34.782 43.1409 35.2642 43.1409 35.9186C43.1409 36.1424 43.3816 38.3812 43.8114 39.2767C44.2756 39.7244 45.8403 41.2915 47.4221 42.6348V50.9353H52.563ZM50.1043 39.9311C51.4626 39.9311 52.563 38.8289 52.563 37.2446C52.563 35.9013 51.4626 34.782 50.1043 34.782C48.5397 34.782 47.4221 35.9186 47.4221 37.2446C47.4221 38.8289 48.5225 39.9311 50.1043 39.9311ZM50.3106 50.6942H50.1043C49.8808 50.6942 49.8808 50.6942 49.6401 50.6942V48.2316H50.3106V50.6942ZM21.8551 50.0226V38.8289C23.884 37.0379 26.3599 34.5753 27.0304 33.6798C27.4603 32.5605 27.9245 29.8568 27.9245 29.1851C27.9245 28.2896 27.2539 27.6352 26.5662 27.6352C26.3427 27.6352 26.3427 27.6352 26.3427 27.6352C25.6721 27.6352 24.9844 28.0658 24.778 28.9613C24.778 30.0806 24.5717 31.8888 24.1075 32.3194C23.9012 32.7843 22.5429 34.1104 20.9611 35.4708H15.5966C14.2383 34.1104 12.6737 32.7843 12.4502 32.3194C12.1923 31.8888 11.7796 30.0806 11.7796 28.9613C11.7796 28.0658 11.1091 27.6352 10.215 27.6352C10.215 27.6352 10.215 27.6352 10.0087 27.6352C9.33814 27.6352 8.65039 28.2896 8.65039 29.1851C8.85671 29.8395 9.08023 32.5432 9.75078 33.6798C10.215 34.5753 12.4674 36.8141 14.4618 38.6051V50.0226H21.8551ZM18.0725 34.782C20.067 34.782 21.6488 33.2321 21.6488 31.2C21.6488 29.1851 20.0842 27.618 18.0725 27.618C16.25 27.618 14.4618 29.1679 14.4618 31.2C14.4618 33.2321 16.25 34.782 18.0725 34.782ZM18.5024 49.7987C18.5024 49.7987 18.5024 49.7987 18.296 49.7987C18.0897 49.7987 17.8318 49.7987 17.6255 49.7987V46.4406H18.5195V49.7987H18.5024ZM42.0233 42.8759V25.1726C45.376 22.245 49.4166 18.6631 50.0871 17.3026C50.9812 15.3049 51.6517 11.0514 51.6517 10.1559C51.6517 8.79539 50.7576 7.69324 49.3993 7.45215C49.3993 7.45215 49.3994 7.45215 49.193 7.45215C48.0583 7.45215 46.9407 8.34764 46.9407 9.69089C46.7343 11.7057 46.2701 14.1856 45.8403 15.0983C45.376 15.7527 43.1237 17.9914 40.665 20.0063H32.6012C30.1425 17.9914 27.9245 15.7527 27.4603 15.0983C27.0304 14.1856 26.5662 11.723 26.3599 9.69089C26.3599 8.34764 25.2251 7.45215 23.9012 7.45215C23.9012 7.45215 23.9012 7.45215 23.6605 7.45215C22.5601 7.69324 21.4425 8.79539 21.666 10.1559C21.666 11.0514 22.3365 15.3049 23.2306 17.3026C23.9012 18.6631 27.4774 22.0212 30.6239 24.7077V42.8759H42.0233ZM36.4181 18.8697C39.5646 18.8697 42.0233 16.4071 42.0233 13.2729C42.0233 10.1386 39.5646 7.67602 36.4181 7.67602C33.2717 7.67602 30.813 10.1386 30.813 13.2729C30.813 16.4071 33.2889 18.8697 36.4181 18.8697ZM13.1551 50.6942H23.4369V64.3678H13.1551V50.6942ZM21.6488 61.2335V62.5768H14.9433C14.9433 62.1462 15.1496 61.9224 15.1496 61.6813C15.3559 61.2335 15.6138 60.7858 16.0437 60.3553C16.25 59.8903 16.9377 59.4598 17.6083 58.7881C18.7087 57.8926 19.3964 57.221 19.8606 56.7561C20.067 56.3255 20.2905 55.6539 20.2905 55.2062C20.2905 54.7584 20.0842 54.3107 19.8606 54.0868C19.3964 53.639 18.9666 53.639 18.5024 53.639C17.8318 53.639 17.402 53.639 16.9377 54.0868C16.7314 54.3279 16.4735 54.9823 16.4735 55.4473H15.3731C15.3731 54.5518 15.6138 53.8801 16.2672 53.1913C16.7314 52.7608 17.6255 52.5197 18.5195 52.5197C19.4136 52.5197 20.0842 52.7608 20.7719 53.4324C21.4425 53.8801 21.666 54.5518 21.666 55.2234C21.666 55.6711 21.4425 56.1189 21.4425 56.5666C21.1846 56.7733 20.9782 57.2382 20.5484 57.6688C20.0842 58.1337 19.6543 58.8054 18.7259 59.4942C17.8318 60.1486 17.402 60.5963 17.1956 60.5963C16.9377 60.8202 16.9377 61.0441 16.7314 61.2508H21.6488V61.2335ZM44.9634 52.0547H55.2452V64.3678H44.9634V52.0547ZM46.9579 60.5619L48.0582 60.3553C48.299 61.0097 48.5225 61.4574 48.7288 61.9051C49.193 62.129 49.4166 62.3529 50.0871 62.3529C50.5169 62.3529 50.9812 62.1462 51.4454 61.6813C51.8752 61.2335 52.0816 60.7858 52.0816 60.3553C52.0816 59.6664 51.8752 59.2014 51.4454 58.7881C51.1875 58.5643 50.7749 58.3232 50.0871 58.3232C49.8636 58.3232 49.6229 58.3232 49.193 58.3232L49.3993 57.4277C49.3993 57.4277 49.3994 57.4277 49.6057 57.4277C50.0699 57.4277 50.4997 57.221 50.964 56.9799C51.4282 56.7561 51.6517 56.3255 51.6517 55.6367C51.6517 55.1889 51.4282 54.9478 51.1875 54.5173C50.7577 54.2934 50.5169 54.2934 50.0871 54.2934C49.4166 54.2934 49.193 54.2934 48.7288 54.5173C48.5225 54.9478 48.299 55.4128 48.299 55.8606H46.9407C47.147 54.9478 47.4049 54.2934 48.0411 53.8457C48.5053 53.3979 49.1758 53.1568 49.8636 53.1568C50.5169 53.1568 50.964 53.3979 51.4282 53.3979C51.8581 53.8457 52.3223 54.0523 52.5286 54.5173C52.7349 54.9478 52.7349 55.1717 52.7349 55.8606C52.7349 56.0672 52.7349 56.5149 52.5286 56.9627C52.3223 57.2038 51.8581 57.4104 51.4282 57.6343C52.0644 57.8754 52.5286 58.0993 52.7521 58.547C53.2163 58.9948 53.2163 59.6664 53.2163 60.1142C53.2163 61.0097 52.9584 61.9052 52.3223 62.3529C51.6517 63.0417 50.964 63.2484 50.0699 63.2484C49.1758 63.2484 48.5053 63.0417 47.8175 62.5768C47.1642 62.1462 46.9579 61.2335 46.9579 60.5619ZM37.7764 56.7388H36.6761V49.1271C36.4353 49.351 35.9539 49.5921 35.5413 49.7987C35.077 50.2637 34.6472 50.2637 34.2174 50.4876V49.3682C34.8535 48.9205 35.5413 48.7138 35.9711 48.2488C36.4353 47.8183 36.8996 47.3534 37.1059 46.9056H37.7764V56.7388Z" fill="#B3E4F9"/>
<path fill-rule="evenodd" clip-rule="evenodd" d="M34.2333 48.5928H44.5495V64.2811H34.2333V48.5928ZM55.9661 55.5501V47.4906C57.5307 46.1301 59.3189 44.3392 59.7831 43.8914C60.2129 42.9959 60.4193 40.7572 60.4193 40.5333C60.4193 39.8789 59.9894 39.4139 59.5596 39.1901C59.3017 39.1901 59.3017 39.1901 59.3017 39.1901C58.8718 39.1901 58.2013 39.6206 58.2013 40.2922C58.2013 41.1877 57.9434 42.3243 57.7371 42.7548C57.5307 42.9787 56.3787 44.1153 55.2783 45.0108H51.7021C50.5501 44.1153 49.4497 42.9959 49.2434 42.7548C49.0027 42.3243 48.7791 41.1877 48.7791 40.2922C48.7791 39.6206 48.0914 39.1901 47.6616 39.1901C46.991 39.3967 46.5268 39.8617 46.5268 40.5333C46.5268 40.7572 46.7675 42.9959 47.1973 43.8914C47.6616 44.3392 49.2262 45.9063 50.808 47.2495V55.5501H55.9661ZM53.5074 44.563C54.8657 44.563 55.9661 43.4609 55.9661 41.8765C55.9661 40.5333 54.8657 39.4139 53.5074 39.4139C51.9428 39.4139 50.8252 40.5333 50.8252 41.8765C50.8252 43.4437 51.9428 44.563 53.5074 44.563ZM53.7309 55.3262H53.5246C53.3183 55.3262 53.3183 55.3262 53.0604 55.3262V52.8636H53.7481V55.3262H53.7309ZM25.2754 54.6374V43.4437C27.3043 41.6527 29.7802 39.1901 30.4507 38.2946C30.8806 37.1752 31.3448 34.4715 31.3448 33.7999C31.3448 32.9044 30.657 32.25 29.9865 32.25C29.7802 32.25 29.7802 32.25 29.7802 32.25C29.0924 32.25 28.4219 32.6805 28.2155 33.576C28.2155 34.6954 28.0092 36.5036 27.5278 36.9341C27.3215 37.3991 25.9632 38.7251 24.3814 40.0856H19.0341C17.6758 38.7251 16.1112 37.3991 15.8877 36.9341C15.6298 36.5036 15.2171 34.6954 15.2171 33.576C15.2171 32.6805 14.5294 32.25 13.6525 32.25C13.6525 32.25 13.6525 32.25 13.4462 32.25C12.7756 32.25 12.0879 32.9044 12.0879 33.7999C12.2942 34.4543 12.5177 37.158 13.1883 38.2946C13.6525 39.1901 15.9049 41.4288 17.8993 43.2026V54.6374H25.2754ZM21.4928 39.4139C23.4873 39.4139 25.0691 37.864 25.0691 35.832C25.0691 33.8171 23.5045 32.25 21.4928 32.25C19.6703 32.25 17.8822 33.7999 17.8822 35.832C17.8822 37.8468 19.6703 39.4139 21.4928 39.4139ZM21.9227 54.4307C21.9227 54.4307 21.9227 54.4307 21.7163 54.4307C21.51 54.4307 21.2521 54.4307 21.0458 54.4307V51.0726H21.9399V54.4307H21.9227ZM45.4436 47.4906V29.7874C48.7963 26.8598 52.8368 23.2778 53.5074 21.9173C54.4015 19.9197 55.072 15.6661 55.072 14.7706C55.072 13.4101 54.178 12.308 52.8197 12.0669C52.8197 12.0669 52.8197 12.0669 52.6133 12.0669C51.4786 12.0669 50.361 12.9624 50.361 14.3056C50.1546 16.3205 49.6904 18.8003 49.2606 19.713C48.7963 20.3674 46.544 22.6062 44.0853 24.621H36.0215C33.5628 22.6062 31.3448 20.3674 30.8806 19.713C30.4507 18.8003 29.9865 16.3377 29.7802 14.3056C29.7802 12.9624 28.6454 12.0669 27.3215 12.0669C27.3215 12.0669 27.3215 12.0669 27.0808 12.0669C25.9804 12.2908 24.8628 13.4101 25.0863 14.7706C25.0863 15.6661 25.7568 19.9197 26.6509 21.9173C27.3215 23.2778 30.8977 26.6359 34.0442 29.3224V47.4906H45.4436ZM39.8384 23.5017C42.9849 23.5017 45.4436 21.0391 45.4436 17.9048C45.4436 14.7706 42.9849 12.308 39.8384 12.308C36.692 12.308 34.2333 14.7706 34.2333 17.9048C34.2333 21.0218 36.692 23.5017 39.8384 23.5017ZM16.5582 55.3262H26.8401V68.9997H16.5582V55.3262ZM25.0519 65.8483V67.1915H18.3464C18.3464 66.761 18.5527 66.5371 18.5527 66.296C18.759 65.8483 19.0169 65.4005 19.4468 64.97C19.6531 64.505 20.3408 64.0745 21.0114 63.4029C22.1118 62.5074 22.7995 61.8358 23.2638 61.3708C23.4701 60.9403 23.6936 60.2686 23.6936 59.8209C23.6936 59.3731 23.4873 58.9254 23.2638 58.7015C22.7995 58.2538 22.3697 58.2538 21.9055 58.2538C21.2349 58.2538 20.8051 58.2538 20.3409 58.7015C20.1345 58.9254 19.8766 59.597 19.8766 60.062H18.7762C18.7762 59.1665 19.0341 58.4949 19.6703 57.806C20.1345 57.3755 21.0286 57.1344 21.9227 57.1344C22.8167 57.1344 23.4873 57.3927 24.175 58.0471C24.8456 58.4949 25.0691 59.1665 25.0691 59.8381C25.0691 60.2859 24.8628 60.7336 24.8628 61.1814C24.6049 61.4052 24.3986 61.8702 23.9687 62.2835C23.5045 62.7485 23.0746 63.4373 22.1462 64.1089C21.2521 64.7806 20.8223 65.2283 20.6159 65.2283C20.3752 65.435 20.3752 65.6761 20.1517 65.8827H25.0519V65.8483ZM48.3665 56.6867H58.6483V68.9997H48.3665V56.6867ZM50.361 65.1939L51.4614 64.97C51.7193 65.6244 51.9256 66.0721 52.1319 66.5199C52.5961 66.7438 52.8025 66.9676 53.4902 66.9676C53.9201 66.9676 54.3843 66.761 54.8485 66.296C55.2783 65.8483 55.4847 65.4005 55.4847 64.97C55.4847 64.2984 55.2783 63.8334 54.8485 63.4029C54.5906 63.1618 54.178 62.9379 53.4902 62.9379C53.2839 62.9379 53.026 62.9379 52.5961 62.9379L52.8025 62.0424C52.8025 62.0424 52.8025 62.0424 53.0088 62.0424C53.473 62.0424 53.9029 61.8358 54.3671 61.5947C54.8313 61.3708 55.0376 60.9403 55.0376 60.2514C55.0376 59.8037 54.8313 59.5626 54.5734 59.1493C54.1436 58.9082 53.9029 58.9082 53.473 58.9082C52.8025 58.9082 52.5789 58.9082 52.1147 59.1493C51.9084 59.5798 51.6849 60.0448 51.6849 60.4925H50.3266C50.5329 59.5798 50.7908 58.9254 51.427 58.4777C51.8912 58.0299 52.5618 57.7888 53.2495 57.7888C53.8857 57.7888 54.3499 58.0127 54.8141 58.0127C55.244 58.4604 55.7082 58.6671 55.9145 59.132C56.1209 59.5626 56.1208 59.7864 56.1208 60.4753C56.1208 60.6819 56.1209 61.1297 55.9145 61.5774C55.7082 61.8185 55.244 62.0252 54.8141 62.2491C55.4503 62.5074 55.9145 62.714 56.138 63.1618C56.6023 63.6095 56.6023 64.2811 56.6023 64.7289C56.6023 65.6244 56.3444 66.5199 55.7082 66.9676C55.0204 67.6393 54.3499 67.8631 53.4558 67.8631C52.5618 67.8631 51.8912 67.6393 51.2035 67.1743C50.5845 66.761 50.361 65.8483 50.361 65.1939ZM41.1967 61.3708H40.0963V53.7591C39.8384 53.9829 39.3742 54.2241 38.9616 54.4307C38.4973 54.8957 38.0675 54.8957 37.6377 55.1195V53.983C38.2738 53.5352 38.9616 53.3286 39.3914 52.8636C39.8557 52.4331 40.3199 51.9681 40.5262 51.5203H41.2139V61.3708H41.1967Z" fill="white"/>
</svg>
