<svg width="72" height="72" viewBox="0 0 72 72" fill="none" xmlns="http://www.w3.org/2000/svg">
<path fill-rule="evenodd" clip-rule="evenodd" d="M70.3723 25.8732C73.0427 36.5508 73.0427 50.6188 65.6328 59.3916C53.7839 73.4421 30.5282 73.4421 14.9655 66.2596C9.78383 63.9178 4.00087 60.545 1.04749 53.9741C-1.32228 48.8538 0.746848 42.2654 3.11662 37.2848C6.07 30.8537 11.1279 24.5451 15.8497 19.1451C22.0748 12.1198 34.808 1.14506 44.5877 0.113992C46.9575 -0.183095 49.3272 0.114015 51.3964 0.847995C63.2629 4.50042 68.0025 16.2091 70.3723 25.8732Z" fill="#5CBCE4"/>
<path fill-rule="evenodd" clip-rule="evenodd" d="M47.0462 54.3061C48.4433 54.3061 49.5751 55.442 49.5751 56.8051C49.5751 58.1682 48.4433 59.077 47.0462 59.077C45.9143 59.077 44.7295 58.1682 44.7295 56.8051C44.7295 55.442 45.9143 54.3061 47.0462 54.3061ZM56.26 51.108H52.5816C51.1844 49.7449 49.3452 48.8362 47.0285 48.8362C44.977 48.8362 43.1378 49.7449 41.7407 51.108H24.2327C22.8709 49.7449 20.9963 48.8362 18.9449 48.8362C16.858 48.8362 15.0188 49.7449 13.3918 51.108H9.23587C8.31626 51.108 7.39663 50.1993 7.39663 49.0634C7.39663 48.1547 8.31626 47.2459 9.23587 47.2459H56.2423C57.4095 47.2459 58.1169 48.1547 58.1169 49.0634C58.1346 50.1993 57.4449 51.108 56.26 51.108ZM47.0462 60.8944C44.9947 60.8944 43.1555 59.077 43.1555 56.8051C43.1555 54.5333 44.9947 52.6983 47.0462 52.6983C49.3629 52.6983 51.2021 54.5158 51.2021 56.8051C51.2021 59.077 49.3629 60.8944 47.0462 60.8944ZM18.9626 60.8944C21.2793 60.8944 22.8886 59.077 22.8886 56.8051C22.8886 54.5333 21.2793 52.6983 18.9626 52.6983C16.6458 52.6983 14.8066 54.5158 14.8066 56.8051C14.8066 59.077 16.6458 60.8944 18.9626 60.8944ZM12.7198 16.7683H45.7021L53.5188 39.7314L43.5976 30.1896L46.1266 27.9178C46.8163 27.0091 46.8163 25.8731 46.1266 24.9644C44.2873 23.1469 33.022 32.6886 35.7632 35.4323C36.2053 35.6595 36.4529 35.8867 37.125 35.8867C37.6025 35.8867 38.0799 35.6595 38.522 35.4323L40.8388 32.9333L51.4497 43.4012H30.9176V40.675C30.9176 35.4323 22.3934 37.0401 18.4674 37.0401C18.2551 37.0401 18.0252 36.8129 18.0252 36.5857V25.4362C18.0252 24.5275 17.0703 23.6188 16.1506 23.6188C15.0188 23.6188 14.0992 24.51 14.0992 25.4362V36.5857C14.0992 38.8576 16.1506 40.9197 18.4674 40.9197H26.9915V43.4187H12.7021V16.7683H12.7198ZM57.6571 43.5935L48.6555 16.7508H53.7311C56.26 16.7508 56.26 12.8887 53.7311 12.8887H9.04134C8.12172 12.8887 7.20209 13.7974 7.20209 14.7062C7.20209 15.8421 8.12172 16.7508 9.04134 16.7508H9.73105V43.3663H9.25355C6.01721 43.3663 3.48828 45.8653 3.48828 49.0459C3.48828 52.2265 6.01721 54.7255 9.25355 54.7255H11.0928C11.0928 55.4071 10.8806 56.0886 10.8806 56.7702C10.8806 61.1042 14.559 64.7216 18.9626 64.7216C23.3307 64.7216 26.7793 61.0867 26.7793 56.7702C26.7793 56.0886 26.7793 55.4071 26.5671 54.7255H39.4593C39.2294 55.4071 39.2295 56.0886 39.2295 56.7702C39.2295 61.1042 42.678 64.7216 47.0462 64.7216C51.6796 64.7216 55.1282 61.0867 55.1282 56.7702C55.1282 56.0886 55.1282 55.4071 54.916 54.7255H56.2777C59.514 54.7255 62.043 52.2265 62.043 49.0459C62.0253 46.5644 60.2037 44.2925 57.6571 43.5935ZM19.1748 54.3061C20.342 54.3061 21.4915 55.442 21.4915 56.8051C21.4915 58.1682 20.3597 59.077 19.1748 59.077C17.813 59.077 16.6458 58.1682 16.6458 56.8051C16.6458 55.442 17.813 54.3061 19.1748 54.3061Z" fill="#B3E4F9"/>
<path fill-rule="evenodd" clip-rule="evenodd" d="M50.5657 58.9894C51.9628 58.9894 53.0947 60.1253 53.0947 61.4884C53.0947 62.8515 51.9628 63.7603 50.5657 63.7603C49.4339 63.7603 48.249 62.8515 48.249 61.4884C48.249 60.1428 49.4162 58.9894 50.5657 58.9894ZM59.7796 55.8088H56.1011C54.704 54.4457 52.8647 53.537 50.5657 53.537C48.5143 53.537 46.675 54.4457 45.2779 55.8088H27.7522C26.3905 54.4457 24.5159 53.537 22.4644 53.537C20.3776 53.537 18.5384 54.4457 16.929 55.8088H12.7731C11.8535 55.8088 10.9339 54.9001 10.9339 53.7642C10.9339 52.8554 11.8535 51.9467 12.7731 51.9467H59.7796C60.9468 51.9467 61.6542 52.8554 61.6542 53.7642C61.6542 54.9001 60.9468 55.8088 59.7796 55.8088ZM50.5657 65.5777C48.5143 65.5777 46.6751 63.7603 46.6751 61.4884C46.6751 59.2166 48.5143 57.3816 50.5657 57.3816C52.8824 57.3816 54.7217 59.1991 54.7217 61.4884C54.704 63.7603 52.8824 65.5777 50.5657 65.5777ZM22.4644 65.5777C24.7811 65.5777 26.3905 63.7603 26.3905 61.4884C26.3905 59.2166 24.7811 57.3816 22.4644 57.3816C20.1477 57.3816 18.3085 59.1991 18.3085 61.4884C18.3261 63.7603 20.1477 65.5777 22.4644 65.5777ZM16.2217 21.4516H49.204L57.0207 44.4147L47.0995 34.8729L49.6284 32.6011C50.3181 31.6749 50.3181 30.5564 49.6284 29.6477C47.7892 27.8302 36.5239 37.372 39.2651 40.1157C39.7072 40.3428 39.9725 40.57 40.6268 40.57C41.1043 40.57 41.5818 40.3428 42.0239 40.1157L44.3406 37.6166L54.9516 48.0846H34.4194V45.3584C34.4194 40.1157 25.8953 41.7234 21.9693 41.7234C21.757 41.7234 21.5271 41.4962 21.5271 41.2691V30.1195C21.5271 29.1933 20.5721 28.3021 19.6525 28.3021C18.5207 28.3021 17.6011 29.1933 17.6011 30.1195V41.2691C17.6011 43.5409 19.6525 45.603 21.9693 45.603H30.4934V48.102H16.204V21.4516H16.2217ZM61.1766 48.2943L52.175 21.4691H57.2506C59.7795 21.4691 59.7795 17.6069 57.2506 17.6069H12.5609C11.6413 17.6069 10.7217 18.5157 10.7217 19.4244C10.7217 20.5603 11.6413 21.4691 12.5609 21.4691H13.2506V48.0846H12.7731C9.53677 48.0846 7.00781 50.5836 7.00781 53.7816C7.00781 56.9622 9.53677 59.4612 12.7731 59.4612H14.6123C14.6123 60.1603 14.4001 60.8244 14.4001 61.5059C14.4001 65.8399 18.0786 69.4573 22.4821 69.4573C26.8503 69.4573 30.2988 65.8224 30.2988 61.5059C30.2988 60.8244 30.2988 60.1428 30.0866 59.4612H42.9789C42.7667 60.1603 42.7667 60.8244 42.7667 61.5059C42.7667 65.8399 46.2152 69.4573 50.5834 69.4573C55.2169 69.4573 58.6654 65.8224 58.6654 61.5059C58.6654 60.8244 58.6654 60.1428 58.4532 59.4612H59.8149C63.0513 59.4612 65.5802 56.9622 65.5802 53.7816C65.5449 51.2651 63.7056 48.9758 61.1766 48.2943ZM22.6943 58.9894C23.8615 58.9894 25.0111 60.1253 25.0111 61.4884C25.0111 62.8515 23.8792 63.7603 22.6943 63.7603C21.3326 63.7603 20.1654 62.8515 20.1654 61.4884C20.1477 60.1428 21.3326 58.9894 22.6943 58.9894Z" fill="white"/>
</svg>
