<svg width="72" height="72" viewBox="0 0 72 72" fill="none" xmlns="http://www.w3.org/2000/svg">
<path fill-rule="evenodd" clip-rule="evenodd" d="M70.3723 26.2183C73.0427 37.0414 73.0427 51.2601 65.6328 60.1379C53.7839 74.3566 30.5282 74.3566 14.9655 67.0882C9.78381 64.7184 4.00085 61.3051 1.04748 54.6379C-1.3223 49.4562 0.74691 42.7891 3.11669 37.7489C6.07006 31.2408 11.1279 24.8565 15.8497 19.3742C22.0748 12.2649 34.8079 1.15876 44.5877 0.115348C46.9575 -0.185296 49.3273 0.115425 51.3964 0.858191C63.263 4.5897 68.0202 16.4385 70.3723 26.2183Z" fill="#5CBCE4"/>
<path fill-rule="evenodd" clip-rule="evenodd" d="M6.07002 49.9339C4.46069 50.1461 3.31119 51.7731 3.54109 53.3825C4.01858 54.9918 5.15044 55.9114 6.54754 55.9114C6.75976 55.9114 7.00725 55.9114 7.21947 55.9114L19.8996 53.3825C20.5893 53.3825 21.0314 52.9403 21.7388 52.2506L27.2565 45.5657L36.7003 50.4113L30.2629 60.7747C29.3433 62.1365 29.7855 64.2055 31.1649 64.8952C31.8546 65.355 32.3144 65.5673 32.7919 65.5673C33.9414 65.5673 34.861 64.8953 35.5507 63.9757L43.615 50.8534C44.0748 49.9338 44.3048 49.0142 44.0748 48.3245C43.8449 47.4049 43.1376 46.7329 42.4479 46.4853L33.9414 42.1171L42.9253 32.6734L49.3803 38.1911C50.07 38.8808 50.7597 39.1107 51.4494 39.1107C52.1391 39.1107 52.8289 38.8808 53.5186 38.1911L61.1231 31.0464C62.2726 30.1268 62.2726 28.0753 61.353 26.8904C60.6633 26.4483 59.9735 25.9709 59.0539 25.9709C58.3642 25.9709 57.6568 26.2184 57.2147 26.6782L51.4671 31.966C51.4671 31.966 36.9479 18.6316 34.4013 16.1027C33.7115 15.4129 33.0218 14.9531 32.332 14.9531C32.1021 14.9531 31.8722 14.9531 31.6423 15.183L20.1295 17.9418C18.5025 18.1541 17.6005 19.7811 18.0603 21.3904C18.2902 22.7698 19.4397 23.7071 20.8192 23.7071C21.0314 23.7071 21.279 23.7071 21.5089 23.4418L31.1826 21.3904C31.8723 22.0801 35.1086 25.5464 35.5684 25.9709C31.6424 30.3567 27.504 34.7249 23.578 39.093C23.3481 39.093 23.3482 39.093 23.3482 39.093C22.8884 39.7651 22.6585 40.4724 22.6585 41.1621L17.5829 47.5995L6.07002 49.9339ZM55.8529 17.6942C55.8529 13.9981 52.8643 11.0271 49.1681 11.0271C45.472 11.0271 42.4832 13.9981 42.4832 17.6942C42.4832 21.3904 45.4896 24.3792 49.1681 24.3792C52.8643 24.3969 55.8529 21.3904 55.8529 17.6942Z" fill="#B3E4F9"/>
<path fill-rule="evenodd" clip-rule="evenodd" d="M9.57189 54.6733C7.96257 54.9032 6.81306 56.5125 7.04297 58.1218C7.50277 59.7312 8.65231 60.6508 10.0494 60.6508C10.2616 60.6508 10.5092 60.6508 10.7215 60.6508L23.4015 58.1218C24.0912 58.1218 24.5333 57.6797 25.2407 56.99L30.7761 50.305L40.2199 55.1508L33.7825 65.5141C32.8629 66.8758 33.3227 68.9449 34.6845 69.6523C35.3742 70.1121 35.834 70.3243 36.3114 70.3243C37.461 70.3243 38.3806 69.6524 39.0703 68.7328L47.1346 55.6105C47.6121 54.6909 47.8243 53.7713 47.6121 53.0816C47.3822 52.162 46.6749 51.49 45.9851 51.2424L37.4787 46.8742L46.4626 37.4305L52.9176 42.9482C53.6073 43.6202 54.297 43.8678 54.9867 43.8678C55.6764 43.8678 56.3662 43.6379 57.0559 42.9482L64.6604 35.8035C65.8099 34.8839 65.8099 32.8324 64.8903 31.6475C64.2006 31.2054 63.5108 30.7278 62.5912 30.7278C61.9015 30.7278 61.2118 30.9578 60.752 31.4176L55.0044 36.7053C55.0044 36.7053 40.4852 23.371 37.9385 20.842C37.2488 20.1523 36.559 19.6925 35.8693 19.6925C35.6394 19.6925 35.4095 19.6925 35.1796 19.9224L23.6491 22.6812C22.0221 22.9111 21.1202 24.5205 21.58 26.1298C21.8099 27.5092 22.9594 28.4465 24.3388 28.4465C24.5511 28.4465 24.7986 28.4465 25.0285 28.1989L34.7022 26.1475C35.3919 26.8549 38.6282 30.3034 39.088 30.7455C35.1619 35.1314 31.0237 39.4996 27.0977 43.8678C26.8678 43.8678 26.8678 43.8678 26.8678 43.8678C26.408 44.5575 26.178 45.2472 26.178 45.9546L21.1025 52.3918L9.57189 54.6733ZM59.3549 22.4513C59.3549 18.7552 56.3661 15.7842 52.67 15.7842C48.9738 15.7842 45.9851 18.7552 45.9851 22.4513C45.9851 26.1475 48.9915 29.1363 52.67 29.1363C56.3661 29.1363 59.3549 26.1475 59.3549 22.4513Z" fill="white"/>
</svg>
