<svg width="72" height="72" viewBox="0 0 72 72" fill="none" xmlns="http://www.w3.org/2000/svg">
<path fill-rule="evenodd" clip-rule="evenodd" d="M5.87193 60.8866C0.468249 56.6959 -0.358579 49.741 0.113874 43.6777C0.674911 40.8096 0.719221 40.2895 1.51649 36.9755C4.61695 25.3246 13.9331 8.57639 26.2759 5.66366C37.8658 2.82523 48.7617 9.55718 57.3397 17.0173C57.3397 17.0173 57.3397 17.0174 57.5907 17.1957C65.6815 24.9382 74.658 37.986 71.2623 49.9639C67.6746 61.8675 48.6731 65.7759 38.4121 66.6081C28.7416 67.6186 13.4016 66.9945 5.87193 60.8866Z" fill="#5CBCE4"/>
<g clip-path="url(#clip0_1_354)">
<path d="M46.8202 25.3219H14.2174C13.0757 25.3219 12.1502 26.2474 12.1502 27.3891V27.858C10.8603 27.2169 9.77204 26.9457 9.77204 26.9457C8.73567 25.9401 7 26.6745 7 28.1184V38.4995C7 39.9435 8.73567 40.6778 9.77195 39.6723C9.77195 39.6723 10.8603 39.4011 12.1501 38.76V51.1111C12.1501 52.2528 13.0756 53.1783 14.2173 53.1783H46.8202C47.9618 53.1783 48.8873 52.2528 48.8873 51.1111V27.3892C48.8873 26.2474 47.9618 25.3219 46.8202 25.3219Z" fill="#B3E4F9"/>
<path d="M54.4454 20.9021L52.9394 21.6347C52.3454 20.0798 50.8405 18.975 49.0768 18.975H35.277C32.9936 18.975 31.1426 20.826 31.1426 23.1094V26.7689C31.1426 29.0523 32.9936 30.9033 35.277 30.9033H49.0769C50.8406 30.9033 52.3455 29.7985 52.9395 28.2436L54.4455 28.9762C55.145 29.3166 56.0327 28.9057 56.0327 28.2417V21.6365C56.0326 20.9726 55.1449 20.5617 54.4454 20.9021ZM41.9394 53.2908H21.6123C21.0099 53.2908 20.5215 52.8024 20.5215 52.1999V42.8393C20.5215 42.2369 21.0099 41.7485 21.6123 41.7485H41.9394C42.5418 41.7485 43.0302 42.2369 43.0302 42.8393V52.1999C43.0302 52.8024 42.5418 53.2908 41.9394 53.2908Z" fill="#B3E4F9"/>
<path d="M22.2613 39.4729C23.2221 39.4729 24.0011 38.6939 24.0011 37.7331C24.0011 36.7722 23.2221 35.9933 22.2613 35.9933C21.3004 35.9933 20.5215 36.7722 20.5215 37.7331C20.5215 38.6939 21.3004 39.4729 22.2613 39.4729Z" fill="#B3E4F9"/>
<path d="M30.9886 39.1766H28.0105C27.4125 39.1766 26.9277 38.6917 26.9277 38.0938V37.3725C26.9277 36.7744 27.4126 36.2897 28.0105 36.2897H30.9886C31.5867 36.2897 32.0714 36.7745 32.0714 37.3725V38.0938C32.0714 38.6917 31.5866 39.1766 30.9886 39.1766Z" fill="#B3E4F9"/>
</g>
<g clip-path="url(#clip1_1_354)">
<path d="M51.8202 28.3219H19.2174C18.0757 28.3219 17.1502 29.2474 17.1502 30.3891V30.858C15.8603 30.2169 14.772 29.9457 14.772 29.9457C13.7357 28.9401 12 29.6745 12 31.1184V41.4995C12 42.9435 13.7357 43.6778 14.7719 42.6723C14.7719 42.6723 15.8603 42.4011 17.1501 41.76V54.1111C17.1501 55.2528 18.0756 56.1783 19.2173 56.1783H51.8202C52.9618 56.1783 53.8873 55.2528 53.8873 54.1111V30.3892C53.8873 29.2474 52.9618 28.3219 51.8202 28.3219Z" fill="white"/>
<path d="M59.4454 23.9021L57.9394 24.6347C57.3454 23.0798 55.8405 21.975 54.0768 21.975H40.277C37.9936 21.975 36.1426 23.826 36.1426 26.1094V29.7689C36.1426 32.0523 37.9936 33.9033 40.277 33.9033H54.0769C55.8406 33.9033 57.3455 32.7985 57.9395 31.2436L59.4455 31.9762C60.145 32.3166 61.0327 31.9057 61.0327 31.2417V24.6365C61.0326 23.9726 60.1449 23.5617 59.4454 23.9021ZM46.9394 56.2908H26.6123C26.0099 56.2908 25.5215 55.8024 25.5215 55.1999V45.8393C25.5215 45.2369 26.0099 44.7485 26.6123 44.7485H46.9394C47.5418 44.7485 48.0302 45.2369 48.0302 45.8393V55.1999C48.0302 55.8024 47.5418 56.2908 46.9394 56.2908Z" fill="#B3E4F9"/>
<path d="M27.2613 42.4729C28.2221 42.4729 29.0011 41.6939 29.0011 40.7331C29.0011 39.7722 28.2221 38.9933 27.2613 38.9933C26.3004 38.9933 25.5215 39.7722 25.5215 40.7331C25.5215 41.6939 26.3004 42.4729 27.2613 42.4729Z" fill="#B3E4F9"/>
<path d="M35.9886 42.1766H33.0105C32.4125 42.1766 31.9277 41.6917 31.9277 41.0938V40.3725C31.9277 39.7744 32.4126 39.2897 33.0105 39.2897H35.9886C36.5867 39.2897 37.0714 39.7745 37.0714 40.3725V41.0938C37.0714 41.6917 36.5866 42.1766 35.9886 42.1766Z" fill="#B3E4F9"/>
</g>
<defs>
<clipPath id="clip0_1_354">
<rect width="49" height="49" fill="white" transform="translate(7 9)"/>
</clipPath>
<clipPath id="clip1_1_354">
<rect width="49" height="49" fill="white" transform="translate(12 12)"/>
</clipPath>
</defs>
</svg>
