<svg width="16" height="16" viewBox="0 0 16 16" fill="none" xmlns="http://www.w3.org/2000/svg">
<path fill-rule="evenodd" clip-rule="evenodd" d="M1.33333 10.6667C1.33333 12.5523 1.33333 13.4951 1.91911 14.0809C2.5049 14.6667 3.44771 14.6667 5.33333 14.6667H10.6667C12.5523 14.6667 13.4951 14.6667 14.0809 14.0809C14.6667 13.4951 14.6667 12.5523 14.6667 10.6667V9C14.6667 8.52859 14.6667 8.29289 14.5202 8.14645C14.3738 8 14.1381 8 13.6667 8H2.33333C1.86192 8 1.62622 8 1.47977 8.14645C1.33333 8.29289 1.33333 8.5286 1.33333 9V10.6667ZM8.99983 12.5C8.99983 12.2239 9.22369 12 9.49983 12H11.4998C11.776 12 11.9998 12.2239 11.9998 12.5C11.9998 12.7761 11.776 13 11.4998 13H9.49983C9.22369 13 8.99983 12.7761 8.99983 12.5ZM4.49983 12C4.22369 12 3.99983 12.2239 3.99983 12.5C3.99983 12.7761 4.22369 13 4.49983 13H6.49983C6.77597 13 6.99983 12.7761 6.99983 12.5C6.99983 12.2239 6.77597 12 6.49983 12H4.49983ZM8.99983 9.5C8.99983 9.22386 9.22369 9 9.49983 9H11.4998C11.776 9 11.9998 9.22386 11.9998 9.5C11.9998 9.77614 11.776 10 11.4998 10H9.49983C9.22369 10 8.99983 9.77614 8.99983 9.5ZM4.49983 9C4.22369 9 3.99983 9.22386 3.99983 9.5C3.99983 9.77614 4.22369 10 4.49983 10H6.49983C6.77597 10 6.99983 9.77614 6.99983 9.5C6.99983 9.22386 6.77597 9 6.49983 9H4.49983Z" fill="#9C9C9C"/>
<path d="M1.33333 6.00004C1.33333 5.38006 1.33333 5.07007 1.40148 4.81574C1.58641 4.12555 2.12551 3.58646 2.81569 3.40152C3.07002 3.33337 3.38001 3.33337 4 3.33337H12C12.62 3.33337 12.93 3.33337 13.1843 3.40152C13.8745 3.58646 14.4136 4.12555 14.5985 4.81574C14.6667 5.07007 14.6667 5.38006 14.6667 6.00004C14.6667 6.15504 14.6667 6.23253 14.6496 6.29612C14.6034 6.46866 14.4686 6.60344 14.2961 6.64967C14.2325 6.66671 14.155 6.66671 14 6.66671H2C1.845 6.66671 1.7675 6.66671 1.70392 6.64967C1.53137 6.60344 1.3966 6.46866 1.35037 6.29612C1.33333 6.23253 1.33333 6.15504 1.33333 6.00004Z" fill="#9C9C9C"/>
<path d="M11.3335 2L11.3335 4" stroke="#9C9C9C" stroke-width="2" stroke-linecap="round"/>
<path d="M4.6665 2L4.6665 4" stroke="#9C9C9C" stroke-width="2" stroke-linecap="round"/>
</svg>
