<svg width="16" height="16" viewBox="0 0 16 16" fill="none" xmlns="http://www.w3.org/2000/svg">
<path d="M3.04999 3.04999C3.23752 2.86252 3.49182 2.7572 3.75699 2.7572C4.02215 2.7572 4.27646 2.86252 4.46399 3.04999L7.99999 6.58599L11.536 3.04999C11.7246 2.86783 11.9772 2.76704 12.2394 2.76931C12.5016 2.77159 12.7524 2.87676 12.9378 3.06217C13.1232 3.24758 13.2284 3.49839 13.2307 3.76059C13.2329 4.02278 13.1321 4.27539 12.95 4.46399L9.41399 7.99999L12.95 11.536C13.1321 11.7246 13.2329 11.9772 13.2307 12.2394C13.2284 12.5016 13.1232 12.7524 12.9378 12.9378C12.7524 13.1232 12.5016 13.2284 12.2394 13.2307C11.9772 13.2329 11.7246 13.1321 11.536 12.95L7.99999 9.41399L4.46399 12.95C4.27539 13.1321 4.02278 13.2329 3.76059 13.2307C3.49839 13.2284 3.24758 13.1232 3.06217 12.9378C2.87676 12.7524 2.77159 12.5016 2.76931 12.2394C2.76704 11.9772 2.86783 11.7246 3.04999 11.536L6.58599 7.99999L3.04999 4.46399C2.86252 4.27646 2.7572 4.02215 2.7572 3.75699C2.7572 3.49182 2.86252 3.23752 3.04999 3.04999Z" fill="#CCCCCC"/>
</svg>
