<svg width="18" height="18" viewBox="0 0 19 18" fill="none" xmlns="http://www.w3.org/2000/svg">
<path d="M8.61394 13.95C8.72995 14.1293 8.93386 14.2488 9.16589 14.2488C9.39792 14.2488 9.60183 14.1293 9.72136 13.95L13.5956 7.96641C14.1159 7.16133 14.4182 6.27539 14.4182 5.24883C14.4147 2.28164 12.0839 0 9.16589 0C6.24792 0 3.91706 2.28164 3.91706 5.24883C3.91706 6.27539 4.21941 7.16133 4.73972 7.96641L8.61394 13.95ZM9.16589 2.25C10.8217 2.25 12.1647 3.59297 12.1647 5.24883C12.1647 6.90469 10.8217 8.24766 9.16589 8.24766C7.51003 8.24766 6.16706 6.90469 6.16706 5.24883C6.16706 3.59297 7.51003 2.25 9.16589 2.25ZM13.012 11.373L9.16589 16.4988L5.3198 11.373C4.00495 12.0621 3.16472 13.0922 3.16472 14.2488C3.16472 16.3195 5.85066 18 9.16589 18C12.4811 18 15.1671 16.3195 15.1671 14.2488C15.1671 13.0922 14.3268 12.0621 13.012 11.373Z" fill="#95C032"/>
</svg>
