<svg width="228" height="44" viewBox="0 0 228 44" fill="none" xmlns="http://www.w3.org/2000/svg">
<path d="M165.485 22.24C163.485 22.24 161.825 21.5467 160.505 20.16C159.185 18.7733 158.525 17.0667 158.525 15.04V15C158.525 13 159.192 11.2933 160.525 9.88001C161.859 8.46668 163.525 7.76001 165.525 7.76001C166.685 7.76001 167.679 7.95334 168.505 8.34001C169.345 8.71334 170.165 9.26668 170.965 10L170.225 10.76C168.812 9.38668 167.239 8.70001 165.505 8.70001C163.825 8.70001 162.419 9.30668 161.285 10.52C160.165 11.72 159.605 13.2 159.605 14.96V15C159.605 16.76 160.172 18.2533 161.305 19.48C162.452 20.6933 163.859 21.3 165.525 21.3C166.499 21.3 167.359 21.1267 168.105 20.78C168.852 20.42 169.599 19.8667 170.345 19.12L171.045 19.8C170.219 20.6 169.372 21.2067 168.505 21.62C167.652 22.0333 166.645 22.24 165.485 22.24Z" fill="#5BBCE4"/>
<path d="M177.289 22.24C176.249 22.24 175.329 21.96 174.529 21.4C173.742 20.8267 173.349 20.04 173.349 19.04V19C173.349 17.9467 173.755 17.1333 174.569 16.56C175.382 15.9733 176.462 15.68 177.809 15.68C178.955 15.68 180.082 15.8267 181.189 16.12V15.68C181.189 14.6533 180.895 13.88 180.309 13.36C179.722 12.8267 178.895 12.56 177.829 12.56C176.762 12.56 175.695 12.8333 174.629 13.38L174.269 12.52C175.482 11.9333 176.689 11.64 177.889 11.64C179.289 11.64 180.362 12.0133 181.109 12.76C181.802 13.4533 182.149 14.4133 182.149 15.64V22H181.189V20.3C180.242 21.5933 178.942 22.24 177.289 22.24ZM177.349 21.32C178.415 21.32 179.322 21.0267 180.069 20.44C180.829 19.84 181.209 19.0867 181.209 18.18V17.02C180.009 16.7133 178.855 16.56 177.749 16.56C176.682 16.56 175.855 16.7733 175.269 17.2C174.682 17.6267 174.389 18.2067 174.389 18.94V18.98C174.389 19.6867 174.675 20.2533 175.249 20.68C175.835 21.1067 176.535 21.32 177.349 21.32Z" fill="#5BBCE4"/>
<path d="M186.073 22V11.8H187.053V13.62C187.88 12.2467 189.013 11.56 190.453 11.56C192.026 11.56 193.173 12.2933 193.893 13.76C194.746 12.2933 195.973 11.56 197.573 11.56C198.773 11.56 199.726 11.9467 200.433 12.72C201.14 13.4933 201.493 14.5267 201.493 15.82V22H200.513V15.94C200.513 14.8333 200.246 13.98 199.713 13.38C199.18 12.7667 198.44 12.46 197.493 12.46C196.586 12.46 195.82 12.7867 195.193 13.44C194.58 14.08 194.273 14.9533 194.273 16.06V22H193.293V15.88C193.293 14.8133 193.026 13.98 192.493 13.38C191.96 12.7667 191.233 12.46 190.313 12.46C189.393 12.46 188.62 12.8133 187.993 13.52C187.366 14.2267 187.053 15.0933 187.053 16.12V22H186.073Z" fill="#5BBCE4"/>
<path d="M205.418 25.2V11.8H206.398V14.08C207.478 12.4 208.878 11.56 210.598 11.56C211.905 11.56 213.058 12.0467 214.058 13.02C215.058 13.9933 215.558 15.2733 215.558 16.86V16.9C215.558 18.4733 215.058 19.76 214.058 20.76C213.058 21.7467 211.905 22.24 210.598 22.24C208.892 22.24 207.492 21.4267 206.398 19.8V25.2H205.418ZM210.498 21.3C211.645 21.3 212.598 20.9067 213.358 20.12C214.118 19.3333 214.498 18.2733 214.498 16.94V16.9C214.498 15.5933 214.105 14.5333 213.318 13.72C212.545 12.9067 211.605 12.5 210.498 12.5C209.392 12.5 208.418 12.9133 207.578 13.74C206.752 14.5667 206.338 15.6133 206.338 16.88V16.92C206.338 18.1867 206.752 19.2333 207.578 20.06C208.418 20.8867 209.392 21.3 210.498 21.3Z" fill="#5BBCE4"/>
<path d="M222.321 22.2C220.775 22.2 219.381 21.7067 218.141 20.72L218.721 19.94C219.881 20.8333 221.101 21.28 222.381 21.28C223.088 21.28 223.675 21.1067 224.141 20.76C224.608 20.4 224.841 19.9267 224.841 19.34V19.3C224.841 19.0067 224.775 18.7533 224.641 18.54C224.508 18.3267 224.295 18.14 224.001 17.98C223.708 17.82 223.435 17.6933 223.181 17.6C222.928 17.5067 222.581 17.3933 222.141 17.26C221.661 17.1267 221.315 17.0267 221.101 16.96C220.901 16.8933 220.601 16.7733 220.201 16.6C219.815 16.4267 219.535 16.26 219.361 16.1C219.188 15.9267 219.021 15.7 218.861 15.42C218.715 15.14 218.641 14.82 218.641 14.46V14.42C218.641 13.5933 218.955 12.92 219.581 12.4C220.208 11.8667 221.015 11.6 222.001 11.6C223.321 11.6 224.528 11.9733 225.621 12.72L225.101 13.54C224.075 12.86 223.028 12.52 221.961 12.52C221.268 12.52 220.708 12.6867 220.281 13.02C219.855 13.3533 219.641 13.78 219.641 14.3V14.34C219.641 14.6067 219.708 14.8467 219.841 15.06C219.988 15.26 220.221 15.44 220.541 15.6C220.875 15.76 221.155 15.8867 221.381 15.98C221.621 16.06 221.988 16.1733 222.481 16.32C223.001 16.4667 223.415 16.6067 223.721 16.74C224.041 16.86 224.381 17.0333 224.741 17.26C225.115 17.4733 225.388 17.74 225.561 18.06C225.748 18.38 225.841 18.7533 225.841 19.18V19.22C225.841 20.1133 225.508 20.8333 224.841 21.38C224.175 21.9267 223.335 22.2 222.321 22.2Z" fill="#5BBCE4"/>
<path d="M100.683 22.2001C98.5896 22.2001 96.7096 21.4534 95.043 19.96L95.723 19.18C96.5096 19.9134 97.2896 20.4467 98.063 20.7801C98.8363 21.1 99.7296 21.26 100.743 21.26C101.783 21.26 102.63 21 103.283 20.48C103.95 19.9467 104.283 19.28 104.283 18.48V18.4401C104.283 17.6667 104.003 17.0534 103.443 16.6C102.896 16.1467 101.856 15.7667 100.323 15.46C98.6296 15.1134 97.4163 14.64 96.683 14.04C95.963 13.4267 95.603 12.5867 95.603 11.52V11.48C95.603 10.44 96.0296 9.56672 96.883 8.86005C97.7363 8.15338 98.8096 7.80005 100.103 7.80005C101.09 7.80005 101.95 7.94005 102.683 8.22005C103.43 8.48672 104.17 8.91338 104.903 9.50005L104.243 10.32C103.003 9.26672 101.61 8.74005 100.063 8.74005C99.0496 8.74005 98.223 9.00005 97.583 9.52005C96.9563 10.0267 96.643 10.6467 96.643 11.38V11.42C96.643 12.2067 96.923 12.8334 97.483 13.3C98.0563 13.7534 99.1363 14.1467 100.723 14.48C102.35 14.8134 103.523 15.2867 104.243 15.9C104.963 16.5 105.323 17.3134 105.323 18.34V18.38C105.323 19.5 104.89 20.42 104.023 21.14C103.156 21.8467 102.043 22.2001 100.683 22.2001Z" fill="#95C032"/>
<path d="M108.916 25.2001V11.8H109.896V14.08C110.976 12.4 112.376 11.56 114.096 11.56C115.403 11.56 116.556 12.0467 117.556 13.02C118.556 13.9934 119.056 15.2734 119.056 16.8601V16.9C119.056 18.4734 118.556 19.76 117.556 20.76C116.556 21.7467 115.403 22.24 114.096 22.24C112.389 22.24 110.989 21.4267 109.896 19.8V25.2001H108.916ZM113.996 21.3C115.143 21.3 116.096 20.9067 116.856 20.1201C117.616 19.3334 117.996 18.2734 117.996 16.9401V16.9C117.996 15.5934 117.603 14.5334 116.816 13.72C116.043 12.9067 115.103 12.5 113.996 12.5C112.889 12.5 111.916 12.9134 111.076 13.74C110.249 14.5667 109.836 15.6134 109.836 16.88V16.92C109.836 18.1867 110.249 19.2334 111.076 20.06C111.916 20.8867 112.889 21.3 113.996 21.3Z" fill="#95C032"/>
<path d="M130.779 20.66C129.779 21.7134 128.532 22.24 127.039 22.24C125.546 22.24 124.299 21.72 123.299 20.68C122.312 19.64 121.819 18.3934 121.819 16.9401V16.9C121.819 15.4467 122.319 14.1934 123.319 13.14C124.332 12.0867 125.586 11.56 127.079 11.56C128.572 11.56 129.812 12.08 130.799 13.12C131.799 14.16 132.299 15.4067 132.299 16.8601V16.9C132.299 18.3534 131.792 19.6067 130.779 20.66ZM127.079 21.32C128.279 21.32 129.272 20.8934 130.059 20.04C130.846 19.1867 131.239 18.1534 131.239 16.9401V16.9C131.239 15.66 130.832 14.6134 130.019 13.76C129.206 12.9067 128.212 12.48 127.039 12.48C125.839 12.48 124.846 12.9067 124.059 13.76C123.272 14.6134 122.879 15.6467 122.879 16.8601V16.9C122.879 18.14 123.286 19.1867 124.099 20.04C124.912 20.8934 125.906 21.32 127.079 21.32Z" fill="#95C032"/>
<path d="M135.712 22V11.8H136.692V14.7C137.119 13.7534 137.725 13 138.512 12.44C139.312 11.88 140.212 11.6134 141.212 11.64V12.72H141.112C139.872 12.72 138.825 13.1734 137.972 14.08C137.119 14.9867 136.692 16.2334 136.692 17.82V22H135.712Z" fill="#95C032"/>
<path d="M147.52 22.18C146.667 22.18 145.973 21.9467 145.44 21.48C144.92 21.0134 144.66 20.3134 144.66 19.38V12.7H143.18V11.8H144.66V8.54005H145.64V11.8H149.22V12.7H145.64V19.2801C145.64 20.6 146.32 21.26 147.68 21.26C148.147 21.26 148.647 21.14 149.18 20.9V21.82C148.647 22.06 148.093 22.18 147.52 22.18Z" fill="#95C032"/>
<path d="M44.0801 22V8H49.8601C51.4601 8 52.6734 8.41333 53.5001 9.24C54.1001 9.84 54.4001 10.5733 54.4001 11.44V11.48C54.4001 13.0267 53.6067 14.1333 52.0201 14.8C52.9534 15.04 53.7134 15.4333 54.3001 15.98C54.8867 16.5267 55.1801 17.2467 55.1801 18.14V18.18C55.1801 19.34 54.7201 20.2667 53.8001 20.96C52.8934 21.6533 51.6801 22 50.1601 22H44.0801ZM53.3401 11.58V11.54C53.3401 10.7533 53.0334 10.1267 52.4201 9.66C51.8067 9.19333 50.9467 8.96 49.8401 8.96H45.1201V14.46H49.7401C50.8067 14.46 51.6734 14.2067 52.3401 13.7C53.0067 13.1933 53.3401 12.4867 53.3401 11.58ZM54.1201 18.18V18.14C54.1201 17.26 53.7534 16.5867 53.0201 16.12C52.3001 15.6533 51.2467 15.42 49.8601 15.42H45.1201V21.04H50.2001C51.4001 21.04 52.3534 20.7867 53.0601 20.28C53.7667 19.76 54.1201 19.06 54.1201 18.18Z" fill="#F39540"/>
<path d="M62.9937 22.24C61.6203 22.24 60.4403 21.7467 59.4537 20.76C58.4803 19.76 57.9937 18.48 57.9937 16.92V16.88C57.9937 15.4 58.4537 14.1467 59.3737 13.12C60.307 12.08 61.4603 11.56 62.8337 11.56C64.2337 11.56 65.3603 12.0667 66.2137 13.08C67.0803 14.0933 67.5137 15.3667 67.5137 16.9C67.5137 17.06 67.507 17.1933 67.4937 17.3H59.0337C59.1137 18.5267 59.5403 19.5067 60.3137 20.24C61.087 20.96 61.9937 21.32 63.0337 21.32C64.3537 21.32 65.5203 20.7867 66.5337 19.72L67.2137 20.32C66.027 21.6 64.6203 22.24 62.9937 22.24ZM59.0337 16.42H66.4537C66.3603 15.3 66.0003 14.36 65.3737 13.6C64.7603 12.84 63.9003 12.46 62.7937 12.46C61.7937 12.46 60.9337 12.84 60.2137 13.6C59.507 14.3467 59.1137 15.2867 59.0337 16.42Z" fill="#F39540"/>
<path d="M74.0734 22.2C72.5267 22.2 71.1334 21.7067 69.8934 20.72L70.4734 19.94C71.6334 20.8333 72.8534 21.28 74.1334 21.28C74.84 21.28 75.4267 21.1067 75.8934 20.76C76.36 20.4 76.5934 19.9267 76.5934 19.34V19.3C76.5934 19.0067 76.5267 18.7533 76.3934 18.54C76.26 18.3267 76.0467 18.14 75.7534 17.98C75.46 17.82 75.1867 17.6933 74.9334 17.6C74.68 17.5067 74.3334 17.3933 73.8934 17.26C73.4134 17.1267 73.0667 17.0267 72.8534 16.96C72.6534 16.8933 72.3534 16.7733 71.9534 16.6C71.5667 16.4267 71.2867 16.26 71.1134 16.1C70.94 15.9267 70.7734 15.7 70.6134 15.42C70.4667 15.14 70.3934 14.82 70.3934 14.46V14.42C70.3934 13.5933 70.7067 12.92 71.3334 12.4C71.96 11.8667 72.7667 11.6 73.7534 11.6C75.0734 11.6 76.28 11.9733 77.3734 12.72L76.8534 13.54C75.8267 12.86 74.78 12.52 73.7134 12.52C73.02 12.52 72.46 12.6867 72.0334 13.02C71.6067 13.3533 71.3934 13.78 71.3934 14.3V14.34C71.3934 14.6067 71.46 14.8467 71.5934 15.06C71.74 15.26 71.9734 15.44 72.2934 15.6C72.6267 15.76 72.9067 15.8867 73.1334 15.98C73.3734 16.06 73.74 16.1733 74.2334 16.32C74.7534 16.4667 75.1667 16.6067 75.4734 16.74C75.7934 16.86 76.1334 17.0333 76.4934 17.26C76.8667 17.4733 77.14 17.74 77.3134 18.06C77.5 18.38 77.5934 18.7533 77.5934 19.18V19.22C77.5934 20.1133 77.26 20.8333 76.5934 21.38C75.9267 21.9267 75.0867 22.2 74.0734 22.2Z" fill="#F39540"/>
<path d="M84.3195 22.18C83.4661 22.18 82.7728 21.9467 82.2395 21.48C81.7195 21.0133 81.4595 20.3133 81.4595 19.38V12.7H79.9795V11.8H81.4595V8.54H82.4395V11.8H86.0195V12.7H82.4395V19.28C82.4395 20.6 83.1195 21.26 84.4795 21.26C84.9461 21.26 85.4461 21.14 85.9795 20.9V21.82C85.4461 22.06 84.8928 22.18 84.3195 22.18Z" fill="#F39540"/>
<path d="M42.4805 39.0001L46.4645 30.5401H46.8485L50.8325 39.0001H50.3885L49.2485 36.5521H44.0525L42.9005 39.0001H42.4805ZM44.2325 36.1801H49.0685L46.6445 31.0201L44.2325 36.1801Z" fill="white"/>
<path d="M57.9653 39.1441C56.7892 39.1441 55.8052 38.7281 55.0132 37.8961C54.2292 37.0561 53.8372 36.0321 53.8372 34.8241V34.8001C53.8372 33.6081 54.2332 32.5881 55.0252 31.7401C55.8172 30.8841 56.8053 30.4561 57.9893 30.4561C58.7092 30.4561 59.3092 30.5681 59.7892 30.7921C60.2692 31.0161 60.7453 31.3481 61.2173 31.7881L60.9293 32.0881C60.5213 31.6961 60.0853 31.3881 59.6213 31.1641C59.1653 30.9401 58.6173 30.8281 57.9773 30.8281C56.9213 30.8281 56.0372 31.2161 55.3252 31.9921C54.6132 32.7601 54.2572 33.6921 54.2572 34.7881V34.8121C54.2572 35.9081 54.6132 36.8441 55.3252 37.6201C56.0452 38.3881 56.9333 38.7721 57.9893 38.7721C59.1012 38.7721 60.0973 38.3241 60.9773 37.4281L61.2652 37.7041C60.3052 38.6641 59.2052 39.1441 57.9653 39.1441Z" fill="white"/>
<path d="M67.342 39.0001V30.9721H64.354V30.6001H70.75V30.9721H67.75V39.0001H67.342Z" fill="white"/>
<path d="M74.6562 39.0001V30.6001H75.0642V39.0001H74.6562Z" fill="white"/>
<path d="M82.8025 39.0601L79.0345 30.6001H79.4785L82.9825 38.5441L86.4865 30.6001H86.9065L83.1385 39.0601H82.8025Z" fill="white"/>
<path d="M90.7985 39.0001V30.6001H96.7145V30.9721H91.2065V34.5841H96.1865V34.9561H91.2065V38.6281H96.7745V39.0001H90.7985Z" fill="white"/>
<path d="M106.697 39.0001V30.6001H109.685C110.677 30.6001 111.457 30.8281 112.025 31.2841C112.593 31.7321 112.877 32.3521 112.877 33.1441V33.1681C112.877 33.9921 112.573 34.6321 111.965 35.0881C111.365 35.5441 110.577 35.7721 109.601 35.7721H107.105V39.0001H106.697ZM107.105 35.3881H109.613C110.493 35.3881 111.189 35.1961 111.701 34.8121C112.213 34.4201 112.469 33.8761 112.469 33.1801V33.1561C112.469 32.4681 112.217 31.9321 111.713 31.5481C111.217 31.1641 110.529 30.9721 109.649 30.9721H107.105V35.3881Z" fill="white"/>
<path d="M116.884 39.0001V30.6001H117.292V38.6281H122.356V39.0001H116.884Z" fill="white"/>
<path d="M125.424 39.0001L129.408 30.5401H129.792L133.776 39.0001H133.332L132.192 36.5521H126.996L125.844 39.0001H125.424ZM127.176 36.1801H132.012L129.588 31.0201L127.176 36.1801Z" fill="white"/>
<path d="M137.669 39.0001V30.6001H138.041L144.185 38.3041V30.6001H144.581V39.0001H144.257L138.065 31.2361V39.0001H137.669Z" fill="white"/>
<path d="M149.239 39.0001V30.6001H155.155V30.9721H149.647V34.5841H154.627V34.9561H149.647V38.6281H155.215V39.0001H149.239Z" fill="white"/>
<path d="M161.528 39.0001V30.9721H158.54V30.6001H164.936V30.9721H161.936V39.0001H161.528Z" fill="white"/>
<path d="M178.32 39.1441C177.04 39.1441 176.024 38.7321 175.272 37.9081C174.52 37.0761 174.144 36.0481 174.144 34.8241V34.8001C174.144 33.6241 174.528 32.6081 175.296 31.7521C176.072 30.8881 177.072 30.4561 178.296 30.4561C178.928 30.4561 179.472 30.5481 179.928 30.7321C180.392 30.9081 180.84 31.1801 181.272 31.5481L181.008 31.8601C180.6 31.5241 180.184 31.2681 179.76 31.0921C179.344 30.9161 178.848 30.8281 178.272 30.8281C177.184 30.8281 176.292 31.2201 175.596 32.0041C174.908 32.7881 174.564 33.7161 174.564 34.7881V34.8121C174.564 35.9321 174.904 36.8761 175.584 37.6441C176.272 38.4041 177.188 38.7841 178.332 38.7841C179.404 38.7841 180.36 38.4241 181.2 37.7041V35.1241H178.212V34.7281H181.596V37.8601C180.668 38.7161 179.576 39.1441 178.32 39.1441Z" fill="white"/>
<path d="M186.051 39.0001V30.6001H189.519C190.583 30.6001 191.383 30.8681 191.919 31.4041C192.327 31.8281 192.531 32.3481 192.531 32.9641V32.9881C192.531 33.6761 192.287 34.2281 191.799 34.6441C191.319 35.0601 190.683 35.3001 189.891 35.3641L192.687 39.0001H192.171L189.435 35.4121H186.459V39.0001H186.051ZM186.459 35.0401H189.411C190.259 35.0401 190.923 34.8561 191.403 34.4881C191.883 34.1121 192.123 33.6201 192.123 33.0121V32.9881C192.123 32.3561 191.891 31.8641 191.427 31.5121C190.971 31.1521 190.327 30.9721 189.495 30.9721H186.459V35.0401Z" fill="white"/>
<path d="M203.629 37.8721C202.845 38.7201 201.837 39.1441 200.605 39.1441C199.373 39.1441 198.365 38.7201 197.581 37.8721C196.805 37.0161 196.417 35.9961 196.417 34.8121V34.7881C196.417 33.6041 196.809 32.5881 197.593 31.7401C198.377 30.8841 199.385 30.4561 200.617 30.4561C201.849 30.4561 202.853 30.8841 203.629 31.7401C204.413 32.5881 204.805 33.6041 204.805 34.7881V34.8121C204.805 35.9961 204.413 37.0161 203.629 37.8721ZM200.629 38.7721C201.717 38.7721 202.613 38.3881 203.317 37.6201C204.029 36.8441 204.385 35.9121 204.385 34.8241V34.8001C204.385 33.7121 204.029 32.7801 203.317 32.0041C202.605 31.2201 201.701 30.8281 200.605 30.8281C199.509 30.8281 198.605 31.2161 197.893 31.9921C197.189 32.7601 196.837 33.6881 196.837 34.7761V34.8001C196.837 35.8881 197.193 36.8241 197.905 37.6081C198.625 38.3841 199.533 38.7721 200.629 38.7721Z" fill="white"/>
<path d="M214.858 38.1601C214.242 38.8081 213.414 39.1321 212.374 39.1321C211.334 39.1321 210.502 38.8081 209.878 38.1601C209.262 37.5121 208.954 36.5841 208.954 35.3761V30.6001H209.362V35.3521C209.362 36.4481 209.63 37.2921 210.166 37.8841C210.71 38.4681 211.45 38.7601 212.386 38.7601C213.322 38.7601 214.054 38.4721 214.582 37.8961C215.11 37.3201 215.374 36.4801 215.374 35.3761V30.6001H215.782V35.3401C215.782 36.5641 215.474 37.5041 214.858 38.1601Z" fill="white"/>
<path d="M220.304 39.0001V30.6001H223.292C224.284 30.6001 225.064 30.8281 225.632 31.2841C226.2 31.7321 226.484 32.3521 226.484 33.1441V33.1681C226.484 33.9921 226.18 34.6321 225.572 35.0881C224.972 35.5441 224.184 35.7721 223.208 35.7721H220.712V39.0001H220.304ZM220.712 35.3881H223.22C224.1 35.3881 224.796 35.1961 225.308 34.8121C225.82 34.4201 226.076 33.8761 226.076 33.1801V33.1561C226.076 32.4681 225.824 31.9321 225.32 31.5481C224.824 31.1641 224.136 30.9721 223.256 30.9721H220.712V35.3881Z" fill="white"/>
<path d="M3.53055 8.06035C3.53055 7.63956 3.54797 7.22469 3.57701 6.80981C1.33557 9.76725 0 13.4715 0 17.5016C0 19.9197 0.487771 22.2252 1.35299 24.3174C3.53055 22.8001 6.05653 21.7748 8.77993 21.3896C5.53391 17.9165 3.53055 13.2225 3.53055 8.06035Z" fill="#95C032"/>
<path d="M17.1423 0C14.6918 0 12.3633 0.527479 10.2554 1.47575C10.1276 1.53502 10.0231 1.63578 9.96504 1.76024C8.914 3.92349 8.37977 6.40086 8.55398 9.02048C9.02433 16.2274 14.8486 21.9941 21.9271 22.2608C27.0255 22.4504 31.5316 19.8427 34.1041 15.8184C34.1621 15.7236 34.1912 15.611 34.1795 15.4984C33.204 6.78017 25.9513 0 17.1423 0Z" fill="#F39540"/>
<path d="M24.4404 27.3519C25.5727 28.6735 26.5134 30.1671 27.2335 31.785C27.2509 31.8265 27.309 31.8384 27.338 31.8028L28.6736 30.4397C29.0684 30.0722 29.4517 29.6811 29.8117 29.278L29.8175 29.2721C31.1299 27.8023 32.2041 26.0954 32.9648 24.2285C32.9881 24.1692 32.9184 24.1099 32.8661 24.1455C30.4098 25.8109 27.5529 26.9014 24.481 27.2393C24.4288 27.2511 24.4056 27.3163 24.4404 27.3519Z" fill="#95C032"/>
<path d="M11.2185 26.2971C8.52989 26.2971 6.04456 27.1624 4.00056 28.6263C3.97152 28.65 3.96571 28.6915 3.98894 28.7211C4.14573 28.9108 4.30251 29.0945 4.4651 29.2783L4.47091 29.2842C4.83093 29.6872 5.21418 30.0784 5.60905 30.4458L17.1414 42.2044L23.3722 35.8451C21.9553 30.351 17.0543 26.2971 11.2185 26.2971Z" fill="#5BBCE4"/>
<path opacity="0.83" d="M17.1409 43.5438L16.5776 42.9689L14.6033 40.9539C12.3096 41.1969 10.6953 41.7599 10.6953 42.4118C10.6953 43.289 13.5813 44.0002 17.1351 44.0002C20.6889 44.0002 23.5749 43.289 23.5749 42.4118C23.5749 41.754 21.9664 41.1969 19.6669 40.9539L17.6926 42.9689L17.1409 43.5438Z" fill="#D8D9D8"/>
</svg>
