<svg width="24" height="24" viewBox="0 0 24 24" fill="none" xmlns="http://www.w3.org/2000/svg">
<path d="M15.7822 11.857C14.5619 12.7233 13.7303 14.0338 13.4662 15.5068L11.874 12.4567L7.852 16.458L8.20353 19.0428L7.11792 20.1387L5.28787 16.8405L2 15.0208L3.09596 13.9249L5.66009 14.2867L9.68204 10.2544L2 6.24283L3.45783 4.785L12.9699 6.97691L16.9919 2.95495C17.1352 2.80991 17.3058 2.69474 17.494 2.61614C17.6821 2.53754 17.8839 2.49707 18.0878 2.49707C18.2917 2.49707 18.4936 2.53754 18.6817 2.61614C18.8698 2.69474 19.0405 2.80991 19.1838 2.95495C19.7835 3.56497 19.7835 4.56787 19.1838 5.14687L15.1618 9.16883L15.7822 11.857ZM22.6784 16.458C22.6784 19.1462 19.0597 23.1785 19.0597 23.1785C19.0597 23.1785 15.441 19.1462 15.441 16.458C15.441 14.4935 17.0953 12.8393 19.0597 12.8393C21.0242 12.8393 22.6784 14.4935 22.6784 16.458ZM20.3004 16.5614C20.3004 15.941 19.6801 15.3207 19.0597 15.3207C18.4394 15.3207 17.819 15.8376 17.819 16.5614C17.819 17.1817 18.336 17.8021 19.0597 17.8021C19.7835 17.8021 20.4038 17.1817 20.3004 16.5614Z" fill="#5BBCE4"/>
</svg>
