<svg width="18" height="18" viewBox="0 0 19 18" fill="none" xmlns="http://www.w3.org/2000/svg">
<g clip-path="url(#clip0_1_173)">
<path d="M16.9493 14.5859V6.20663C16.9493 5.86383 16.6714 5.58594 16.3286 5.58594H2.67342C2.33063 5.58594 2.05273 5.86383 2.05273 6.20663V14.5859H16.9493Z" fill="#F39540"/>
<path d="M7.01717 4.34473H11.9827C12.3255 4.34473 12.6034 4.62262 12.6034 4.96542V14.5861H6.39648V4.96542C6.39648 4.62262 6.67438 4.34473 7.01717 4.34473Z" fill="#F39540"/>
<path d="M9.78759 0.182165L10.0886 0.823958L10.794 0.930717C10.9116 0.948716 11.0092 1.03091 11.047 1.14367C11.0848 1.25644 11.0564 1.38087 10.9734 1.46606L10.4523 1.99985L10.5721 2.73289C10.5913 2.85246 10.5408 2.97253 10.4419 3.04242C10.343 3.11231 10.2129 3.11985 10.1066 3.06185L9.50021 2.72823L8.89535 3.06279C8.78904 3.12078 8.65899 3.11324 8.56009 3.04335C8.46119 2.97346 8.41066 2.8534 8.42983 2.73382L8.54962 2.00079L8.02856 1.46699C7.94509 1.38206 7.91616 1.25756 7.95364 1.14453C7.99112 1.0315 8.0887 0.948949 8.20638 0.930717L8.91056 0.823958L9.21159 0.182165C9.26361 0.0700347 9.37598 -0.00170898 9.49959 -0.00170898C9.6232 -0.00170898 9.73557 0.0700347 9.78759 0.182165Z" fill="#F39540"/>
<path d="M5.56699 0.784729L5.83606 1.36228L6.46606 1.45942C6.57134 1.47642 6.65843 1.55056 6.69202 1.65178C6.72561 1.753 6.70012 1.8645 6.62588 1.94107L6.16068 2.42056L6.26774 3.08004C6.28594 3.18751 6.24102 3.29591 6.15213 3.359C6.06325 3.4221 5.94609 3.42874 5.85064 3.37611L5.31033 3.07507L4.77002 3.37611C4.67457 3.42874 4.55742 3.4221 4.46853 3.359C4.37965 3.29591 4.33472 3.18751 4.35292 3.08004L4.45999 2.42056L3.99447 1.93983C3.9204 1.8632 3.89506 1.75176 3.9287 1.65064C3.96234 1.54952 4.0494 1.47547 4.15461 1.45849L4.78461 1.36135L5.05368 0.783798C5.10009 0.683809 5.20039 0.619918 5.31063 0.620118C5.42087 0.620318 5.52093 0.684573 5.56699 0.784729Z" fill="#F39540"/>
<path d="M1.96997 2.00827L2.20893 2.52158L2.76911 2.60692C2.86283 2.62199 2.94038 2.68797 2.97026 2.77807C3.00015 2.86817 2.97739 2.96742 2.91124 3.03551L2.49787 3.46316L2.59283 4.0494C2.60903 4.1449 2.56914 4.24123 2.49017 4.29732C2.41121 4.3534 2.3071 4.35933 2.22228 4.31258L1.74187 4.04506L1.26145 4.31382C1.17663 4.36057 1.07252 4.35464 0.993557 4.29856C0.91459 4.24248 0.874698 4.14614 0.8909 4.05064L0.985865 3.4644L0.572486 3.03613C0.505976 2.96807 0.482993 2.86859 0.512909 2.77826C0.542824 2.68792 0.62064 2.62183 0.714624 2.60692L1.27635 2.52158L1.51531 2.00827C1.55665 1.92009 1.64525 1.86377 1.74264 1.86377C1.84003 1.86377 1.92863 1.92009 1.96997 2.00827Z" fill="#F39540"/>
<path d="M13.4345 0.784729L13.1655 1.36228L12.5355 1.45942C12.4302 1.47642 12.3431 1.55056 12.3095 1.65178C12.2759 1.753 12.3014 1.8645 12.3756 1.94107L12.8408 2.42056L12.7338 3.08004C12.7156 3.18751 12.7605 3.29591 12.8494 3.359C12.9383 3.4221 13.0554 3.42874 13.1509 3.37611L13.6912 3.07507L14.2315 3.37611C14.3269 3.42874 14.4441 3.4221 14.533 3.359C14.6219 3.29591 14.6668 3.18751 14.6486 3.08004L14.5415 2.42056L15.007 1.93983C15.0811 1.8632 15.1065 1.75176 15.0728 1.65064C15.0392 1.54952 14.9521 1.47547 14.8469 1.45849L14.2169 1.36135L13.9478 0.783798C13.9014 0.683809 13.8011 0.619918 13.6909 0.620118C13.5806 0.620318 13.4806 0.684573 13.4345 0.784729Z" fill="#F39540"/>
<path d="M17.0316 2.00829L16.7942 2.5216L16.2356 2.60756C16.1419 2.62263 16.0643 2.68861 16.0344 2.77871C16.0045 2.86882 16.0273 2.96806 16.0934 3.03615L16.5068 3.46319L16.4119 4.04943C16.3957 4.14492 16.4356 4.24126 16.5145 4.29734C16.5935 4.35343 16.6976 4.35935 16.7824 4.3126L17.2597 4.04508L17.7401 4.3126C17.825 4.35935 17.9291 4.35343 18.008 4.29734C18.087 4.24126 18.1269 4.14492 18.1107 4.04943L18.0157 3.46319L18.4291 3.03615C18.4956 2.96809 18.5186 2.86862 18.4887 2.77828C18.4588 2.68795 18.3809 2.62185 18.287 2.60694L17.7283 2.52098L17.4894 2.00767C17.4487 1.91772 17.359 1.85997 17.2603 1.86011C17.1616 1.86024 17.0721 1.91823 17.0316 2.00829Z" fill="#F39540"/>
<path d="M18.1897 14.2756H0.810345C0.638946 14.2756 0.5 14.4146 0.5 14.586V17.6894C0.5 17.8608 0.638946 17.9998 0.810345 17.9998H18.1897C18.3611 17.9998 18.5 17.8608 18.5 17.6894V14.586C18.5 14.4146 18.3611 14.2756 18.1897 14.2756Z" fill="#F39540"/>
<path d="M2.36328 15.8274H4.22535V17.9998H2.36328V15.8274Z" fill="white"/>
<path d="M9.5 15.5171H11.0517V17.9998H9.5V15.5171Z" fill="white"/>
<path d="M7.94922 15.5171H9.50094V17.9998H7.94922V15.5171Z" fill="#D8D8D8"/>
<path d="M11.6728 15.8272H7.32792C7.15652 15.8272 7.01758 15.6883 7.01758 15.5169C7.01758 15.3455 7.15652 15.2065 7.32792 15.2065H11.6728C11.8441 15.2065 11.9831 15.3455 11.9831 15.5169C11.9831 15.6883 11.8441 15.8272 11.6728 15.8272Z" fill="#F39540"/>
<path d="M4.53529 16.1378H2.05253C1.88113 16.1378 1.74219 15.9988 1.74219 15.8274C1.74219 15.656 1.88113 15.5171 2.05253 15.5171H4.53529C4.70669 15.5171 4.84564 15.656 4.84564 15.8274C4.84564 15.9988 4.70669 16.1378 4.53529 16.1378Z" fill="#F39540"/>
<path d="M14.7773 15.8274H16.6394V17.9998H14.7773V15.8274Z" fill="white"/>
<path d="M16.9494 16.1378H14.4666C14.2952 16.1378 14.1562 15.9988 14.1562 15.8274C14.1562 15.656 14.2952 15.5171 14.4666 15.5171H16.9494C17.1208 15.5171 17.2597 15.656 17.2597 15.8274C17.2597 15.9988 17.1208 16.1378 16.9494 16.1378Z" fill="#F39540"/>
<path d="M8.56971 5.89648H7.94902C7.77762 5.89648 7.63867 6.03543 7.63867 6.20683V6.82752C7.63867 6.99892 7.77762 7.13786 7.94902 7.13786H8.56971C8.74111 7.13786 8.88005 6.99892 8.88005 6.82752V6.20683C8.88005 6.03543 8.74111 5.89648 8.56971 5.89648Z" fill="#D8D8D8"/>
<path d="M11.0521 5.89648H10.4314C10.26 5.89648 10.1211 6.03543 10.1211 6.20683V6.82752C10.1211 6.99892 10.26 7.13786 10.4314 7.13786H11.0521C11.2235 7.13786 11.3625 6.99892 11.3625 6.82752V6.20683C11.3625 6.03543 11.2235 5.89648 11.0521 5.89648Z" fill="#D8D8D8"/>
<path d="M8.56971 8.68921H7.94902C7.77762 8.68921 7.63867 8.82816 7.63867 8.99955V9.62024C7.63867 9.79164 7.77762 9.93059 7.94902 9.93059H8.56971C8.74111 9.93059 8.88005 9.79164 8.88005 9.62024V8.99955C8.88005 8.82816 8.74111 8.68921 8.56971 8.68921Z" fill="#D8D8D8"/>
<path d="M11.0521 8.68921H10.4314C10.26 8.68921 10.1211 8.82816 10.1211 8.99955V9.62024C10.1211 9.79164 10.26 9.93059 10.4314 9.93059H11.0521C11.2235 9.93059 11.3625 9.79164 11.3625 9.62024V8.99955C11.3625 8.82816 11.2235 8.68921 11.0521 8.68921Z" fill="#D8D8D8"/>
<path d="M8.56971 11.4827H7.94902C7.77762 11.4827 7.63867 11.6216 7.63867 11.793V12.4137C7.63867 12.5851 7.77762 12.724 7.94902 12.724H8.56971C8.74111 12.724 8.88005 12.5851 8.88005 12.4137V11.793C8.88005 11.6216 8.74111 11.4827 8.56971 11.4827Z" fill="#D8D8D8"/>
<path d="M4.84466 6.82739H3.60328C3.43188 6.82739 3.29294 6.96634 3.29294 7.13774V7.75843C3.29294 7.92983 3.43188 8.06877 3.60328 8.06877H4.84466C5.01606 8.06877 5.15501 7.92983 5.15501 7.75843V7.13774C5.15501 6.96634 5.01606 6.82739 4.84466 6.82739Z" fill="#D8D8D8"/>
<path d="M4.84466 9.31006H3.60328C3.43188 9.31006 3.29294 9.449 3.29294 9.6204V10.2411C3.29294 10.4125 3.43188 10.5514 3.60328 10.5514H4.84466C5.01606 10.5514 5.15501 10.4125 5.15501 10.2411V9.6204C5.15501 9.449 5.01606 9.31006 4.84466 9.31006Z" fill="#D8D8D8"/>
<path d="M4.84466 11.793H3.60328C3.43188 11.793 3.29294 11.9319 3.29294 12.1033V12.724C3.29294 12.8954 3.43188 13.0343 3.60328 13.0343H4.84466C5.01606 13.0343 5.15501 12.8954 5.15501 12.724V12.1033C5.15501 11.9319 5.01606 11.793 4.84466 11.793Z" fill="#D8D8D8"/>
<path d="M14.1553 8.06885H15.3967C15.5681 8.06885 15.707 7.9299 15.707 7.7585V7.13781C15.707 6.96641 15.5681 6.82747 15.3967 6.82747H14.1553C13.9839 6.82747 13.845 6.96641 13.845 7.13781V7.7585C13.845 7.9299 13.9839 8.06885 14.1553 8.06885Z" fill="#D8D8D8"/>
<path d="M14.1553 10.5515H15.3967C15.5681 10.5515 15.707 10.4126 15.707 10.2412V9.62048C15.707 9.44908 15.5681 9.31013 15.3967 9.31013H14.1553C13.9839 9.31013 13.845 9.44908 13.845 9.62048V10.2412C13.845 10.4126 13.9839 10.5515 14.1553 10.5515Z" fill="#D8D8D8"/>
<path d="M14.1553 13.0344H15.3967C15.5681 13.0344 15.707 12.8955 15.707 12.7241V12.1034C15.707 11.932 15.5681 11.793 15.3967 11.793H14.1553C13.9839 11.793 13.845 11.932 13.845 12.1034V12.7241C13.845 12.8955 13.9839 13.0344 14.1553 13.0344Z" fill="#D8D8D8"/>
<path d="M11.0521 11.4827H10.4314C10.26 11.4827 10.1211 11.6216 10.1211 11.793V12.4137C10.1211 12.5851 10.26 12.724 10.4314 12.724H11.0521C11.2235 12.724 11.3625 12.5851 11.3625 12.4137V11.793C11.3625 11.6216 11.2235 11.4827 11.0521 11.4827Z" fill="#D8D8D8"/>
</g>
<defs>
<clipPath id="clip0_1_173">
<rect width="18" height="18" fill="white" transform="translate(0.5)"/>
</clipPath>
</defs>
</svg>
