<svg width="24" height="24" viewBox="0 0 24 24" fill="none" xmlns="http://www.w3.org/2000/svg">
<path fill-rule="evenodd" clip-rule="evenodd" d="M12.3467 18.3304C13.7586 17.6062 19 14.5759 19 9.5C19 5.63401 15.866 2.5 12 2.5C8.13401 2.5 5 5.63401 5 9.5C5 14.5759 10.2414 17.6062 11.6533 18.3304C11.8739 18.4436 12.1261 18.4436 12.3467 18.3304ZM12 12.5C13.6569 12.5 15 11.1569 15 9.5C15 7.84315 13.6569 6.5 12 6.5C10.3431 6.5 9 7.84315 9 9.5C9 11.1569 10.3431 12.5 12 12.5Z" fill="#5BBCE4"/>
<path d="M18.0623 17C18.6767 17.4561 19.0001 17.9734 19.0001 18.5C19.0001 19.0266 18.6767 19.5439 18.0623 20C17.4479 20.4561 16.5642 20.8348 15.5001 21.0981C14.436 21.3614 13.2289 21.5 12.0001 21.5C10.7714 21.5 9.56424 21.3614 8.50011 21.0981C7.43597 20.8348 6.55231 20.4561 5.93793 20C5.32355 19.5439 5.00011 19.0266 5.00011 18.5C5.00011 17.9734 5.32355 17.4561 5.93793 17" stroke="#5BBCE4" stroke-width="1.74094" stroke-linecap="round"/>
</svg>
