<svg width="136" height="25" viewBox="0 0 136 25" fill="none" xmlns="http://www.w3.org/2000/svg">
<path d="M10.3065 7.71986C10.9486 6.11918 11.2696 5.31883 11.7912 5.20791C11.9283 5.17874 12.0701 5.17874 12.2072 5.20791C12.7288 5.31883 13.0499 6.11918 13.6919 7.71986C14.0571 8.63014 14.2396 9.08528 14.5812 9.39485C14.6771 9.48168 14.7811 9.55901 14.8918 9.62576C15.2867 9.86374 15.7796 9.90788 16.7653 9.99617C18.4341 10.1456 19.2685 10.2203 19.5233 10.6961C19.576 10.7946 19.6119 10.9013 19.6294 11.0117C19.7139 11.5447 19.1005 12.1028 17.8737 13.2189L17.533 13.5288C16.9595 14.0506 16.6727 14.3116 16.5069 14.6372C16.4073 14.8325 16.3406 15.0428 16.3094 15.2598C16.2573 15.6215 16.3412 16 16.5092 16.7569L16.5692 17.0274C16.8704 18.3849 17.021 19.0637 16.833 19.3973C16.6641 19.697 16.3531 19.8889 16.0095 19.9053C15.627 19.9236 15.088 19.4844 14.01 18.606C13.2998 18.0273 12.9447 17.7379 12.5505 17.6249C12.1902 17.5216 11.8082 17.5216 11.448 17.6249C11.0537 17.7379 10.6986 18.0273 9.98844 18.606C8.91046 19.4844 8.37147 19.9236 7.98895 19.9053C7.64535 19.8889 7.33431 19.697 7.16544 19.3973C6.97745 19.0637 7.12805 18.3849 7.42924 17.0274L7.48925 16.7569C7.6572 16 7.74118 15.6215 7.68907 15.2598C7.65781 15.0428 7.59109 14.8325 7.49159 14.6372C7.32572 14.3116 7.03894 14.0506 6.4654 13.5288L6.12473 13.2189C4.89794 12.1028 4.28454 11.5447 4.36902 11.0117C4.38651 10.9013 4.42239 10.7946 4.47516 10.6961C4.72996 10.2203 5.56434 10.1456 7.2331 9.99617C8.21889 9.90788 8.71178 9.86374 9.10662 9.62576C9.21737 9.55901 9.32138 9.48168 9.4172 9.39485C9.75881 9.08528 9.94138 8.63014 10.3065 7.71986Z" fill="#F3CC40" stroke="#F3CC40" stroke-width="1.86038"/>
<path d="M38.3065 7.71986C38.9486 6.11918 39.2696 5.31883 39.7912 5.20791C39.9283 5.17874 40.0701 5.17874 40.2072 5.20791C40.7288 5.31883 41.0499 6.11918 41.6919 7.71986C42.0571 8.63014 42.2396 9.08528 42.5812 9.39485C42.6771 9.48168 42.7811 9.55901 42.8918 9.62576C43.2867 9.86374 43.7796 9.90788 44.7653 9.99617C46.4341 10.1456 47.2685 10.2203 47.5233 10.6961C47.576 10.7946 47.6119 10.9013 47.6294 11.0117C47.7139 11.5447 47.1005 12.1028 45.8737 13.2189L45.533 13.5288C44.9595 14.0506 44.6727 14.3116 44.5069 14.6372C44.4073 14.8325 44.3406 15.0428 44.3094 15.2598C44.2573 15.6215 44.3412 16 44.5092 16.7569L44.5692 17.0274C44.8704 18.3849 45.021 19.0637 44.833 19.3973C44.6641 19.697 44.3531 19.8889 44.0095 19.9053C43.627 19.9236 43.088 19.4844 42.01 18.606C41.2998 18.0273 40.9447 17.7379 40.5505 17.6249C40.1902 17.5216 39.8082 17.5216 39.448 17.6249C39.0537 17.7379 38.6986 18.0273 37.9884 18.606C36.9105 19.4844 36.3715 19.9236 35.989 19.9053C35.6454 19.8889 35.3343 19.697 35.1654 19.3973C34.9774 19.0637 35.128 18.3849 35.4292 17.0274L35.4892 16.7569C35.6572 16 35.7412 15.6215 35.6891 15.2598C35.6578 15.0428 35.5911 14.8325 35.4916 14.6372C35.3257 14.3116 35.0389 14.0506 34.4654 13.5288L34.1247 13.2189C32.8979 12.1028 32.2845 11.5447 32.369 11.0117C32.3865 10.9013 32.4224 10.7946 32.4752 10.6961C32.73 10.2203 33.5643 10.1456 35.2331 9.99617C36.2189 9.90788 36.7118 9.86374 37.1066 9.62576C37.2174 9.55901 37.3214 9.48168 37.4172 9.39485C37.7588 9.08528 37.9414 8.63014 38.3065 7.71986Z" fill="#F3CC40" stroke="#F3CC40" stroke-width="1.86038"/>
<path d="M66.3065 7.71986C66.9486 6.11918 67.2696 5.31883 67.7912 5.20791C67.9283 5.17874 68.0701 5.17874 68.2072 5.20791C68.7288 5.31883 69.0499 6.11918 69.6919 7.71986C70.0571 8.63014 70.2396 9.08528 70.5812 9.39485C70.6771 9.48168 70.7811 9.55901 70.8918 9.62576C71.2867 9.86374 71.7796 9.90788 72.7653 9.99617C74.4341 10.1456 75.2685 10.2203 75.5233 10.6961C75.576 10.7946 75.6119 10.9013 75.6294 11.0117C75.7139 11.5447 75.1005 12.1028 73.8737 13.2189L73.533 13.5288C72.9595 14.0506 72.6727 14.3116 72.5069 14.6372C72.4073 14.8325 72.3406 15.0428 72.3094 15.2598C72.2573 15.6215 72.3412 16 72.5092 16.7569L72.5692 17.0274C72.8704 18.3849 73.021 19.0637 72.833 19.3973C72.6641 19.697 72.3531 19.8889 72.0095 19.9053C71.627 19.9236 71.088 19.4844 70.01 18.606C69.2998 18.0273 68.9447 17.7379 68.5505 17.6249C68.1902 17.5216 67.8082 17.5216 67.448 17.6249C67.0537 17.7379 66.6986 18.0273 65.9884 18.606C64.9105 19.4844 64.3715 19.9236 63.989 19.9053C63.6454 19.8889 63.3343 19.697 63.1654 19.3973C62.9774 19.0637 63.128 18.3849 63.4292 17.0274L63.4892 16.7569C63.6572 16 63.7412 15.6215 63.6891 15.2598C63.6578 15.0428 63.5911 14.8325 63.4916 14.6372C63.3257 14.3116 63.0389 14.0506 62.4654 13.5288L62.1247 13.2189C60.8979 12.1028 60.2845 11.5447 60.369 11.0117C60.3865 10.9013 60.4224 10.7946 60.4752 10.6961C60.73 10.2203 61.5643 10.1456 63.2331 9.99617C64.2189 9.90788 64.7118 9.86374 65.1066 9.62576C65.2174 9.55901 65.3214 9.48168 65.4172 9.39485C65.7588 9.08528 65.9414 8.63014 66.3065 7.71986Z" fill="#F3CC40" stroke="#F3CC40" stroke-width="1.86038"/>
<path d="M94.3065 7.71986C94.9486 6.11918 95.2696 5.31883 95.7912 5.20791C95.9283 5.17874 96.0701 5.17874 96.2072 5.20791C96.7288 5.31883 97.0499 6.11918 97.6919 7.71986C98.0571 8.63014 98.2396 9.08528 98.5812 9.39485C98.6771 9.48168 98.7811 9.55901 98.8918 9.62576C99.2867 9.86374 99.7796 9.90788 100.765 9.99617C102.434 10.1456 103.268 10.2203 103.523 10.6961C103.576 10.7946 103.612 10.9013 103.629 11.0117C103.714 11.5447 103.101 12.1028 101.874 13.2189L101.533 13.5288C100.959 14.0506 100.673 14.3116 100.507 14.6372C100.407 14.8325 100.341 15.0428 100.309 15.2598C100.257 15.6215 100.341 16 100.509 16.7569L100.569 17.0274C100.87 18.3849 101.021 19.0637 100.833 19.3973C100.664 19.697 100.353 19.8889 100.009 19.9053C99.627 19.9236 99.088 19.4844 98.01 18.606C97.2998 18.0273 96.9447 17.7379 96.5505 17.6249C96.1902 17.5216 95.8082 17.5216 95.448 17.6249C95.0537 17.7379 94.6986 18.0273 93.9884 18.606C92.9105 19.4844 92.3715 19.9236 91.989 19.9053C91.6454 19.8889 91.3343 19.697 91.1654 19.3973C90.9774 19.0637 91.128 18.3849 91.4292 17.0274L91.4892 16.7569C91.6572 16 91.7412 15.6215 91.6891 15.2598C91.6578 15.0428 91.5911 14.8325 91.4916 14.6372C91.3257 14.3116 91.0389 14.0506 90.4654 13.5288L90.1247 13.2189C88.8979 12.1028 88.2845 11.5447 88.369 11.0117C88.3865 10.9013 88.4224 10.7946 88.4752 10.6961C88.73 10.2203 89.5643 10.1456 91.2331 9.99617C92.2189 9.90788 92.7118 9.86374 93.1066 9.62576C93.2174 9.55901 93.3214 9.48168 93.4172 9.39485C93.7588 9.08528 93.9414 8.63014 94.3065 7.71986Z" fill="#F3CC40" stroke="#F3CC40" stroke-width="1.86038"/>
<path d="M122.307 7.71986C122.949 6.11918 123.27 5.31883 123.791 5.20791C123.928 5.17874 124.07 5.17874 124.207 5.20791C124.729 5.31883 125.05 6.11918 125.692 7.71986C126.057 8.63014 126.24 9.08528 126.581 9.39485C126.677 9.48168 126.781 9.55901 126.892 9.62576C127.287 9.86374 127.78 9.90788 128.765 9.99617C130.434 10.1456 131.268 10.2203 131.523 10.6961C131.576 10.7946 131.612 10.9013 131.629 11.0117C131.714 11.5447 131.101 12.1028 129.874 13.2189L129.533 13.5288C128.959 14.0506 128.673 14.3116 128.507 14.6372C128.407 14.8325 128.341 15.0428 128.309 15.2598C128.257 15.6215 128.341 16 128.509 16.7569L128.569 17.0274C128.87 18.3849 129.021 19.0637 128.833 19.3973C128.664 19.697 128.353 19.8889 128.009 19.9053C127.627 19.9236 127.088 19.4844 126.01 18.606C125.3 18.0273 124.945 17.7379 124.55 17.6249C124.19 17.5216 123.808 17.5216 123.448 17.6249C123.054 17.7379 122.699 18.0273 121.988 18.606C120.91 19.4844 120.371 19.9236 119.989 19.9053C119.645 19.8889 119.334 19.697 119.165 19.3973C118.977 19.0637 119.128 18.3849 119.429 17.0274L119.489 16.7569C119.657 16 119.741 15.6215 119.689 15.2598C119.658 15.0428 119.591 14.8325 119.492 14.6372C119.326 14.3116 119.039 14.0506 118.465 13.5288L118.125 13.2189C116.898 12.1028 116.285 11.5447 116.369 11.0117C116.387 10.9013 116.422 10.7946 116.475 10.6961C116.73 10.2203 117.564 10.1456 119.233 9.99617C120.219 9.90788 120.712 9.86374 121.107 9.62576C121.217 9.55901 121.321 9.48168 121.417 9.39485C121.759 9.08528 121.941 8.63014 122.307 7.71986Z" stroke="#F3CC40"/>
</svg>
