<svg width="24" height="25" viewBox="0 0 24 25" fill="none" xmlns="http://www.w3.org/2000/svg">
<path d="M10.3065 7.71986C10.9486 6.11918 11.2696 5.31883 11.7912 5.20791C11.9283 5.17874 12.0701 5.17874 12.2072 5.20791C12.7288 5.31883 13.0499 6.11918 13.6919 7.71986C14.0571 8.63014 14.2396 9.08528 14.5812 9.39485C14.6771 9.48168 14.7811 9.55901 14.8918 9.62576C15.2867 9.86374 15.7796 9.90788 16.7653 9.99617C18.4341 10.1456 19.2685 10.2203 19.5233 10.6961C19.576 10.7946 19.6119 10.9013 19.6294 11.0117C19.7139 11.5447 19.1005 12.1028 17.8737 13.2189L17.533 13.5288C16.9595 14.0506 16.6727 14.3116 16.5069 14.6372C16.4073 14.8325 16.3406 15.0428 16.3094 15.2598C16.2573 15.6215 16.3412 16 16.5092 16.7569L16.5692 17.0274C16.8704 18.3849 17.021 19.0637 16.833 19.3973C16.6641 19.697 16.3531 19.8889 16.0095 19.9053C15.627 19.9236 15.088 19.4844 14.01 18.606C13.2998 18.0273 12.9447 17.7379 12.5505 17.6249C12.1902 17.5216 11.8082 17.5216 11.448 17.6249C11.0537 17.7379 10.6986 18.0273 9.98844 18.606C8.91046 19.4844 8.37147 19.9236 7.98895 19.9053C7.64535 19.8889 7.33431 19.697 7.16544 19.3973C6.97745 19.0637 7.12805 18.3849 7.42924 17.0274L7.48925 16.7569C7.6572 16 7.74118 15.6215 7.68907 15.2598C7.65781 15.0428 7.59109 14.8325 7.49159 14.6372C7.32572 14.3116 7.03894 14.0506 6.4654 13.5288L6.12473 13.2189C4.89794 12.1028 4.28454 11.5447 4.36902 11.0117C4.38651 10.9013 4.42239 10.7946 4.47516 10.6961C4.72996 10.2203 5.56434 10.1456 7.2331 9.99617C8.21889 9.90788 8.71178 9.86374 9.10662 9.62576C9.21737 9.55901 9.32138 9.48168 9.4172 9.39485C9.75881 9.08528 9.94138 8.63014 10.3065 7.71986Z" fill="#F3CC40" stroke="#F3CC40" stroke-width="1.86038"/>
</svg>
