<svg width="24" height="24" viewBox="0 0 18 17" fill="none" xmlns="http://www.w3.org/2000/svg">
<path d="M7.30651 3.71986C7.94859 2.11918 8.26962 1.31883 8.7912 1.20791C8.92835 1.17874 9.07009 1.17874 9.20724 1.20791C9.72882 1.31883 10.0499 2.11918 10.6919 3.71986C11.0571 4.63014 11.2396 5.08528 11.5812 5.39485C11.6771 5.48168 11.7811 5.55901 11.8918 5.62576C12.2867 5.86374 12.7796 5.90788 13.7653 5.99617C15.4341 6.14562 16.2685 6.22034 16.5233 6.69609C16.576 6.79462 16.6119 6.9013 16.6294 7.01169C16.7139 7.54472 16.1005 8.10278 14.8737 9.2189L14.533 9.52884C13.9595 10.0506 13.6727 10.3116 13.5069 10.6372C13.4074 10.8325 13.3406 11.0428 13.3094 11.2598C13.2573 11.6215 13.3412 12 13.5092 12.7569L13.5692 13.0274C13.8704 14.3849 14.021 15.0637 13.833 15.3973C13.6641 15.697 13.3531 15.8889 13.0095 15.9053C12.627 15.9236 12.088 15.4844 11.01 14.606C10.2998 14.0273 9.94469 13.7379 9.55048 13.6249C9.19023 13.5216 8.80821 13.5216 8.44796 13.6249C8.05375 13.7379 7.69864 14.0273 6.98844 14.606C5.91046 15.4844 5.37147 15.9236 4.98895 15.9053C4.64535 15.8889 4.33431 15.697 4.16544 15.3973C3.97745 15.0637 4.12805 14.3849 4.42924 13.0274L4.48925 12.7569C4.6572 12 4.74118 11.6215 4.68907 11.2598C4.65781 11.0428 4.59109 10.8325 4.49159 10.6372C4.32572 10.3116 4.03894 10.0506 3.4654 9.52884L3.12473 9.2189C1.89794 8.10278 1.28454 7.54472 1.36902 7.01169C1.38651 6.9013 1.42239 6.79462 1.47516 6.69609C1.72996 6.22034 2.56434 6.14562 4.2331 5.99617C5.21889 5.90788 5.71178 5.86374 6.10662 5.62576C6.21737 5.55901 6.32138 5.48168 6.4172 5.39485C6.75881 5.08528 6.94138 4.63014 7.30651 3.71986Z" stroke="#F3CC40"/>
</svg>
